<?xml version="1.0" encoding="utf-8"?>
<!-- Generator: Adobe Illustrator 16.0.0, SVG Export Plug-In . SVG Version: 6.00 Build 0)  -->
<!DOCTYPE svg PUBLIC "-//W3C//DTD SVG 1.1//EN" "http://www.w3.org/Graphics/SVG/1.1/DTD/svg11.dtd">
<svg version="1.1" name="layer" xmlns="http://www.w3.org/2000/svg" xmlns:xlink="http://www.w3.org/1999/xlink" x="0px" y="0px"
	 width="36.124px" height="83.755px" viewBox="0 0 36.124 83.755" enable-background="new 0 0 36.124 83.755" xml:space="preserve">
<g name="led">
	<g name="selected" opacity="0">
		<path name="selectPath" stroke="#33bbff" stroke-width="5" enable-background="new    " d="M36.122,37.633c-0.004-1.997-0.627-3.892-1.734-5.603
			c-0.185-0.286-0.383-0.566-0.594-0.84c-0.211-0.275-0.435-0.544-0.671-0.808V16.563C33.123,7.42,25.719,0,16.564,0
			C7.422,0,0,7.407,0,16.563v21.075v7.257v3.561v0.004c2.176,2.436,5.42,4.356,9.274,5.444v27.943c0,1.056,0.857,1.907,1.91,1.907
			s1.911-0.854,1.911-1.907l-0.001-27.177c1.128,0.143,2.287,0.223,3.474,0.223c1.26,0,2.489-0.092,3.683-0.251v4.727
			c0,1.88,1.682,3.335,3.455,4.88c0.788,0.67,2.395,2.22,2.395,3.141l0.008-0.002v14.463c0,1.055,0.854,1.906,1.906,1.906
			c1.055,0,1.908-0.854,1.908-1.906V66.66h0.002c0-2.083-1.891-3.731-3.71-5.311c-0.735-0.649-2.13-1.778-2.13-2.528v-4.979
			c7.064-2.062,12.037-6.938,12.037-12.641v-0.007v-3.554v-0.006C36.122,37.635,36.122,37.635,36.122,37.633
			C36.122,37.633,36.122,37.633,36.122,37.633z"/>
	</g>
	<g name="body">
		<path name="path12_2_" fill="#8C8C8C" d="M13.096,49.214h-3.82v32.635c0,1.055,0.857,1.906,1.91,1.906s1.911-0.854,1.911-1.906
			L13.096,49.214z"/>
		<path name="path11_2_" fill="#8C8C8C" d="M29.927,66.661c0-2.084-1.891-3.732-3.71-5.311c-0.735-0.65-2.13-1.778-2.13-2.529V49.11
			h-3.834v10.26c0,1.879,1.682,3.335,3.455,4.879c0.788,0.67,2.395,2.221,2.395,3.142l0.008-0.003v14.463
			c0,1.055,0.854,1.906,1.906,1.906c1.055,0,1.908-0.854,1.908-1.906V66.661H29.927z"/>
		<g name="g1">
			<path name="path10_2_" fill="#874949" d="M33.125,30.382V16.564C33.125,7.421,25.72,0,16.566,0C7.424,0,0.002,7.407,0.002,16.564
				v31.897c3.449,3.858,9.574,6.433,16.568,6.433c10.79,0,19.554-6.119,19.554-13.691v-3.561
				C36.118,34.971,35.014,32.49,33.125,30.382z"/>
			<path name="path9_2_" opacity="0.9" fill="#D1D1D1" enable-background="new    " d="M33.125,30.382v7.256
				c0,6.401-7.397,11.604-16.559,11.604C7.424,49.239,0.002,44.056,0.002,37.639v7.257v3.561c3.449,3.86,9.574,6.432,16.568,6.432
				c10.79,0,19.554-6.117,19.554-13.693v-3.559C36.118,34.971,35.014,32.49,33.125,30.382z"/>
			<path name="path8_2_" fill="#6D3535" d="M33.125,30.382v7.256c0,6.401-7.397,11.604-16.559,11.604
				C7.424,49.239,0.002,44.056,0.002,37.639v7.257v3.561c3.449,3.86,9.574,6.432,16.568,6.432c10.79,0,19.554-6.117,19.554-13.693
				v-3.559C36.118,34.971,35.014,32.49,33.125,30.382z"/>
			<path name="path7_2_" fill="#874949" d="M33.125,30.382v7.256c0,6.401-7.397,11.604-16.559,11.604
				C7.424,49.239,0.002,44.056,0.002,37.639v7.257c3.449,3.853,9.574,6.431,16.568,6.431c10.79,0,19.554-6.122,19.554-13.693
				C36.118,34.971,35.014,32.49,33.125,30.382z"/>
			<path name="path6_4_" fill="#8C5757" d="M31.005,38.386c0,5.12-6.537,9.276-14.601,9.276c-8.071,0-14.605-4.156-14.605-9.276
				c0,0,0-18.085,0-23.05c0-6.279,5.396-13.571,14.605-13.571c8.423,0,14.601,6.688,14.601,13.571
				C31.005,20.081,31.005,38.386,31.005,38.386z"/>
			<polygon name="path5_3_" fill="#6D3E3E" points="5.152,22.547 5.152,37.642 7.472,37.642 7.472,30.6 14.06,30.6 23.399,20.576 
				7.965,20.576 			"/>
			<polygon name="path4_4_" fill="#6D3E3E" points="25.189,19.917 26.21,21.109 17.323,30.6 25.848,30.6 25.848,37.642 27.983,37.642 
				27.983,19.917 			"/>
			<g name="g11">
				<path name="path3_4_" opacity="0.5" fill="#FFFFFF" enable-background="new    " d="M24.279,8.772l3.354-0.639
					c-1.967-2.646-4.865-4.573-8.275-5.231l0.594,2.526C21.737,6.062,23.238,7.253,24.279,8.772z"/>
				<path name="path2_5_" opacity="0.5" fill="#FFFFFF" enable-background="new    " d="M1.796,46.563v3.55
					c1.517,1.24,3.347,2.286,5.396,3.079V49.63C5.136,48.847,3.319,47.802,1.796,46.563z"/>
				<path name="path1_5_" opacity="0.5" fill="#FFFFFF" enable-background="new    " d="M25.876,47.226
					c-0.591,0.287-1.236,0.539-1.88,0.771c-0.138,0.045-0.274,0.096-0.413,0.139c-1.319,0.418-2.72,0.742-4.193,0.92
					c-0.18,0.023-0.359,0.045-0.525,0.045c-0.744,0.072-1.506,0.139-2.269,0.139c-0.347,0-0.719-0.033-1.104-0.057
					c-2.803-0.135-5.446-0.734-7.705-1.729V27.851V16.57c0-3.438,1.981-6.378,4.847-7.827l-0.057-0.121L9.661,5.089
					c-3.898,2.342-6.519,6.595-6.519,11.479v27.817c-0.116-0.113-0.722-0.721-1.123-1.236l-0.718,1.607
					c3.273,3.461,8.902,5.75,15.288,5.75c3.926,0,7.566-0.872,10.542-2.342l-1.23-0.954C25.876,47.226,25.876,47.226,25.876,47.226z
					"/>
			</g>
		</g>
	</g>
	<g name="ledOn" opacity="0">
		<path name="path10_3_" fill="#FF3939" d="M33.125,30.382V16.564C33.125,7.421,25.72,0,16.566,0C7.424,0,0.002,7.407,0.002,16.564
			v31.897c3.449,3.858,9.574,6.433,16.568,6.433c10.79,0,19.554-6.119,19.554-13.691v-3.561
			C36.118,34.971,35.014,32.49,33.125,30.382z"/>
		<path name="path9_3_" opacity="0.9" fill="#D1D1D1" enable-background="new    " d="M33.125,30.382v7.256
			c0,6.401-7.397,11.604-16.559,11.604C7.424,49.239,0.002,44.056,0.002,37.639v7.257v3.561c3.449,3.86,9.574,6.432,16.568,6.432
			c10.79,0,19.554-6.117,19.554-13.693v-3.559C36.118,34.971,35.014,32.49,33.125,30.382z"/>
		<path name="path8_3_" fill="#C91F1F" d="M33.125,30.382v7.256c0,6.401-7.397,11.604-16.559,11.604
			C7.424,49.239,0.002,44.056,0.002,37.639v7.257v3.561c3.449,3.86,9.574,6.432,16.568,6.432c10.79,0,19.554-6.117,19.554-13.693
			v-3.559C36.118,34.971,35.014,32.49,33.125,30.382z"/>
		<path name="path7_3_" fill="#FF3939" d="M33.125,30.382v7.256c0,6.401-7.397,11.604-16.559,11.604
			C7.424,49.239,0.002,44.056,0.002,37.639v7.257c3.449,3.853,9.574,6.431,16.568,6.431c10.79,0,19.554-6.122,19.554-13.693
			C36.118,34.971,35.014,32.49,33.125,30.382z"/>
		<path name="path6_3_" fill="#FF4A4A" d="M31.005,38.386c0,5.12-6.537,9.276-14.601,9.276c-8.071,0-14.605-4.156-14.605-9.276
			c0,0,0-18.085,0-23.05c0-6.279,5.396-13.571,14.605-13.571c8.423,0,14.601,6.688,14.601,13.571
			C31.005,20.081,31.005,38.386,31.005,38.386z"/>
		<polygon name="path5_4_" fill="#C62E2E" points="5.152,22.547 5.152,37.642 7.472,37.642 7.472,30.6 14.06,30.6 23.399,20.576 
			7.965,20.576 		"/>
		<polygon name="path4_5_" fill="#C62E2E" points="25.189,19.917 26.21,21.109 17.323,30.6 25.848,30.6 25.848,37.642 27.983,37.642 
			27.983,19.917 		"/>
		<g name="gon">
			<path name="path3_5_" opacity="0.5" fill="#FFFFFF" enable-background="new    " d="M24.279,8.772l3.354-0.639
				c-1.967-2.646-4.865-4.573-8.275-5.231l0.594,2.526C21.737,6.062,23.238,7.253,24.279,8.772z"/>
			<path name="path2_6_" opacity="0.5" fill="#FFFFFF" enable-background="new    " d="M1.796,46.563v3.55
				c1.517,1.24,3.347,2.286,5.396,3.079V49.63C5.136,48.847,3.319,47.802,1.796,46.563z"/>
			<path name="path1_6_" opacity="0.5" fill="#FFFFFF" enable-background="new    " d="M25.876,47.226
				c-0.591,0.287-1.236,0.539-1.88,0.771c-0.138,0.045-0.274,0.096-0.413,0.139c-1.319,0.418-2.72,0.742-4.193,0.92
				c-0.18,0.023-0.359,0.045-0.525,0.045c-0.744,0.072-1.506,0.139-2.269,0.139c-0.347,0-0.719-0.033-1.104-0.057
				c-2.803-0.135-5.446-0.734-7.705-1.729V27.851V16.57c0-3.438,1.981-6.378,4.847-7.827l-0.057-0.121L9.661,5.089
				c-3.898,2.342-6.519,6.595-6.519,11.479v27.817c-0.116-0.113-0.722-0.721-1.123-1.236l-0.718,1.607
				c3.273,3.461,8.902,5.75,15.288,5.75c3.926,0,7.566-0.872,10.542-2.342l-1.23-0.954C25.876,47.226,25.876,47.226,25.876,47.226z"
				/>
		</g>
	</g>
	<g name="select" opacity="0">
		<path name="selectPath" fill="#FFFFFF" enable-background="new    " d="M36.122,37.633c-0.004-1.997-0.627-3.892-1.734-5.603
			c-0.185-0.286-0.383-0.566-0.594-0.84c-0.211-0.275-0.435-0.544-0.671-0.808V16.563C33.123,7.42,25.719,0,16.564,0
			C7.422,0,0,7.407,0,16.563v21.075v7.257v3.561v0.004c2.176,2.436,5.42,4.356,9.274,5.444v27.943c0,1.056,0.857,1.907,1.91,1.907
			s1.911-0.854,1.911-1.907l-0.001-27.177c1.128,0.143,2.287,0.223,3.474,0.223c1.26,0,2.489-0.092,3.683-0.251v4.727
			c0,1.88,1.682,3.335,3.455,4.88c0.788,0.67,2.395,2.22,2.395,3.141l0.008-0.002v14.463c0,1.055,0.854,1.906,1.906,1.906
			c1.055,0,1.908-0.854,1.908-1.906V66.66h0.002c0-2.083-1.891-3.731-3.71-5.311c-0.735-0.649-2.13-1.778-2.13-2.528v-4.979
			c7.064-2.062,12.037-6.938,12.037-12.641v-0.007v-3.554v-0.006C36.122,37.635,36.122,37.635,36.122,37.633
			C36.122,37.633,36.122,37.633,36.122,37.633z"/>
	</g>
	<g name="pinGroup" opacity="0">
		<rect name="gnd" x="7.187" y="75.756" fill="#FFFFFF" width="8" height="8"/>
		<rect name="signal" x="24.037" y="75.757" fill="#FFFFFF" width="8" height="8"/>
	</g>
</g>
</svg>
