<?xml version="1.0" encoding="utf-8"?>
<!-- Generator: Adobe Illustrator 16.0.0, SVG Export Plug-In . SVG Version: 6.00 Build 0)  -->
<!DOCTYPE svg PUBLIC "-//W3C//DTD SVG 1.1//EN" "http://www.w3.org/Graphics/SVG/1.1/DTD/svg11.dtd">
<svg version="1.1" name="layer" xmlns="http://www.w3.org/2000/svg" xmlns:xlink="http://www.w3.org/1999/xlink" x="0px" y="0px"
	 width="205.854px" height="369.049px" viewBox="0 0 205.854 369.049" enable-background="new 0 0 205.854 369.049"
	 xml:space="preserve">
<g name="max7219">
	<g name="selected" opacity="0">
		<path name="selectPath" stroke="#33bbff" stroke-width="5" d="M200.893,30.32h-62.006V2c0-1.104-0.896-2-2-2c-1.104,0-2,0.895-2,2v28.32h-13V2
			c0-1.104-0.896-2-2-2c-1.104,0-2,0.895-2,2v28.32h-12.959V2c0-1.104-0.896-2-2-2c-1.104,0-2,0.895-2,2v28.32h-13V2
			c0-1.104-0.896-2-2-2c-1.104,0-2,0.895-2,2v28.32h-13V2c0-1.104-0.896-2-2-2c-1.104,0-2,0.895-2,2v28.32H4.964
			c-2.739,0-4.963,2.222-4.963,4.961L0,333.891c0,2.74,2.224,4.963,4.962,4.963h62.024v28.195c0,1.105,0.895,2,2,2
			c1.103,0,2-0.896,2-2v-28.195h13v28.195c0,1.105,0.895,2,2,2c1.103,0,2-0.896,2-2v-28.195h12.959v28.195c0,1.105,0.895,2,2,2
			c1.103,0,2-0.896,2-2v-28.195h13v28.195c0,1.105,0.896,2,2,2c1.104,0,2-0.896,2-2v-28.195h13v28.195c0,1.105,0.896,2,2,2
			c1.104,0,2-0.896,2-2v-28.195h61.945c0.553,0,1.074-0.107,1.57-0.275h1.164v-0.549c1.342-0.889,2.229-2.406,2.229-4.139V35.281
			C205.854,32.542,203.633,30.32,200.893,30.32z M15.345,332.082c-5.246,0-9.499-4.256-9.499-9.5c0-5.248,4.253-9.502,9.499-9.502
			c5.248,0,9.501,4.254,9.501,9.502C24.846,327.826,20.593,332.082,15.345,332.082z M190.442,332.082
			c-5.247,0-9.499-4.256-9.499-9.5c0-5.248,4.252-9.502,9.499-9.502s9.501,4.254,9.501,9.502
			C199.943,327.826,195.689,332.082,190.442,332.082z"/>
	</g>
	<g name="body">
		<g>
			<path fill="#217639" d="M200.893,30.32H4.964c-2.739,0-4.963,2.222-4.963,4.961L0,333.891c0,2.74,2.224,4.963,4.962,4.963h195.93
				c0.553,0,1.074-0.109,1.57-0.277h1.164v-0.547c1.342-0.889,2.229-2.406,2.229-4.139V35.281
				C205.854,32.542,203.633,30.32,200.893,30.32z M15.345,332.082c-5.246,0-9.499-4.256-9.499-9.5c0-5.248,4.253-9.502,9.499-9.502
				c5.248,0,9.501,4.254,9.501,9.502C24.846,327.826,20.593,332.082,15.345,332.082z M190.442,332.082
				c-5.247,0-9.499-4.256-9.499-9.5c0-5.248,4.252-9.502,9.499-9.502s9.501,4.254,9.501,9.502
				C199.943,327.826,195.689,332.082,190.442,332.082z"/>
		</g>
		<g name="pin_4_">
			<path fill="#9FA0A0" d="M102.928,0c1.104,0,2,0.896,2,2v46.821c0,1.104-0.896,2-2,2s-2-0.896-2-2V2
				C100.928,0.895,101.824,0,102.928,0z"/>
			<path fill="#9FA0A0" d="M85.928,0c1.104,0,2,0.896,2,2v46.821c0,1.104-0.896,2-2,2s-2-0.896-2-2V2
				C83.928,0.895,84.824,0,85.928,0z"/>
			<path fill="#9FA0A0" d="M136.887,0c1.104,0,2,0.896,2,2v46.821c0,1.104-0.896,2-2,2s-2-0.896-2-2V2
				C134.887,0.895,135.783,0,136.887,0z"/>
			<path fill="#9FA0A0" d="M119.887,0c1.104,0,2,0.896,2,2v46.821c0,1.104-0.896,2-2,2s-2-0.896-2-2V2
				C117.887,0.895,118.783,0,119.887,0z"/>
			<path fill="#9FA0A0" d="M68.928,0c1.104,0,2,0.896,2,2v46.821c0,1.104-0.896,2-2,2s-2-0.896-2-2V2
				C66.928,0.895,67.824,0,68.928,0z"/>
			<rect x="60.621" y="42.016" fill="#595757" width="50.834" height="13.61"/>
			<g>
				<rect x="94.524" y="42.016" fill="#231815" width="2.403" height="13.61"/>
				<rect x="92.031" y="42.03" fill="#727171" width="2.404" height="13.61"/>
			</g>
			<g>
				<rect x="77.503" y="42.016" fill="#231815" width="2.404" height="13.61"/>
				<rect x="75.01" y="42.03" fill="#727171" width="2.403" height="13.61"/>
			</g>
			<g>
				<rect x="60.483" y="42.016" fill="#231815" width="2.405" height="13.61"/>
			</g>
			<rect x="109.051" y="42.03" fill="#727171" width="2.403" height="13.61"/>
			<rect x="111.594" y="42.016" fill="#595757" width="33.813" height="13.61"/>
			<g>
				<rect x="128.477" y="42.016" fill="#231815" width="2.404" height="13.61"/>
				<rect x="125.983" y="42.03" fill="#727171" width="2.403" height="13.61"/>
			</g>
			<g>
				<rect x="111.455" y="42.016" fill="#231815" width="2.406" height="13.61"/>
			</g>
			<rect x="143.004" y="42.03" fill="#727171" width="2.403" height="13.61"/>
		</g>
		<g>
			<polygon fill="#303030" points="199.221,241.887 6.633,241.887 5.945,241.887 5.945,242.514 5.945,275.271 5.945,275.898 
				6.633,275.898 199.221,275.898 199.912,275.898 199.912,275.271 199.912,242.514 199.912,241.887 			"/>
			<polygon fill="#3D3D3D" points="199.221,241.887 6.633,241.887 5.945,241.887 5.945,242.514 5.945,244.352 5.945,244.98 
				6.633,244.98 199.221,244.98 199.912,244.98 199.912,244.352 199.912,242.514 199.912,241.887 			"/>
			<rect x="5.945" y="272.801" width="193.968" height="3.1"/>
			<polygon fill="#141414" points="199.912,241.887 198.872,244.98 198.872,272.801 199.912,275.898 			"/>
			<polygon fill="#1C1C1C" points="12.868,252.592 6.319,252.541 6.027,255.213 6.027,258.891 12.868,258.891 			"/>
			<polygon fill="#383838" points="12.868,258.262 6.716,258.262 6.027,258.262 6.027,258.891 6.027,262.572 6.027,262.598 
				6.029,262.627 6.292,265.309 6.35,265.885 6.98,265.885 12.868,265.885 13.562,265.885 13.562,265.256 13.562,258.891 
				13.562,258.262 			"/>
			<path fill="#262626" d="M6.795,254.588l-0.77-0.082v0.707v7.346v0.707l0.77-0.082c2.293-0.238,4.244-2.139,4.244-4.303
				C11.04,256.715,9.1,254.826,6.795,254.588z"/>
			<path fill="#303030" d="M6.98,244.98v7.551c3.303,0.562,5.807,3.188,5.807,6.352c0,3.16-2.495,5.793-5.807,6.357v0.016h6.931
				v-20.273H6.98V244.98z"/>
			<path fill="#303030" d="M6.98,244.352h6.931h0.69v0.629v20.273v0.629h-0.69H6.98H6.291v-0.629v-0.014v-0.523l0.563-0.096
				c3.072-0.527,5.242-2.816,5.242-5.742c0-2.928-2.183-5.205-5.242-5.73l-0.563-0.1v-0.52v-7.549v-0.629H6.98L6.98,244.352z"/>
			<ellipse fill="#212121" cx="14.948" cy="267.673" rx="2.853" ry="2.597"/>
			<g>
				<polygon fill="#8C8C8C" points="15.641,273.584 14.948,273.584 10.791,273.584 10.102,273.584 10.102,274.213 10.102,275.271 
					10.102,275.898 10.102,276.73 10.102,277.359 10.102,279.682 10.102,280.309 10.791,280.309 14.948,280.309 15.641,280.309 
					15.641,279.682 15.641,277.137 18.007,276.143 18.412,275.975 18.412,275.57 18.412,274.213 18.412,273.584 17.719,273.584 				
					"/>
				<polygon fill="#8C8C8C" points="15.641,240.648 15.641,238.104 15.641,237.473 14.948,237.473 10.791,237.473 10.102,237.473 
					10.102,238.104 10.102,240.424 10.102,241.053 10.102,241.887 10.102,242.514 10.102,243.572 10.102,244.201 10.791,244.201 
					14.948,244.201 15.641,244.201 17.719,244.201 18.412,244.201 18.412,243.572 18.412,242.211 18.412,241.807 18.007,241.639 
									"/>
				<polygon fill="#8C8C8C" points="190.905,273.584 190.216,273.584 188.138,273.584 187.443,273.584 187.443,274.213 
					187.443,275.57 187.443,275.975 187.847,276.143 190.216,277.139 190.216,279.682 190.216,280.309 190.905,280.309 
					195.062,280.309 195.759,280.309 195.759,279.682 195.759,277.359 195.759,276.73 195.759,275.898 195.759,275.271 
					195.759,274.213 195.759,273.584 195.062,273.584 				"/>
				<polygon fill="#8C8C8C" points="195.062,237.473 190.905,237.473 190.216,237.473 190.216,238.104 190.216,240.646 
					187.847,241.639 187.443,241.807 187.443,242.211 187.443,243.572 187.443,244.201 188.138,244.201 190.216,244.201 
					190.905,244.201 195.062,244.201 195.759,244.201 195.759,243.572 195.759,241.053 195.759,240.424 195.759,237.473 				"/>
				<polygon fill="#8C8C8C" points="43.352,240.648 43.352,238.104 43.352,237.473 42.66,237.473 38.501,237.473 37.812,237.473 
					37.812,238.104 37.812,240.648 35.442,241.639 35.035,241.807 35.035,242.211 35.035,243.572 35.035,244.201 35.733,244.201 
					37.812,244.201 38.501,244.201 42.66,244.201 43.352,244.201 45.428,244.201 46.119,244.201 46.119,243.572 46.119,242.211 
					46.119,241.807 45.72,241.639 				"/>
				<polygon fill="#8C8C8C" points="23.951,244.201 24.65,244.201 28.801,244.201 29.495,244.201 31.43,244.201 32.12,244.201 
					32.12,243.572 32.12,242.211 32.12,241.807 31.721,241.639 29.495,240.711 29.495,238.104 29.495,237.473 28.801,237.473 
					24.65,237.473 23.951,237.473 23.951,238.104 23.951,240.592 21.444,241.639 21.036,241.807 21.036,242.211 21.036,243.572 
					21.036,244.201 21.734,244.201 				"/>
				<polygon fill="#8C8C8C" points="57.205,240.648 57.205,238.104 57.205,237.473 56.513,237.473 52.357,237.473 51.662,237.473 
					51.662,238.104 51.662,240.648 49.297,241.639 48.896,241.807 48.896,242.211 48.896,243.572 48.896,244.201 49.584,244.201 
					51.662,244.201 52.357,244.201 56.513,244.201 57.205,244.201 59.287,244.201 59.979,244.201 59.979,243.572 59.979,242.211 
					59.979,241.807 59.574,241.639 				"/>
				<polygon fill="#8C8C8C" points="71.062,240.648 71.062,238.104 71.062,237.473 70.372,237.473 66.211,237.473 65.519,237.473 
					65.519,238.104 65.519,240.65 63.15,241.639 62.746,241.807 62.746,242.211 62.746,243.572 62.746,244.201 63.44,244.201 
					65.519,244.201 66.211,244.201 70.372,244.201 71.062,244.201 73.141,244.201 73.829,244.201 73.829,243.572 73.829,242.211 
					73.829,241.807 73.429,241.639 				"/>
				<polygon fill="#8C8C8C" points="84.913,240.646 84.913,238.104 84.913,237.473 84.222,237.473 80.067,237.473 79.376,237.473 
					79.376,238.104 79.376,240.648 77.007,241.639 76.604,241.807 76.604,242.211 76.604,243.572 76.604,244.201 77.294,244.201 
					79.376,244.201 80.067,244.201 84.222,244.201 84.913,244.201 86.994,244.201 87.689,244.201 87.689,243.572 87.689,242.211 
					87.689,241.807 87.281,241.639 				"/>
				<polygon fill="#8C8C8C" points="98.772,240.65 98.772,238.104 98.772,237.473 98.078,237.473 93.921,237.473 93.229,237.473 
					93.229,238.104 93.229,240.65 90.861,241.639 90.46,241.807 90.46,242.211 90.46,243.572 90.46,244.201 91.15,244.201 
					93.229,244.201 93.921,244.201 98.078,244.201 98.772,244.201 100.851,244.201 101.544,244.201 101.544,242.211 
					101.544,241.807 101.142,241.639 				"/>
				<polygon fill="#8C8C8C" points="112.627,240.648 112.627,238.104 112.627,237.473 111.934,237.473 107.778,237.473 
					107.086,237.473 107.086,238.104 107.086,240.646 104.719,241.639 104.312,241.807 104.312,242.211 104.312,243.572 
					104.312,244.201 105.004,244.201 107.086,244.201 107.778,244.201 111.934,244.201 112.627,244.201 114.705,244.201 
					115.396,244.201 115.396,243.572 115.396,242.211 115.396,241.807 114.993,241.639 				"/>
				<polygon fill="#8C8C8C" points="126.483,240.65 126.483,238.104 126.483,237.473 125.788,237.473 121.629,237.473 
					120.939,237.473 120.939,238.104 120.939,240.648 118.571,241.639 118.171,241.807 118.171,242.211 118.171,243.572 
					118.171,244.201 118.861,244.201 120.939,244.201 121.629,244.201 125.788,244.201 126.483,244.201 128.561,244.201 
					129.254,244.201 129.254,243.572 129.254,242.211 129.254,241.807 128.851,241.639 				"/>
				<polygon fill="#8C8C8C" points="140.338,240.648 140.338,238.104 140.338,237.473 139.644,237.473 135.488,237.473 
					134.795,237.473 134.795,238.104 134.795,240.648 132.426,241.639 132.021,241.807 132.021,242.211 132.021,243.572 
					132.021,244.201 132.713,244.201 134.795,244.201 135.488,244.201 139.644,244.201 140.338,244.201 142.415,244.201 
					143.105,244.201 143.105,243.572 143.105,242.211 143.105,241.807 142.702,241.639 				"/>
				<polygon fill="#8C8C8C" points="154.19,240.648 154.19,238.104 154.19,237.473 153.5,237.473 149.34,237.473 148.65,237.473 
					148.65,238.104 148.65,240.648 146.28,241.639 145.881,241.807 145.881,242.211 145.881,243.572 145.881,244.201 
					146.571,244.201 148.65,244.201 149.34,244.201 153.5,244.201 154.19,244.201 156.267,244.201 156.965,244.201 156.965,243.572 
					156.965,242.211 156.965,241.807 156.559,241.639 				"/>
				<polygon fill="#8C8C8C" points="168.048,240.65 168.048,238.104 168.048,237.473 167.351,237.473 163.198,237.473 
					162.505,237.473 162.505,238.104 162.505,240.648 160.136,241.639 159.734,241.807 159.734,242.211 159.734,243.572 
					159.734,244.201 160.423,244.201 162.505,244.201 163.198,244.201 167.351,244.201 168.048,244.201 170.127,244.201 
					170.818,244.201 170.818,243.572 170.818,242.211 170.818,241.807 170.412,241.639 				"/>
				<polygon fill="#8C8C8C" points="181.9,240.648 181.9,238.104 181.9,237.473 181.211,237.473 177.053,237.473 176.361,237.473 
					176.361,238.104 176.361,240.648 173.992,241.639 173.588,241.807 173.588,242.211 173.588,243.572 173.588,244.201 
					174.281,244.201 176.361,244.201 177.053,244.201 181.211,244.201 181.9,244.201 183.979,244.201 184.672,244.201 
					184.672,243.572 184.672,242.211 184.672,241.807 184.268,241.639 				"/>
				<polygon fill="#8C8C8C" points="29.495,273.584 28.801,273.584 24.65,273.584 23.951,273.584 21.874,273.584 21.185,273.584 
					21.185,274.213 21.185,275.57 21.185,275.975 21.586,276.143 23.951,277.137 23.951,279.682 23.951,280.309 24.65,280.309 
					28.801,280.309 29.495,280.309 29.495,279.682 29.495,277.137 31.864,276.143 32.268,275.975 32.268,275.57 32.268,274.213 
					32.268,273.584 31.576,273.584 				"/>
				<polygon fill="#8C8C8C" points="43.352,273.584 42.66,273.584 38.501,273.584 37.812,273.584 35.733,273.584 35.035,273.584 
					35.035,274.213 35.035,275.57 35.035,275.975 35.442,276.143 37.812,277.137 37.812,279.682 37.812,280.309 38.501,280.309 
					42.66,280.309 43.352,280.309 43.352,279.682 43.352,277.137 45.72,276.143 46.119,275.975 46.119,275.57 46.119,274.213 
					46.119,273.584 45.428,273.584 				"/>
				<polygon fill="#8C8C8C" points="57.205,273.584 56.513,273.584 52.357,273.584 51.662,273.584 49.584,273.584 48.896,273.584 
					48.896,274.213 48.896,275.57 48.896,275.975 49.297,276.143 51.662,277.137 51.662,279.682 51.662,280.309 52.357,280.309 
					56.513,280.309 57.205,280.309 57.205,279.682 57.205,277.137 59.574,276.143 59.979,275.975 59.979,275.57 59.979,274.213 
					59.979,273.584 59.287,273.584 				"/>
				<polygon fill="#8C8C8C" points="71.062,273.584 70.372,273.584 66.211,273.584 65.519,273.584 63.44,273.584 62.746,273.584 
					62.746,274.213 62.746,275.57 62.746,275.975 63.15,276.143 65.519,277.135 65.519,279.682 65.519,280.309 66.211,280.309 
					70.372,280.309 71.062,280.309 71.062,279.682 71.062,277.137 73.429,276.143 73.829,275.975 73.829,275.57 73.829,274.213 
					73.829,273.584 73.141,273.584 				"/>
				<polygon fill="#8C8C8C" points="84.913,273.584 84.222,273.584 80.067,273.584 79.376,273.584 77.294,273.584 76.604,273.584 
					76.604,274.213 76.604,275.57 76.604,275.975 77.007,276.143 79.376,277.137 79.376,279.682 79.376,280.309 80.067,280.309 
					84.222,280.309 84.913,280.309 84.913,279.682 84.913,277.139 87.281,276.143 87.689,275.975 87.689,275.57 87.689,274.213 
					87.689,273.584 86.994,273.584 				"/>
				<polygon fill="#8C8C8C" points="98.772,273.584 98.078,273.584 93.921,273.584 93.229,273.584 91.15,273.584 90.46,273.584 
					90.46,274.213 90.46,275.57 90.46,275.975 90.861,276.143 93.229,277.135 93.229,279.682 93.229,280.309 93.921,280.309 
					98.078,280.309 98.772,280.309 98.772,279.682 98.772,277.135 101.142,276.143 101.544,275.975 101.544,275.57 101.544,274.213 
					101.544,273.584 100.851,273.584 				"/>
				<polygon fill="#8C8C8C" points="112.627,273.584 111.934,273.584 107.778,273.584 107.086,273.584 105.004,273.584 
					104.312,273.584 104.312,274.213 104.312,275.57 104.312,275.975 104.719,276.143 107.086,277.139 107.086,279.682 
					107.086,280.309 107.778,280.309 111.934,280.309 112.627,280.309 112.627,279.682 112.627,277.137 114.993,276.143 
					115.396,275.975 115.396,275.57 115.396,274.213 115.396,273.584 114.705,273.584 				"/>
				<polygon fill="#8C8C8C" points="126.483,273.584 125.788,273.584 121.629,273.584 120.939,273.584 118.861,273.584 
					118.171,273.584 118.171,274.213 118.171,275.57 118.171,275.975 118.571,276.143 120.939,277.137 120.939,279.682 
					120.939,280.309 121.629,280.309 125.788,280.309 126.483,280.309 126.483,279.682 126.483,277.135 128.851,276.143 
					129.254,275.975 129.254,275.57 129.254,274.213 129.254,273.584 128.561,273.584 				"/>
				<polygon fill="#8C8C8C" points="140.338,273.584 139.644,273.584 135.488,273.584 134.795,273.584 132.713,273.584 
					132.021,273.584 132.021,274.213 132.021,275.57 132.021,275.975 132.426,276.143 134.795,277.137 134.795,279.682 
					134.795,280.309 135.488,280.309 139.644,280.309 140.338,280.309 140.338,279.682 140.338,277.137 142.702,276.143 
					143.105,275.975 143.105,275.57 143.105,274.213 143.105,273.584 142.415,273.584 				"/>
				<polygon fill="#8C8C8C" points="154.19,273.584 153.5,273.584 149.34,273.584 148.65,273.584 146.571,273.584 145.881,273.584 
					145.881,274.213 145.881,275.57 145.881,275.975 146.28,276.143 148.65,277.137 148.65,279.682 148.65,280.309 149.34,280.309 
					153.5,280.309 154.19,280.309 154.19,279.682 154.19,277.137 156.559,276.143 156.965,275.975 156.965,275.57 156.965,274.213 
					156.965,273.584 156.267,273.584 				"/>
				<polygon fill="#8C8C8C" points="168.048,273.584 167.351,273.584 163.198,273.584 162.505,273.584 160.423,273.584 
					159.734,273.584 159.734,274.213 159.734,275.57 159.734,275.975 160.136,276.143 162.505,277.137 162.505,279.682 
					162.505,280.309 163.198,280.309 167.351,280.309 168.048,280.309 168.048,279.682 168.048,277.135 170.412,276.143 
					170.818,275.975 170.818,275.57 170.818,274.213 170.818,273.584 170.127,273.584 				"/>
				<polygon fill="#8C8C8C" points="181.9,273.584 181.211,273.584 177.053,273.584 176.361,273.584 174.281,273.584 
					173.588,273.584 173.588,274.213 173.588,275.57 173.588,275.975 173.992,276.143 176.361,277.137 176.361,279.682 
					176.361,280.309 177.053,280.309 181.211,280.309 181.9,280.309 181.9,279.682 181.9,277.137 184.268,276.143 184.672,275.975 
					184.672,275.57 184.672,274.213 184.672,273.584 183.979,273.584 				"/>
			</g>
		</g>
		<rect x="5.622" y="37.658" fill="#3E3A39" width="194.614" height="194.611"/>
		<g>
			<path fill="#FFFFFF" d="M70.698,310.678l-7.874,3.051V312.6l5.72-2.047c0.459-0.164,0.891-0.303,1.289-0.412
				c-0.43-0.123-0.857-0.264-1.289-0.426l-5.72-2.127v-1.062l7.874,3.082V310.678z"/>
			<path fill="#FFFFFF" d="M67.938,299.422l0.263-1.041c0.856,0.219,1.509,0.609,1.958,1.178s0.675,1.262,0.675,2.082
				c0,0.85-0.173,1.539-0.519,2.07c-0.347,0.529-0.848,0.938-1.501,1.215c-0.656,0.275-1.359,0.416-2.111,0.416
				c-0.82,0-1.535-0.156-2.146-0.473c-0.61-0.311-1.074-0.76-1.394-1.338c-0.314-0.578-0.475-1.215-0.475-1.906
				c0-0.787,0.2-1.451,0.602-1.988c0.4-0.537,0.965-0.91,1.691-1.121l0.242,1.025c-0.573,0.182-0.99,0.445-1.253,0.795
				c-0.263,0.348-0.394,0.781-0.394,1.311c0,0.605,0.146,1.111,0.438,1.52c0.289,0.404,0.68,0.689,1.168,0.854
				c0.487,0.166,0.992,0.248,1.512,0.248c0.67,0,1.255-0.098,1.754-0.293c0.5-0.195,0.873-0.498,1.12-0.91s0.37-0.854,0.37-1.338
				c0-0.584-0.168-1.078-0.504-1.479C69.101,299.84,68.601,299.564,67.938,299.422z"/>
			<path fill="#FFFFFF" d="M67.938,290.928l0.263-1.041c0.856,0.219,1.509,0.611,1.958,1.178c0.449,0.568,0.675,1.264,0.675,2.082
				c0,0.85-0.173,1.539-0.519,2.07c-0.347,0.531-0.848,0.938-1.501,1.215c-0.656,0.277-1.359,0.416-2.111,0.416
				c-0.82,0-1.535-0.156-2.146-0.471c-0.61-0.312-1.074-0.76-1.394-1.338c-0.314-0.578-0.475-1.215-0.475-1.908
				c0-0.787,0.2-1.451,0.602-1.988c0.4-0.537,0.965-0.91,1.691-1.121l0.242,1.025c-0.573,0.182-0.99,0.447-1.253,0.795
				s-0.394,0.783-0.394,1.311c0,0.605,0.146,1.111,0.438,1.52c0.289,0.406,0.68,0.689,1.168,0.854
				c0.487,0.166,0.992,0.248,1.512,0.248c0.67,0,1.255-0.098,1.754-0.293c0.5-0.195,0.873-0.498,1.12-0.91s0.37-0.854,0.37-1.338
				c0-0.584-0.168-1.078-0.504-1.479C69.101,291.346,68.601,291.068,67.938,290.928z"/>
			<path fill="#FFFFFF" d="M85.611,309.24h-0.924l-0.007-3.334h2.923c0.407,0.514,0.715,1.039,0.921,1.584s0.31,1.105,0.31,1.678
				c0,0.771-0.166,1.477-0.497,2.105c-0.331,0.633-0.811,1.109-1.437,1.434c-0.627,0.32-1.327,0.48-2.103,0.48
				c-0.767,0-1.479-0.158-2.146-0.479c-0.664-0.32-1.158-0.781-1.48-1.385c-0.321-0.602-0.48-1.293-0.48-2.076
				c0-0.568,0.092-1.084,0.274-1.545c0.187-0.459,0.441-0.82,0.771-1.082c0.329-0.264,0.759-0.459,1.289-0.598l0.258,0.939
				c-0.401,0.119-0.716,0.266-0.945,0.441c-0.229,0.174-0.412,0.426-0.551,0.752c-0.138,0.324-0.207,0.688-0.207,1.084
				c0,0.477,0.073,0.889,0.218,1.234c0.146,0.348,0.337,0.627,0.572,0.84c0.236,0.215,0.496,0.381,0.778,0.498
				c0.486,0.199,1.016,0.301,1.585,0.301c0.702,0,1.289-0.119,1.762-0.361c0.474-0.242,0.823-0.594,1.053-1.057
				c0.23-0.463,0.346-0.951,0.346-1.473c0-0.451-0.088-0.891-0.263-1.32c-0.174-0.43-0.356-0.756-0.556-0.979H85.61L85.611,309.24
				L85.611,309.24z"/>
			<path fill="#FFFFFF" d="M88.698,303.832h-7.874v-1.068l6.184-4.137h-6.184v-0.998h7.874v1.066l-6.188,4.139h6.188V303.832z"/>
			<path fill="#FFFFFF" d="M88.698,295.326h-7.874v-2.713c0-0.611,0.038-1.08,0.112-1.4c0.104-0.451,0.292-0.836,0.562-1.154
				c0.353-0.416,0.8-0.727,1.347-0.932c0.547-0.207,1.171-0.312,1.871-0.312c0.6,0,1.129,0.07,1.591,0.211
				c0.463,0.141,0.845,0.318,1.146,0.537c0.303,0.219,0.54,0.457,0.714,0.717c0.174,0.262,0.308,0.572,0.396,0.939
				c0.09,0.367,0.135,0.789,0.135,1.266V295.326z M87.77,294.283v-1.682c0-0.52-0.049-0.926-0.146-1.223
				c-0.097-0.295-0.23-0.529-0.408-0.705c-0.246-0.248-0.578-0.439-0.995-0.578c-0.417-0.137-0.924-0.207-1.519-0.207
				c-0.823,0-1.456,0.137-1.897,0.406s-0.737,0.6-0.89,0.986c-0.105,0.277-0.162,0.729-0.162,1.348v1.654H87.77L87.77,294.283z"/>
			<path fill="#FFFFFF" d="M106.698,312.928h-7.874v-2.713c0-0.611,0.038-1.08,0.112-1.402c0.104-0.451,0.292-0.836,0.562-1.152
				c0.353-0.416,0.8-0.729,1.347-0.934s1.171-0.309,1.871-0.309c0.6,0,1.129,0.066,1.591,0.209c0.463,0.141,0.845,0.316,1.146,0.537
				c0.301,0.219,0.54,0.455,0.714,0.717c0.174,0.26,0.308,0.572,0.396,0.938c0.09,0.367,0.135,0.789,0.135,1.268V312.928z
				 M105.77,311.885v-1.68c0-0.521-0.049-0.93-0.146-1.225c-0.097-0.295-0.23-0.531-0.408-0.707
				c-0.246-0.246-0.578-0.438-0.995-0.576s-0.924-0.207-1.519-0.207c-0.823,0-1.456,0.137-1.897,0.404
				c-0.441,0.271-0.737,0.602-0.89,0.986c-0.105,0.279-0.162,0.729-0.162,1.348v1.654h6.018V311.885z"/>
			<path fill="#FFFFFF" d="M106.698,304.256h-7.874v-1.041h7.874V304.256z"/>
			<path fill="#FFFFFF" d="M106.698,300.838h-7.874v-1.068l6.184-4.137h-6.184v-0.998h7.874v1.066l-6.188,4.139h6.188V300.838z"/>
			<path fill="#FFFFFF" d="M121.938,307.307l0.264-1.041c0.855,0.219,1.51,0.611,1.958,1.178c0.449,0.568,0.676,1.266,0.676,2.082
				c0,0.852-0.174,1.539-0.521,2.07c-0.346,0.531-0.847,0.938-1.501,1.215c-0.655,0.277-1.358,0.416-2.11,0.416
				c-0.819,0-1.534-0.156-2.146-0.471c-0.609-0.312-1.073-0.758-1.392-1.338c-0.316-0.578-0.477-1.213-0.477-1.908
				c0-0.787,0.2-1.451,0.604-1.988c0.399-0.537,0.965-0.908,1.69-1.121l0.241,1.025c-0.572,0.182-0.989,0.447-1.252,0.795
				c-0.262,0.348-0.394,0.783-0.394,1.312c0,0.604,0.146,1.109,0.437,1.518c0.29,0.406,0.681,0.691,1.168,0.854
				c0.489,0.166,0.993,0.248,1.513,0.248c0.67,0,1.255-0.098,1.754-0.293c0.5-0.191,0.873-0.498,1.12-0.908s0.369-0.855,0.369-1.34
				c0-0.584-0.168-1.076-0.504-1.479C123.1,307.725,122.6,307.451,121.938,307.307z"/>
			<path fill="#FFFFFF" d="M122.17,304.789l-0.086-0.984c0.394-0.045,0.717-0.154,0.969-0.324c0.253-0.17,0.457-0.434,0.611-0.793
				c0.156-0.355,0.232-0.76,0.232-1.207c0-0.396-0.059-0.75-0.177-1.053c-0.118-0.305-0.28-0.531-0.485-0.68
				c-0.206-0.148-0.432-0.227-0.675-0.227c-0.247,0-0.463,0.072-0.646,0.217c-0.185,0.145-0.339,0.381-0.465,0.709
				c-0.082,0.211-0.21,0.68-0.385,1.4c-0.174,0.725-0.337,1.23-0.49,1.521c-0.196,0.375-0.44,0.654-0.732,0.84
				c-0.292,0.184-0.618,0.277-0.979,0.277c-0.397,0-0.771-0.113-1.115-0.34c-0.346-0.225-0.606-0.555-0.786-0.988
				s-0.269-0.914-0.269-1.443c0-0.584,0.094-1.1,0.28-1.545c0.188-0.445,0.465-0.789,0.83-1.029c0.365-0.238,0.778-0.367,1.24-0.387
				l0.075,1c-0.498,0.053-0.874,0.234-1.129,0.545c-0.254,0.311-0.382,0.77-0.382,1.373c0,0.629,0.115,1.088,0.348,1.377
				c0.229,0.289,0.51,0.432,0.835,0.432c0.283,0,0.517-0.102,0.698-0.305c0.184-0.201,0.369-0.725,0.562-1.572
				c0.19-0.846,0.357-1.428,0.502-1.74c0.211-0.459,0.479-0.799,0.803-1.018s0.697-0.328,1.12-0.328
				c0.419,0,0.812,0.121,1.186,0.361c0.37,0.238,0.658,0.584,0.863,1.033c0.206,0.449,0.312,0.955,0.312,1.518
				c0,0.713-0.104,1.311-0.312,1.791c-0.207,0.482-0.52,0.859-0.937,1.133C123.168,304.631,122.695,304.771,122.17,304.789z"/>
			<path fill="#FFFFFF" d="M139.938,307.307l0.264-1.041c0.855,0.219,1.51,0.611,1.958,1.178c0.449,0.568,0.676,1.266,0.676,2.082
				c0,0.852-0.174,1.539-0.521,2.07c-0.346,0.531-0.847,0.938-1.501,1.215c-0.655,0.277-1.358,0.416-2.11,0.416
				c-0.819,0-1.534-0.156-2.146-0.471c-0.609-0.312-1.073-0.758-1.392-1.338c-0.316-0.578-0.477-1.213-0.477-1.908
				c0-0.787,0.2-1.451,0.604-1.988c0.399-0.537,0.965-0.908,1.69-1.121l0.241,1.025c-0.572,0.182-0.989,0.447-1.252,0.795
				c-0.262,0.348-0.394,0.783-0.394,1.312c0,0.604,0.146,1.109,0.437,1.518c0.29,0.406,0.681,0.691,1.168,0.854
				c0.489,0.166,0.993,0.248,1.513,0.248c0.67,0,1.255-0.098,1.754-0.293c0.5-0.191,0.873-0.498,1.12-0.908s0.369-0.855,0.369-1.34
				c0-0.584-0.168-1.076-0.504-1.479C141.1,307.725,140.6,307.451,139.938,307.307z"/>
			<path fill="#FFFFFF" d="M142.698,304.475h-7.874v-1.041h6.943v-3.879h0.931V304.475z"/>
			<path fill="#FFFFFF" d="M142.698,297.807h-7.874v-1.041h3.904l-3.904-3.91v-1.414l3.189,3.307l4.685-3.447v1.375l-3.984,2.803
				l1.257,1.289h2.729L142.698,297.807L142.698,297.807z"/>
		</g>
		<g name="pin_3_">
			<path fill="#9FA0A0" d="M102.946,369.051c-1.105,0-2-0.896-2-2v-39.82c0-1.104,0.895-2,2-2c1.104,0,2,0.896,2,2v39.82
				C104.946,368.152,104.048,369.051,102.946,369.051z"/>
			<path fill="#9FA0A0" d="M119.946,369.051c-1.104,0-2-0.896-2-2v-39.82c0-1.104,0.896-2,2-2s2,0.896,2,2v39.82
				C121.946,368.152,121.049,369.051,119.946,369.051z"/>
			<path fill="#9FA0A0" d="M68.987,369.051c-1.105,0-2-0.896-2-2v-39.82c0-1.104,0.895-2,2-2c1.104,0,2,0.896,2,2v39.82
				C70.987,368.152,70.089,369.051,68.987,369.051z"/>
			<path fill="#9FA0A0" d="M85.987,369.051c-1.105,0-2-0.896-2-2v-39.82c0-1.104,0.895-2,2-2c1.104,0,2,0.896,2,2v39.82
				C87.987,368.152,87.089,369.051,85.987,369.051z"/>
			<path fill="#9FA0A0" d="M136.946,369.051c-1.104,0-2-0.896-2-2v-39.82c0-1.104,0.896-2,2-2s2,0.896,2,2v39.82
				C138.946,368.152,138.049,369.051,136.946,369.051z"/>
			<rect x="94.418" y="320.424" fill="#595757" width="50.835" height="13.609"/>
			<g>
				<rect x="108.946" y="320.424" fill="#231815" width="2.404" height="13.609"/>
				<rect x="111.438" y="320.408" fill="#727171" width="2.403" height="13.609"/>
			</g>
			<g>
				<rect x="125.965" y="320.424" fill="#231815" width="2.403" height="13.609"/>
				<rect x="128.46" y="320.408" fill="#727171" width="2.403" height="13.609"/>
			</g>
			<g>
				<rect x="142.985" y="320.424" fill="#231815" width="2.405" height="13.609"/>
			</g>
			<rect x="94.418" y="320.408" fill="#727171" width="2.404" height="13.609"/>
			<rect x="60.464" y="320.424" fill="#595757" width="33.814" height="13.609"/>
			<g>
				<rect x="74.992" y="320.424" fill="#231815" width="2.404" height="13.609"/>
				<rect x="77.487" y="320.408" fill="#727171" width="2.404" height="13.609"/>
			</g>
			<g>
				<rect x="92.012" y="320.424" fill="#231815" width="2.405" height="13.609"/>
			</g>
			<rect x="60.464" y="320.408" fill="#727171" width="2.404" height="13.609"/>
		</g>
	</g>
	<g name="select" opacity="0">
		<path name="selectPath" fill="#FFFFFF" d="M200.893,30.32h-62.006V2c0-1.104-0.896-2-2-2c-1.104,0-2,0.895-2,2v28.32h-13V2
			c0-1.104-0.896-2-2-2c-1.104,0-2,0.895-2,2v28.32h-12.959V2c0-1.104-0.896-2-2-2c-1.104,0-2,0.895-2,2v28.32h-13V2
			c0-1.104-0.896-2-2-2c-1.104,0-2,0.895-2,2v28.32h-13V2c0-1.104-0.896-2-2-2c-1.104,0-2,0.895-2,2v28.32H4.964
			c-2.739,0-4.963,2.222-4.963,4.961L0,333.891c0,2.74,2.224,4.963,4.962,4.963h62.024v28.195c0,1.105,0.895,2,2,2
			c1.103,0,2-0.896,2-2v-28.195h13v28.195c0,1.105,0.895,2,2,2c1.103,0,2-0.896,2-2v-28.195h12.959v28.195c0,1.105,0.895,2,2,2
			c1.103,0,2-0.896,2-2v-28.195h13v28.195c0,1.105,0.896,2,2,2c1.104,0,2-0.896,2-2v-28.195h13v28.195c0,1.105,0.896,2,2,2
			c1.104,0,2-0.896,2-2v-28.195h61.945c0.553,0,1.074-0.107,1.57-0.275h1.164v-0.549c1.342-0.889,2.229-2.406,2.229-4.139V35.281
			C205.854,32.542,203.633,30.32,200.893,30.32z M15.345,332.082c-5.246,0-9.499-4.256-9.499-9.5c0-5.248,4.253-9.502,9.499-9.502
			c5.248,0,9.501,4.254,9.501,9.502C24.846,327.826,20.593,332.082,15.345,332.082z M190.442,332.082
			c-5.247,0-9.499-4.256-9.499-9.5c0-5.248,4.252-9.502,9.499-9.502s9.501,4.254,9.501,9.502
			C199.943,327.826,195.689,332.082,190.442,332.082z"/>
	</g>
	<g name="matrix">
		<g name="col0">
			<g name="max00-0">
				<circle fill="#CCCCCC" cx="23.682" cy="55.317" r="8.96"/>
			</g>
			<g name="max00-1" opacity="0">
				<circle fill="#FF0000" cx="23.682" cy="55.317" r="8.96"/>
			</g>
			<g name="max01-0">
				<circle fill="#CCCCCC" cx="23.682" cy="78.073" r="8.96"/>
			</g>
			<g name="max01-1" opacity="0">
				<circle fill="#FF0000" cx="23.682" cy="78.073" r="8.96"/>
			</g>
			<g name="max02-0">
				<circle fill="#CCCCCC" cx="23.682" cy="100.829" r="8.96"/>
			</g>
			<g name="max02-1" opacity="0">
				<circle fill="#FF0000" cx="23.682" cy="100.829" r="8.96"/>
			</g>
			<g name="max03-0">
				<circle fill="#CCCCCC" cx="23.682" cy="123.586" r="8.96"/>
			</g>
			<g name="max03-1" opacity="0">
				<circle fill="#FF0000" cx="23.682" cy="123.586" r="8.96"/>
			</g>
			<g name="max04-0">
				<circle fill="#CCCCCC" cx="23.682" cy="146.341" r="8.96"/>
			</g>
			<g name="max04-1" opacity="0">
				<circle fill="#FF0000" cx="23.682" cy="146.341" r="8.96"/>
			</g>
			<g name="max05-0">
				<circle fill="#CCCCCC" cx="23.682" cy="169.096" r="8.96"/>
			</g>
			<g name="max05-1" opacity="0">
				<circle fill="#FF0000" cx="23.682" cy="169.096" r="8.96"/>
			</g>
			<g name="max06-0">
				<circle fill="#CCCCCC" cx="23.682" cy="191.853" r="8.96"/>
			</g>
			<g name="max06-1" opacity="0">
				<circle fill="#FF0000" cx="23.682" cy="191.853" r="8.96"/>
			</g>
			<g name="max07-0">
				<circle fill="#CCCCCC" cx="23.682" cy="214.608" r="8.96"/>
			</g>
			<g name="max07-1" opacity="0">
				<circle fill="#FF0000" cx="23.682" cy="214.608" r="8.96"/>
			</g>
		</g>
		<g name="col1">
			<g name="max10-0">
				<circle fill="#CCCCCC" cx="46.323" cy="55.317" r="8.96"/>
			</g>
			<g name="max10-1" opacity="0">
				<circle fill="#FF0000" cx="46.323" cy="55.317" r="8.96"/>
			</g>
			<g name="max11-0">
				<circle fill="#CCCCCC" cx="46.323" cy="78.073" r="8.96"/>
			</g>
			<g name="max11-1" opacity="0">
				<circle fill="#FF0000" cx="46.323" cy="78.073" r="8.96"/>
			</g>
			<g name="max12-0">
				<circle fill="#CCCCCC" cx="46.323" cy="100.829" r="8.96"/>
			</g>
			<g name="max12-1" opacity="0">
				<circle fill="#FF0000" cx="46.323" cy="100.829" r="8.96"/>
			</g>
			<g name="max13-0">
				<circle fill="#CCCCCC" cx="46.323" cy="123.586" r="8.96"/>
			</g>
			<g name="max13-1" opacity="0">
				<circle fill="#FF0000" cx="46.323" cy="123.586" r="8.96"/>
			</g>
			<g name="max14-0">
				<circle fill="#CCCCCC" cx="46.321" cy="146.341" r="8.96"/>
			</g>
			<g name="max14-1" opacity="0">
				<circle fill="#FF0000" cx="46.323" cy="146.341" r="8.96"/>
			</g>
			<g name="max15-0">
				<circle fill="#CCCCCC" cx="46.323" cy="169.096" r="8.96"/>
			</g>
			<g name="max15-1" opacity="0">
				<circle fill="#FF0000" cx="46.323" cy="169.096" r="8.96"/>
			</g>
			<g name="max16-0">
				<circle fill="#CCCCCC" cx="46.323" cy="191.853" r="8.96"/>
			</g>
			<g name="max16-1" opacity="0">
				<circle fill="#FF0000" cx="46.323" cy="191.853" r="8.96"/>
			</g>
			<g name="max17-0">
				<circle fill="#CCCCCC" cx="46.323" cy="214.608" r="8.96"/>
			</g>
			<g name="max17-1" opacity="0">
				<circle fill="#FF0000" cx="46.323" cy="214.608" r="8.96"/>
			</g>
		</g>
		<g name="col2">
			<g name="max20-0">
				<circle fill="#CCCCCC" cx="68.963" cy="55.317" r="8.96"/>
			</g>
			<g name="max20-1" opacity="0">
				<circle fill="#FF0000" cx="68.963" cy="55.317" r="8.96"/>
			</g>
			<g name="max21-0">
				<circle fill="#CCCCCC" cx="68.963" cy="78.073" r="8.96"/>
			</g>
			<g name="max21-1" opacity="0">
				<circle fill="#FF0000" cx="68.963" cy="78.073" r="8.96"/>
			</g>
			<g name="max22-0">
				<circle fill="#CCCCCC" cx="68.963" cy="100.829" r="8.96"/>
			</g>
			<g name="max22-1" opacity="0">
				<circle fill="#FF0000" cx="68.963" cy="100.829" r="8.96"/>
			</g>
			<g name="max23-0">
				<circle fill="#CCCCCC" cx="68.963" cy="123.586" r="8.96"/>
			</g>
			<g name="max23-1" opacity="0">
				<circle fill="#FF0000" cx="68.963" cy="123.586" r="8.96"/>
			</g>
			<g name="max24-0">
				<circle fill="#CCCCCC" cx="68.963" cy="146.341" r="8.96"/>
			</g>
			<g name="max24-1" opacity="0">
				<circle fill="#FF0000" cx="68.963" cy="146.341" r="8.96"/>
			</g>
			<g name="max25-0">
				<circle fill="#CCCCCC" cx="68.963" cy="169.096" r="8.96"/>
			</g>
			<g name="max25-1" opacity="0">
				<circle fill="#FF0000" cx="68.963" cy="169.096" r="8.96"/>
			</g>
			<g name="max26-0">
				<circle fill="#CCCCCC" cx="68.963" cy="191.853" r="8.96"/>
			</g>
			<g name="max26-1" opacity="0">
				<circle fill="#FF0000" cx="68.963" cy="191.853" r="8.96"/>
			</g>
			<g name="max27-0">
				<circle fill="#CCCCCC" cx="68.963" cy="214.608" r="8.96"/>
			</g>
			<g name="max27-1" opacity="0">
				<circle fill="#FF0000" cx="68.963" cy="214.608" r="8.96"/>
			</g>
		</g>
		<g name="col3">
			<g name="max30-0">
				<circle fill="#CCCCCC" cx="91.607" cy="55.317" r="8.96"/>
			</g>
			<g name="max30-1" opacity="0">
				<circle fill="#FF0000" cx="91.607" cy="55.317" r="8.96"/>
			</g>
			<g name="max31-0">
				<circle fill="#CCCCCC" cx="91.607" cy="78.073" r="8.96"/>
			</g>
			<g name="max31-1" opacity="0">
				<circle fill="#FF0000" cx="91.607" cy="78.073" r="8.96"/>
			</g>
			<g name="max32-0">
				<circle fill="#CCCCCC" cx="91.607" cy="100.829" r="8.96"/>
			</g>
			<g name="max32-1" opacity="0">
				<circle fill="#FF0000" cx="91.607" cy="100.829" r="8.96"/>
			</g>
			<g name="max33-0">
				<circle fill="#CCCCCC" cx="91.607" cy="123.586" r="8.96"/>
			</g>
			<g name="max33-1" opacity="0">
				<circle fill="#FF0000" cx="91.607" cy="123.586" r="8.96"/>
			</g>
			<g name="max34-0">
				<circle fill="#CCCCCC" cx="91.607" cy="146.341" r="8.96"/>
			</g>
			<g name="max34-1" opacity="0">
				<circle fill="#FF0000" cx="91.607" cy="146.341" r="8.96"/>
			</g>
			<g name="max35-0">
				<circle fill="#CCCCCC" cx="91.607" cy="169.096" r="8.96"/>
			</g>
			<g name="max35-1" opacity="0">
				<circle fill="#FF0000" cx="91.607" cy="169.096" r="8.96"/>
			</g>
			<g name="max36-0">
				<circle fill="#CCCCCC" cx="91.607" cy="191.853" r="8.96"/>
			</g>
			<g name="max36-1" opacity="0">
				<circle fill="#FF0000" cx="91.607" cy="191.853" r="8.96"/>
			</g>
			<g name="max37-0">
				<circle fill="#CCCCCC" cx="91.607" cy="214.608" r="8.96"/>
			</g>
			<g name="max37-1" opacity="0">
				<circle fill="#FF0000" cx="91.607" cy="214.608" r="8.96"/>
			</g>
		</g>
		<g name="col4">
			<g name="max40-0">
				<circle fill="#CCCCCC" cx="114.251" cy="55.317" r="8.96"/>
			</g>
			<g name="max40-1" opacity="0">
				<circle fill="#FF0000" cx="114.251" cy="55.317" r="8.96"/>
			</g>
			<g name="max41-0">
				<circle fill="#CCCCCC" cx="114.251" cy="78.074" r="8.96"/>
			</g>
			<g name="max41-1" opacity="0">
				<circle fill="#FF0000" cx="114.251" cy="78.074" r="8.96"/>
			</g>
			<g name="max42-0">
				<circle fill="#CCCCCC" cx="114.251" cy="100.829" r="8.96"/>
			</g>
			<g name="max42-1" opacity="0">
				<circle fill="#FF0000" cx="114.251" cy="100.829" r="8.96"/>
			</g>
			<g name="max43-0">
				<circle fill="#CCCCCC" cx="114.251" cy="123.586" r="8.96"/>
			</g>
			<g name="max43-1" opacity="0">
				<circle fill="#FF0000" cx="114.251" cy="123.586" r="8.96"/>
			</g>
			<g name="max44-0">
				<circle fill="#CCCCCC" cx="114.251" cy="146.341" r="8.96"/>
			</g>
			<g name="max44-1" opacity="0">
				<circle fill="#FF0000" cx="114.251" cy="146.341" r="8.96"/>
			</g>
			<g name="max45-0">
				<circle fill="#CCCCCC" cx="114.251" cy="169.096" r="8.96"/>
			</g>
			<g name="max45-1" opacity="0">
				<circle fill="#FF0000" cx="114.251" cy="169.096" r="8.96"/>
			</g>
			<g name="max46-0">
				<circle fill="#CCCCCC" cx="114.251" cy="191.853" r="8.96"/>
			</g>
			<g name="max46-1" opacity="0">
				<circle fill="#FF0000" cx="114.251" cy="191.853" r="8.96"/>
			</g>
			<g name="max47-0">
				<circle fill="#CCCCCC" cx="114.251" cy="214.608" r="8.96"/>
			</g>
			<g name="max47-1" opacity="0">
				<circle fill="#FF0000" cx="114.251" cy="214.608" r="8.96"/>
			</g>
		</g>
		<g name="col5">
			<g name="max50-0">
				<circle fill="#CCCCCC" cx="136.894" cy="55.317" r="8.96"/>
			</g>
			<g name="max50-1" opacity="0">
				<circle fill="#FF0000" cx="136.894" cy="55.317" r="8.96"/>
			</g>
			<g name="max51-0">
				<circle fill="#CCCCCC" cx="136.894" cy="78.074" r="8.96"/>
			</g>
			<g name="max51-1" opacity="0">
				<circle fill="#FF0000" cx="136.894" cy="78.074" r="8.96"/>
			</g>
			<g name="max52-0">
				<circle fill="#CCCCCC" cx="136.894" cy="100.829" r="8.96"/>
			</g>
			<g name="max52-1" opacity="0">
				<circle fill="#FF0000" cx="136.894" cy="100.829" r="8.96"/>
			</g>
			<g name="max53-0">
				<circle fill="#CCCCCC" cx="136.894" cy="123.586" r="8.96"/>
			</g>
			<g name="max53-1" opacity="0">
				<circle fill="#FF0000" cx="136.894" cy="123.586" r="8.96"/>
			</g>
			<g name="max54-0">
				<circle fill="#CCCCCC" cx="136.894" cy="146.342" r="8.96"/>
			</g>
			<g name="max54-1" opacity="0">
				<circle fill="#FF0000" cx="136.894" cy="146.342" r="8.96"/>
			</g>
			<g name="max55-0">
				<circle fill="#CCCCCC" cx="136.894" cy="169.097" r="8.96"/>
			</g>
			<g name="max55-1" opacity="0">
				<circle fill="#FF0000" cx="136.894" cy="169.097" r="8.96"/>
			</g>
			<g name="max56-0">
				<circle fill="#CCCCCC" cx="136.894" cy="191.854" r="8.96"/>
			</g>
			<g name="max56-1" opacity="0">
				<circle fill="#FF0000" cx="136.894" cy="191.854" r="8.96"/>
			</g>
			<g name="max57-0">
				<circle fill="#CCCCCC" cx="136.894" cy="214.608" r="8.96"/>
			</g>
			<g name="max57-1" opacity="0">
				<circle fill="#FF0000" cx="136.894" cy="214.608" r="8.96"/>
			</g>
		</g>
		<g name="col6">
			<g name="max60-0">
				<circle fill="#CCCCCC" cx="159.534" cy="55.317" r="8.96"/>
			</g>
			<g name="max60-1" opacity="0">
				<circle fill="#FF0000" cx="159.534" cy="55.317" r="8.96"/>
			</g>
			<g name="max61-0">
				<circle fill="#CCCCCC" cx="159.534" cy="78.074" r="8.96"/>
			</g>
			<g name="max61-1" opacity="0">
				<circle fill="#FF0000" cx="159.534" cy="78.074" r="8.96"/>
			</g>
			<g name="max62-0">
				<circle fill="#CCCCCC" cx="159.534" cy="100.829" r="8.96"/>
			</g>
			<g name="max62-1" opacity="0">
				<circle fill="#FF0000" cx="159.534" cy="100.829" r="8.96"/>
			</g>
			<g name="max63-0">
				<circle fill="#CCCCCC" cx="159.534" cy="123.586" r="8.96"/>
			</g>
			<g name="max63-1" opacity="0">
				<circle fill="#FF0000" cx="159.534" cy="123.586" r="8.96"/>
			</g>
			<g name="max64-0">
				<circle fill="#CCCCCC" cx="159.534" cy="146.342" r="8.96"/>
			</g>
			<g name="max64-1" opacity="0">
				<circle fill="#FF0000" cx="159.534" cy="146.342" r="8.96"/>
			</g>
			<g name="max65-0">
				<circle fill="#CCCCCC" cx="159.534" cy="169.097" r="8.96"/>
			</g>
			<g name="max65-1" opacity="0">
				<circle fill="#FF0000" cx="159.534" cy="169.097" r="8.96"/>
			</g>
			<g name="max66-0">
				<circle fill="#CCCCCC" cx="159.534" cy="191.854" r="8.96"/>
			</g>
			<g name="max66-1" opacity="0">
				<circle fill="#FF0000" cx="159.534" cy="191.854" r="8.96"/>
			</g>
			<g name="max67-0">
				<circle fill="#CCCCCC" cx="159.534" cy="214.608" r="8.96"/>
			</g>
			<g name="max67-1" opacity="0">
				<circle fill="#FF0000" cx="159.534" cy="214.608" r="8.96"/>
			</g>
		</g>
		<g name="col7">
			<g name="max70-0">
				<circle fill="#CCCCCC" cx="182.178" cy="55.317" r="8.96"/>
			</g>
			<g name="max70-1" opacity="0">
				<circle fill="#FF0000" cx="182.178" cy="55.317" r="8.96"/>
			</g>
			<g name="max71-0">
				<circle fill="#CCCCCC" cx="182.178" cy="78.074" r="8.96"/>
			</g>
			<g name="max71-1" opacity="0">
				<circle fill="#FF0000" cx="182.178" cy="78.074" r="8.96"/>
			</g>
			<g name="max72-0">
				<circle fill="#CCCCCC" cx="182.177" cy="100.829" r="8.96"/>
			</g>
			<g name="max72-1" opacity="0">
				<circle fill="#FF0000" cx="182.177" cy="100.829" r="8.96"/>
			</g>
			<g name="max73-0">
				<circle fill="#CCCCCC" cx="182.177" cy="123.586" r="8.96"/>
			</g>
			<g name="max73-1" opacity="0">
				<circle fill="#FF0000" cx="182.177" cy="123.586" r="8.96"/>
			</g>
			<g name="max74-0">
				<circle fill="#CCCCCC" cx="182.177" cy="146.342" r="8.96"/>
			</g>
			<g name="max74-1" opacity="0">
				<circle fill="#FF0000" cx="182.177" cy="146.342" r="8.96"/>
			</g>
			<g name="max75-0">
				<circle fill="#CCCCCC" cx="182.177" cy="169.097" r="8.96"/>
			</g>
			<g name="max75-1" opacity="0">
				<circle fill="#FF0000" cx="182.177" cy="169.097" r="8.96"/>
			</g>
			<g name="max76-0">
				<circle fill="#CCCCCC" cx="182.177" cy="191.854" r="8.96"/>
			</g>
			<g name="max76-1" opacity="0">
				<circle fill="#FF0000" cx="182.177" cy="191.854" r="8.96"/>
			</g>
			<g name="max77-0">
				<circle fill="#CCCCCC" cx="182.177" cy="214.608" r="8.96"/>
			</g>
			<g name="max77-1" opacity="0">
				<circle fill="#FF0000" cx="182.177" cy="214.608" r="8.96"/>
			</g>
		</g>
	</g>
	<g name="pinGroup" opacity="0">
		<rect name="vcc" x="64.683" y="361.051" fill="#E60012" width="8" height="8"/>
		<rect name="gnd" x="82.062" y="361.051" fill="#E60012" width="8" height="8"/>
		<rect name="din" x="98.756" y="361.051" fill="#E60012" width="8" height="8"/>
		<rect name="cs" x="116.136" y="361.051" fill="#E60012" width="8" height="8"/>
		<rect name="clk" x="133.136" y="361.051" fill="#E60012" width="8" height="8"/>
	</g>
</g>
</svg>
