<?xml version="1.0" encoding="utf-8"?>
<!-- Generator: Adobe Illustrator 16.0.0, SVG Export Plug-In . SVG Version: 6.00 Build 0)  -->
<!DOCTYPE svg PUBLIC "-//W3C//DTD SVG 1.1//EN" "http://www.w3.org/Graphics/SVG/1.1/DTD/svg11.dtd">
<svg version="1.1" name="layer" xmlns="http://www.w3.org/2000/svg" xmlns:xlink="http://www.w3.org/1999/xlink" x="0px" y="0px"
	 width="297.64px" height="168.139px" viewBox="0 0 297.64 168.139" enable-background="new 0 0 297.64 168.139"
	 xml:space="preserve">
<g name="ultrasonic">
	<g name="selected" opacity="0">
		<path name="selectPath" stroke="#33bbff" stroke-width="5" d="M295.947,0H3C1.343,0,0,1.343,0,3v129c0,1.657,1.343,3,3,3h119.113v31.139
			c0,1.104,0.895,2,2,2c1.104,0,2-0.896,2-2V135h13v31.139c0,1.104,0.895,2,2,2c1.104,0,2-0.896,2-2V135h13v31.139
			c0,1.104,0.895,2,2,2c1.104,0,2-0.896,2-2V135h13v31.139c0,1.104,0.895,2,2,2c1.104,0,2-0.896,2-2V135h118.834
			c1.657,0,3-1.343,3-3V3C298.947,1.343,297.604,0,295.947,0z M290.726,131.301c-0.675,0-1.31-0.159-1.885-0.427
			c-1.276-0.906-2.115-2.389-2.115-4.073s0.839-3.167,2.115-4.073c0.575-0.268,1.21-0.427,1.885-0.427c2.481,0,4.5,2.019,4.5,4.5
			S293.207,131.301,290.726,131.301z M6.725,131.301c-0.675,0-1.309-0.159-1.884-0.427c-1.276-0.906-2.116-2.389-2.116-4.073
			s0.839-3.167,2.116-4.073c0.575-0.268,1.209-0.427,1.884-0.427c2.482,0,4.5,2.019,4.5,4.5S9.207,131.301,6.725,131.301z
			 M6.725,3.051c2.482,0,4.5,2.019,4.5,4.5s-2.018,4.5-4.5,4.5c-0.675,0-1.309-0.16-1.884-0.427
			c-1.276-0.906-2.116-2.388-2.116-4.073s0.839-3.167,2.116-4.073C5.416,3.21,6.05,3.051,6.725,3.051z M290.726,12.051
			c-0.675,0-1.31-0.16-1.885-0.427c-1.276-0.906-2.115-2.389-2.115-4.073s0.839-3.167,2.115-4.073
			c0.575-0.268,1.21-0.427,1.885-0.427c2.481,0,4.5,2.019,4.5,4.5S293.207,12.051,290.726,12.051z M12.725,7.551
			c0,1.978-1.158,3.671-2.824,4.482c1.404-0.998,2.324-2.633,2.324-4.482s-0.92-3.485-2.324-4.482
			C11.567,3.879,12.725,5.573,12.725,7.551z M9.901,131.283c1.404-0.997,2.324-2.634,2.324-4.482s-0.92-3.485-2.324-4.482
			c1.666,0.812,2.824,2.505,2.824,4.482S11.567,130.472,9.901,131.283z M293.901,131.283c1.403-0.997,2.324-2.634,2.324-4.482
			s-0.921-3.485-2.324-4.482c1.666,0.812,2.824,2.505,2.824,4.482S295.567,130.472,293.901,131.283z M293.901,12.033
			c1.403-0.998,2.324-2.633,2.324-4.482s-0.921-3.485-2.324-4.482c1.666,0.812,2.824,2.505,2.824,4.482
			S295.567,11.222,293.901,12.033z"/>
	</g>
	<g name="body">
		<g name="board">
			<g>
				<path fill="#145F7C" d="M295.947,0H3C1.343,0,0,1.343,0,3v129c0,1.657,1.343,3,3,3h292.947c1.657,0,3-1.343,3-3V3
					C298.947,1.343,297.604,0,295.947,0z M7.725,131.801c-2.761,0-5-2.239-5-5s2.239-5,5-5s5,2.239,5,5
					S10.486,131.801,7.725,131.801z M7.725,12.551c-2.761,0-5-2.239-5-5s2.239-5,5-5s5,2.239,5,5S10.486,12.551,7.725,12.551z
					 M291.726,131.801c-2.762,0-5-2.239-5-5s2.238-5,5-5c2.761,0,5,2.239,5,5S294.486,131.801,291.726,131.801z M291.726,12.551
					c-2.762,0-5-2.239-5-5s2.238-5,5-5c2.761,0,5,2.239,5,5S294.486,12.551,291.726,12.551z"/>
			</g>
			<path fill="#DCDDDD" d="M6.725,13.051c-3.033,0-5.5-2.467-5.5-5.5s2.467-5.5,5.5-5.5s5.5,2.467,5.5,5.5
				S9.758,13.051,6.725,13.051z M6.725,3.051c-2.481,0-4.5,2.019-4.5,4.5s2.019,4.5,4.5,4.5c2.482,0,4.5-2.019,4.5-4.5
				S9.207,3.051,6.725,3.051z"/>
			<path fill="#DCDDDD" d="M6.725,132.301c-3.033,0-5.5-2.468-5.5-5.5s2.467-5.5,5.5-5.5s5.5,2.468,5.5,5.5
				S9.758,132.301,6.725,132.301z M6.725,122.301c-2.481,0-4.5,2.019-4.5,4.5s2.019,4.5,4.5,4.5c2.482,0,4.5-2.019,4.5-4.5
				S9.207,122.301,6.725,122.301z"/>
			<path fill="#DCDDDD" d="M290.726,13.051c-3.032,0-5.5-2.467-5.5-5.5s2.468-5.5,5.5-5.5s5.5,2.467,5.5,5.5
				S293.758,13.051,290.726,13.051z M290.726,3.051c-2.481,0-4.5,2.019-4.5,4.5s2.019,4.5,4.5,4.5s4.5-2.019,4.5-4.5
				S293.207,3.051,290.726,3.051z"/>
			<path fill="#DCDDDD" d="M290.726,132.301c-3.032,0-5.5-2.468-5.5-5.5s2.468-5.5,5.5-5.5s5.5,2.468,5.5,5.5
				S293.758,132.301,290.726,132.301z M290.726,122.301c-2.481,0-4.5,2.019-4.5,4.5s2.019,4.5,4.5,4.5s4.5-2.019,4.5-4.5
				S293.207,122.301,290.726,122.301z"/>
		</g>
		<g name="bb">
			<g name="b1">
				<g>
					<g>
						<ellipse fill="#144959" cx="62.759" cy="70.938" rx="57.466" ry="61.347"/>
					</g>
					<g>
						<circle fill="#FFFFFF" cx="62.759" cy="67.056" r="57.466"/>
					</g>
					<g>
						<path fill="#EFEFEF" d="M120.225,67.056c0,31.736-25.729,57.465-57.467,57.465c-31.736,0-57.464-25.729-57.464-57.465
							c0-26.18,25.728-51.954,57.464-51.954C94.496,15.102,120.225,39.035,120.225,67.056z"/>
					</g>
				</g>
				<g>
					<circle fill="#595757" cx="62.759" cy="67.056" r="42.529"/>
					<path fill="#727171" d="M105.288,67.056c0,23.488-19.041,42.529-42.53,42.529c-23.487,0-42.528-19.041-42.528-42.529
						c0-13.231,19.041-34.28,42.528-34.28C86.247,32.776,105.288,56.034,105.288,67.056z"/>
				</g>
				<g>
					<ellipse fill="#595757" cx="63.098" cy="70.001" rx="33.139" ry="33.508"/>
					<circle fill="#9FA0A0" cx="62.759" cy="67.056" r="30.562"/>
					<path fill="#C9CACA" d="M32.197,67.056c0-16.879,13.683-30.562,30.561-30.562c16.88,0,30.562,13.683,30.562,30.562
						c0,11.559-13.683,25.392-30.562,25.392C45.88,92.448,32.197,77.972,32.197,67.056z"/>
				</g>
				<circle fill="#DCDDDD" cx="62.759" cy="67.056" r="18.546"/>
				<g opacity="0.6">
					<rect x="81.123" y="30.051" fill="#231815" width="1.934" height="2.209"/>
					<rect x="75.6" y="30.051" fill="#231815" width="2.209" height="2.209"/>
					<rect x="70.076" y="30.051" fill="#231815" width="2.21" height="2.209"/>
					<rect x="64.554" y="30.051" fill="#231815" width="2.209" height="2.209"/>
					<rect x="59.03" y="30.051" fill="#231815" width="2.21" height="2.209"/>
					<rect x="53.508" y="30.051" fill="#231815" width="2.209" height="2.209"/>
					<rect x="47.984" y="30.051" fill="#231815" width="2.209" height="2.209"/>
					<rect x="42.461" y="30.051" fill="#231815" width="2.209" height="2.209"/>
					<rect x="81.123" y="35.574" fill="#231815" width="1.934" height="2.209"/>
					<rect x="75.6" y="35.574" fill="#231815" width="2.209" height="2.209"/>
					<rect x="70.076" y="35.574" fill="#231815" width="2.21" height="2.209"/>
					<rect x="64.554" y="35.574" fill="#231815" width="2.209" height="2.209"/>
					<rect x="59.03" y="35.574" fill="#231815" width="2.21" height="2.209"/>
					<rect x="53.508" y="35.574" fill="#231815" width="2.209" height="2.209"/>
					<rect x="47.984" y="35.574" fill="#231815" width="2.209" height="2.209"/>
					<rect x="42.461" y="35.574" fill="#231815" width="2.209" height="2.209"/>
					<rect x="81.123" y="41.097" fill="#231815" width="1.934" height="2.209"/>
					<rect x="75.6" y="41.097" fill="#231815" width="2.209" height="2.209"/>
					<rect x="70.076" y="41.097" fill="#231815" width="2.21" height="2.209"/>
					<rect x="64.554" y="41.097" fill="#231815" width="2.209" height="2.209"/>
					<rect x="59.03" y="41.097" fill="#231815" width="2.21" height="2.209"/>
					<rect x="53.508" y="41.097" fill="#231815" width="2.209" height="2.209"/>
					<rect x="47.984" y="41.097" fill="#231815" width="2.209" height="2.209"/>
					<rect x="42.461" y="41.097" fill="#231815" width="2.209" height="2.209"/>
					<rect x="81.123" y="46.621" fill="#231815" width="1.934" height="2.209"/>
					<rect x="75.6" y="46.621" fill="#231815" width="2.209" height="2.209"/>
					<rect x="70.076" y="46.621" fill="#231815" width="2.21" height="2.209"/>
					<rect x="64.554" y="46.621" fill="#231815" width="2.209" height="2.209"/>
					<rect x="59.03" y="46.621" fill="#231815" width="2.21" height="2.209"/>
					<rect x="53.508" y="46.621" fill="#231815" width="2.209" height="2.209"/>
					<rect x="47.984" y="46.621" fill="#231815" width="2.209" height="2.209"/>
					<rect x="42.461" y="46.621" fill="#231815" width="2.209" height="2.209"/>
					<rect x="81.123" y="52.144" fill="#231815" width="1.934" height="2.209"/>
					<rect x="75.6" y="52.144" fill="#231815" width="2.209" height="2.209"/>
					<rect x="70.076" y="52.144" fill="#231815" width="2.21" height="2.209"/>
					<rect x="64.554" y="52.144" fill="#231815" width="2.209" height="2.209"/>
					<rect x="59.03" y="52.144" fill="#231815" width="2.21" height="2.209"/>
					<rect x="53.508" y="52.144" fill="#231815" width="2.209" height="2.209"/>
					<rect x="47.984" y="52.144" fill="#231815" width="2.209" height="2.209"/>
					<rect x="42.461" y="52.144" fill="#231815" width="2.209" height="2.209"/>
					<rect x="81.123" y="57.667" fill="#231815" width="1.934" height="2.209"/>
					<rect x="75.6" y="57.667" fill="#231815" width="2.209" height="2.209"/>
					<rect x="70.076" y="57.667" fill="#231815" width="2.21" height="2.209"/>
					<rect x="64.554" y="57.667" fill="#231815" width="2.209" height="2.209"/>
					<rect x="59.03" y="57.667" fill="#231815" width="2.21" height="2.209"/>
					<rect x="53.508" y="57.667" fill="#231815" width="2.209" height="2.209"/>
					<rect x="47.984" y="57.667" fill="#231815" width="2.209" height="2.209"/>
					<rect x="42.461" y="57.667" fill="#231815" width="2.209" height="2.209"/>
					<rect x="81.123" y="63.19" fill="#231815" width="1.934" height="2.209"/>
					<rect x="75.6" y="63.19" fill="#231815" width="2.209" height="2.209"/>
					<rect x="70.076" y="63.19" fill="#231815" width="2.21" height="2.209"/>
					<rect x="64.554" y="63.19" fill="#231815" width="2.209" height="2.209"/>
					<rect x="59.03" y="63.19" fill="#231815" width="2.21" height="2.209"/>
					<rect x="53.508" y="63.19" fill="#231815" width="2.209" height="2.209"/>
					<rect x="47.984" y="63.19" fill="#231815" width="2.209" height="2.209"/>
					<rect x="42.461" y="63.19" fill="#231815" width="2.209" height="2.209"/>
					<rect x="81.123" y="68.713" fill="#231815" width="1.934" height="2.209"/>
					<rect x="75.6" y="68.713" fill="#231815" width="2.209" height="2.209"/>
					<rect x="70.076" y="68.713" fill="#231815" width="2.21" height="2.209"/>
					<rect x="64.554" y="68.713" fill="#231815" width="2.209" height="2.209"/>
					<rect x="59.03" y="68.713" fill="#231815" width="2.21" height="2.209"/>
					<rect x="53.508" y="68.713" fill="#231815" width="2.209" height="2.209"/>
					<rect x="47.984" y="68.713" fill="#231815" width="2.209" height="2.209"/>
					<rect x="42.461" y="68.713" fill="#231815" width="2.209" height="2.209"/>
					<rect x="81.123" y="74.236" fill="#231815" width="1.934" height="2.209"/>
					<rect x="75.6" y="74.236" fill="#231815" width="2.209" height="2.209"/>
					<rect x="70.076" y="74.236" fill="#231815" width="2.21" height="2.209"/>
					<rect x="64.554" y="74.236" fill="#231815" width="2.209" height="2.209"/>
					<rect x="59.03" y="74.236" fill="#231815" width="2.21" height="2.209"/>
					<rect x="53.508" y="74.236" fill="#231815" width="2.209" height="2.209"/>
					<rect x="47.984" y="74.236" fill="#231815" width="2.209" height="2.209"/>
					<rect x="42.461" y="74.236" fill="#231815" width="2.209" height="2.209"/>
					<rect x="81.123" y="79.759" fill="#231815" width="1.934" height="2.209"/>
					<rect x="75.6" y="79.759" fill="#231815" width="2.209" height="2.209"/>
					<rect x="70.076" y="79.759" fill="#231815" width="2.21" height="2.209"/>
					<rect x="64.554" y="79.759" fill="#231815" width="2.209" height="2.209"/>
					<rect x="59.03" y="79.759" fill="#231815" width="2.21" height="2.209"/>
					<rect x="53.508" y="79.759" fill="#231815" width="2.209" height="2.209"/>
					<rect x="47.984" y="79.759" fill="#231815" width="2.209" height="2.209"/>
					<rect x="42.461" y="79.759" fill="#231815" width="2.209" height="2.209"/>
					<rect x="81.123" y="85.282" fill="#231815" width="1.934" height="2.209"/>
					<rect x="75.6" y="85.282" fill="#231815" width="2.209" height="2.209"/>
					<rect x="70.076" y="85.282" fill="#231815" width="2.21" height="2.209"/>
					<rect x="64.554" y="85.282" fill="#231815" width="2.209" height="2.209"/>
					<rect x="59.03" y="85.282" fill="#231815" width="2.21" height="2.209"/>
					<rect x="53.508" y="85.282" fill="#231815" width="2.209" height="2.209"/>
					<rect x="47.984" y="85.282" fill="#231815" width="2.209" height="2.209"/>
					<rect x="42.461" y="85.282" fill="#231815" width="2.209" height="2.209"/>
					<rect x="81.123" y="90.806" fill="#231815" width="1.934" height="2.209"/>
					<rect x="75.6" y="90.806" fill="#231815" width="2.209" height="2.209"/>
					<rect x="70.076" y="90.806" fill="#231815" width="2.21" height="2.209"/>
					<rect x="64.554" y="90.806" fill="#231815" width="2.209" height="2.209"/>
					<rect x="59.03" y="90.806" fill="#231815" width="2.21" height="2.209"/>
					<rect x="53.508" y="90.806" fill="#231815" width="2.209" height="2.209"/>
					<rect x="47.984" y="90.806" fill="#231815" width="2.209" height="2.209"/>
					<rect x="42.461" y="90.806" fill="#231815" width="2.209" height="2.209"/>
					<rect x="81.123" y="96.329" fill="#231815" width="1.934" height="2.209"/>
					<rect x="86.646" y="35.574" fill="#231815" width="1.933" height="2.209"/>
					<rect x="86.646" y="41.097" fill="#231815" width="1.933" height="2.209"/>
					<rect x="86.646" y="46.621" fill="#231815" width="1.933" height="2.209"/>
					<rect x="86.646" y="52.144" fill="#231815" width="1.933" height="2.209"/>
					<rect x="86.646" y="57.667" fill="#231815" width="1.933" height="2.209"/>
					<rect x="86.646" y="63.19" fill="#231815" width="1.933" height="2.209"/>
					<rect x="86.646" y="68.713" fill="#231815" width="1.933" height="2.209"/>
					<rect x="86.646" y="74.236" fill="#231815" width="1.933" height="2.209"/>
					<rect x="86.646" y="79.759" fill="#231815" width="1.933" height="2.209"/>
					<rect x="86.646" y="85.282" fill="#231815" width="1.933" height="2.209"/>
					<rect x="86.646" y="90.806" fill="#231815" width="1.933" height="2.209"/>
					<rect x="86.646" y="96.329" fill="#231815" width="1.933" height="2.209"/>
					<rect x="92.17" y="41.097" fill="#231815" width="1.933" height="2.209"/>
					<rect x="92.17" y="46.621" fill="#231815" width="1.933" height="2.209"/>
					<rect x="92.17" y="52.144" fill="#231815" width="1.933" height="2.209"/>
					<rect x="92.17" y="57.667" fill="#231815" width="1.933" height="2.209"/>
					<rect x="92.17" y="63.19" fill="#231815" width="1.933" height="2.209"/>
					<rect x="92.17" y="68.713" fill="#231815" width="1.933" height="2.209"/>
					<rect x="92.17" y="74.236" fill="#231815" width="1.933" height="2.209"/>
					<rect x="92.17" y="79.759" fill="#231815" width="1.933" height="2.209"/>
					<rect x="92.17" y="85.282" fill="#231815" width="1.933" height="2.209"/>
					<rect x="92.17" y="90.806" fill="#231815" width="1.933" height="2.209"/>
					<rect x="97.692" y="46.621" fill="#231815" width="1.933" height="2.209"/>
					<rect x="97.692" y="52.144" fill="#231815" width="1.933" height="2.209"/>
					<rect x="97.692" y="57.667" fill="#231815" width="1.933" height="2.209"/>
					<rect x="97.692" y="63.19" fill="#231815" width="1.933" height="2.209"/>
					<rect x="97.692" y="68.713" fill="#231815" width="1.933" height="2.209"/>
					<rect x="97.692" y="74.236" fill="#231815" width="1.933" height="2.209"/>
					<rect x="97.692" y="79.759" fill="#231815" width="1.933" height="2.209"/>
					<rect x="97.692" y="85.282" fill="#231815" width="1.933" height="2.209"/>
					<rect x="103.216" y="63.19" fill="#231815" width="1.933" height="2.209"/>
					<rect x="103.216" y="68.713" fill="#231815" width="1.933" height="2.209"/>
					<rect x="75.6" y="96.329" fill="#231815" width="2.209" height="2.209"/>
					<rect x="70.076" y="96.329" fill="#231815" width="2.21" height="2.209"/>
					<rect x="64.554" y="96.329" fill="#231815" width="2.209" height="2.209"/>
					<rect x="59.03" y="96.329" fill="#231815" width="2.21" height="2.209"/>
					<rect x="53.508" y="96.329" fill="#231815" width="2.209" height="2.209"/>
					<rect x="47.984" y="96.329" fill="#231815" width="2.209" height="2.209"/>
					<rect x="42.461" y="96.329" fill="#231815" width="2.209" height="2.209"/>
					<rect x="81.123" y="101.853" fill="#231815" width="1.934" height="2.209"/>
					<rect x="75.6" y="101.853" fill="#231815" width="2.209" height="2.209"/>
					<rect x="70.076" y="101.853" fill="#231815" width="2.21" height="2.209"/>
					<rect x="64.554" y="101.853" fill="#231815" width="2.209" height="2.209"/>
					<rect x="59.03" y="101.853" fill="#231815" width="2.21" height="2.209"/>
					<rect x="53.508" y="101.853" fill="#231815" width="2.209" height="2.209"/>
					<rect x="47.984" y="101.853" fill="#231815" width="2.209" height="2.209"/>
					<rect x="42.461" y="101.853" fill="#231815" width="2.209" height="2.209"/>
					<rect x="36.938" y="35.574" fill="#231815" width="2.209" height="2.209"/>
					<rect x="36.938" y="41.097" fill="#231815" width="2.209" height="2.209"/>
					<rect x="31.414" y="41.097" fill="#231815" width="2.21" height="2.209"/>
					<rect x="36.938" y="46.621" fill="#231815" width="2.209" height="2.209"/>
					<rect x="31.414" y="46.621" fill="#231815" width="2.21" height="2.209"/>
					<rect x="25.892" y="46.621" fill="#231815" width="2.209" height="2.209"/>
					<rect x="36.938" y="52.144" fill="#231815" width="2.209" height="2.209"/>
					<rect x="31.414" y="52.144" fill="#231815" width="2.21" height="2.209"/>
					<rect x="25.892" y="52.144" fill="#231815" width="2.209" height="2.209"/>
					<rect x="36.938" y="57.667" fill="#231815" width="2.209" height="2.209"/>
					<rect x="31.414" y="57.667" fill="#231815" width="2.21" height="2.209"/>
					<rect x="25.892" y="57.667" fill="#231815" width="2.209" height="2.209"/>
					<rect x="36.938" y="63.19" fill="#231815" width="2.209" height="2.209"/>
					<rect x="31.414" y="63.19" fill="#231815" width="2.21" height="2.209"/>
					<rect x="25.892" y="63.19" fill="#231815" width="2.209" height="2.209"/>
					<rect x="20.368" y="63.19" fill="#231815" width="2.21" height="2.209"/>
					<rect x="36.938" y="68.713" fill="#231815" width="2.209" height="2.209"/>
					<rect x="31.414" y="68.713" fill="#231815" width="2.21" height="2.209"/>
					<rect x="25.892" y="68.713" fill="#231815" width="2.209" height="2.209"/>
					<rect x="20.368" y="68.713" fill="#231815" width="2.21" height="2.209"/>
					<rect x="36.938" y="74.236" fill="#231815" width="2.209" height="2.209"/>
					<rect x="31.414" y="74.236" fill="#231815" width="2.21" height="2.209"/>
					<rect x="25.892" y="74.236" fill="#231815" width="2.209" height="2.209"/>
					<rect x="36.938" y="79.759" fill="#231815" width="2.209" height="2.209"/>
					<rect x="31.414" y="79.759" fill="#231815" width="2.21" height="2.209"/>
					<rect x="25.892" y="79.759" fill="#231815" width="2.209" height="2.209"/>
					<rect x="36.938" y="85.282" fill="#231815" width="2.209" height="2.209"/>
					<rect x="31.414" y="85.282" fill="#231815" width="2.21" height="2.209"/>
					<rect x="25.892" y="85.282" fill="#231815" width="2.209" height="2.209"/>
					<rect x="36.938" y="90.806" fill="#231815" width="2.209" height="2.209"/>
					<rect x="31.414" y="90.806" fill="#231815" width="2.21" height="2.209"/>
					<rect x="36.938" y="96.329" fill="#231815" width="2.209" height="2.209"/>
				</g>
			</g>
			<g name="b2">
				<g>
					<g>
						<ellipse fill="#144959" cx="236.188" cy="70.938" rx="57.465" ry="61.347"/>
					</g>
					<g>
						<circle fill="#FFFFFF" cx="236.188" cy="67.056" r="57.465"/>
					</g>
					<g>
						<path fill="#EFEFEF" d="M293.653,67.056c0,31.736-25.728,57.465-57.466,57.465c-31.736,0-57.464-25.729-57.464-57.465
							c0-26.18,25.728-51.954,57.464-51.954C267.926,15.102,293.653,39.035,293.653,67.056z"/>
					</g>
				</g>
				<g>
					<circle fill="#595757" cx="236.188" cy="67.056" r="42.528"/>
					<path fill="#727171" d="M278.716,67.056c0,23.488-19.04,42.529-42.528,42.529s-42.528-19.041-42.528-42.529
						c0-13.231,19.04-34.28,42.528-34.28S278.716,56.034,278.716,67.056z"/>
				</g>
				<g>
					<ellipse fill="#595757" cx="236.527" cy="70.001" rx="33.139" ry="33.508"/>
					<circle fill="#9FA0A0" cx="236.188" cy="67.056" r="30.562"/>
					<path fill="#C9CACA" d="M205.627,67.056c0-16.879,13.683-30.562,30.561-30.562c16.879,0,30.562,13.683,30.562,30.562
						c0,11.559-13.684,25.392-30.562,25.392C219.31,92.448,205.627,77.972,205.627,67.056z"/>
				</g>
				<circle fill="#DCDDDD" cx="236.188" cy="67.056" r="18.546"/>
				<g opacity="0.6">
					<rect x="254.552" y="30.051" fill="#231815" width="1.934" height="2.209"/>
					<rect x="249.029" y="30.051" fill="#231815" width="2.209" height="2.209"/>
					<rect x="243.506" y="30.051" fill="#231815" width="2.209" height="2.209"/>
					<rect x="237.982" y="30.051" fill="#231815" width="2.21" height="2.209"/>
					<rect x="232.46" y="30.051" fill="#231815" width="2.209" height="2.209"/>
					<rect x="226.937" y="30.051" fill="#231815" width="2.209" height="2.209"/>
					<rect x="221.413" y="30.051" fill="#231815" width="2.209" height="2.209"/>
					<rect x="215.89" y="30.051" fill="#231815" width="2.21" height="2.209"/>
					<rect x="254.552" y="35.574" fill="#231815" width="1.934" height="2.209"/>
					<rect x="249.029" y="35.574" fill="#231815" width="2.209" height="2.209"/>
					<rect x="243.506" y="35.574" fill="#231815" width="2.209" height="2.209"/>
					<rect x="237.982" y="35.574" fill="#231815" width="2.21" height="2.209"/>
					<rect x="232.46" y="35.574" fill="#231815" width="2.209" height="2.209"/>
					<rect x="226.937" y="35.574" fill="#231815" width="2.209" height="2.209"/>
					<rect x="221.413" y="35.574" fill="#231815" width="2.209" height="2.209"/>
					<rect x="215.89" y="35.574" fill="#231815" width="2.21" height="2.209"/>
					<rect x="254.552" y="41.097" fill="#231815" width="1.934" height="2.209"/>
					<rect x="249.029" y="41.097" fill="#231815" width="2.209" height="2.209"/>
					<rect x="243.506" y="41.097" fill="#231815" width="2.209" height="2.209"/>
					<rect x="237.982" y="41.097" fill="#231815" width="2.21" height="2.209"/>
					<rect x="232.46" y="41.097" fill="#231815" width="2.209" height="2.209"/>
					<rect x="226.937" y="41.097" fill="#231815" width="2.209" height="2.209"/>
					<rect x="221.413" y="41.097" fill="#231815" width="2.209" height="2.209"/>
					<rect x="215.89" y="41.097" fill="#231815" width="2.21" height="2.209"/>
					<rect x="254.552" y="46.621" fill="#231815" width="1.934" height="2.209"/>
					<rect x="249.029" y="46.621" fill="#231815" width="2.209" height="2.209"/>
					<rect x="243.506" y="46.621" fill="#231815" width="2.209" height="2.209"/>
					<rect x="237.982" y="46.621" fill="#231815" width="2.21" height="2.209"/>
					<rect x="232.46" y="46.621" fill="#231815" width="2.209" height="2.209"/>
					<rect x="226.937" y="46.621" fill="#231815" width="2.209" height="2.209"/>
					<rect x="221.413" y="46.621" fill="#231815" width="2.209" height="2.209"/>
					<rect x="215.89" y="46.621" fill="#231815" width="2.21" height="2.209"/>
					<rect x="254.552" y="52.144" fill="#231815" width="1.934" height="2.209"/>
					<rect x="249.029" y="52.144" fill="#231815" width="2.209" height="2.209"/>
					<rect x="243.506" y="52.144" fill="#231815" width="2.209" height="2.209"/>
					<rect x="237.982" y="52.144" fill="#231815" width="2.21" height="2.209"/>
					<rect x="232.46" y="52.144" fill="#231815" width="2.209" height="2.209"/>
					<rect x="226.937" y="52.144" fill="#231815" width="2.209" height="2.209"/>
					<rect x="221.413" y="52.144" fill="#231815" width="2.209" height="2.209"/>
					<rect x="215.89" y="52.144" fill="#231815" width="2.21" height="2.209"/>
					<rect x="254.552" y="57.667" fill="#231815" width="1.934" height="2.209"/>
					<rect x="249.029" y="57.667" fill="#231815" width="2.209" height="2.209"/>
					<rect x="243.506" y="57.667" fill="#231815" width="2.209" height="2.209"/>
					<rect x="237.982" y="57.667" fill="#231815" width="2.21" height="2.209"/>
					<rect x="232.46" y="57.667" fill="#231815" width="2.209" height="2.209"/>
					<rect x="226.937" y="57.667" fill="#231815" width="2.209" height="2.209"/>
					<rect x="221.413" y="57.667" fill="#231815" width="2.209" height="2.209"/>
					<rect x="215.89" y="57.667" fill="#231815" width="2.21" height="2.209"/>
					<rect x="254.552" y="63.19" fill="#231815" width="1.934" height="2.209"/>
					<rect x="249.029" y="63.19" fill="#231815" width="2.209" height="2.209"/>
					<rect x="243.506" y="63.19" fill="#231815" width="2.209" height="2.209"/>
					<rect x="237.982" y="63.19" fill="#231815" width="2.21" height="2.209"/>
					<rect x="232.46" y="63.19" fill="#231815" width="2.209" height="2.209"/>
					<rect x="226.937" y="63.19" fill="#231815" width="2.209" height="2.209"/>
					<rect x="221.413" y="63.19" fill="#231815" width="2.209" height="2.209"/>
					<rect x="215.89" y="63.19" fill="#231815" width="2.21" height="2.209"/>
					<rect x="254.552" y="68.713" fill="#231815" width="1.934" height="2.209"/>
					<rect x="249.029" y="68.713" fill="#231815" width="2.209" height="2.209"/>
					<rect x="243.506" y="68.713" fill="#231815" width="2.209" height="2.209"/>
					<rect x="237.982" y="68.713" fill="#231815" width="2.21" height="2.209"/>
					<rect x="232.46" y="68.713" fill="#231815" width="2.209" height="2.209"/>
					<rect x="226.937" y="68.713" fill="#231815" width="2.209" height="2.209"/>
					<rect x="221.413" y="68.713" fill="#231815" width="2.209" height="2.209"/>
					<rect x="215.89" y="68.713" fill="#231815" width="2.21" height="2.209"/>
					<rect x="254.552" y="74.236" fill="#231815" width="1.934" height="2.209"/>
					<rect x="249.029" y="74.236" fill="#231815" width="2.209" height="2.209"/>
					<rect x="243.506" y="74.236" fill="#231815" width="2.209" height="2.209"/>
					<rect x="237.982" y="74.236" fill="#231815" width="2.21" height="2.209"/>
					<rect x="232.46" y="74.236" fill="#231815" width="2.209" height="2.209"/>
					<rect x="226.937" y="74.236" fill="#231815" width="2.209" height="2.209"/>
					<rect x="221.413" y="74.236" fill="#231815" width="2.209" height="2.209"/>
					<rect x="215.89" y="74.236" fill="#231815" width="2.21" height="2.209"/>
					<rect x="254.552" y="79.759" fill="#231815" width="1.934" height="2.209"/>
					<rect x="249.029" y="79.759" fill="#231815" width="2.209" height="2.209"/>
					<rect x="243.506" y="79.759" fill="#231815" width="2.209" height="2.209"/>
					<rect x="237.982" y="79.759" fill="#231815" width="2.21" height="2.209"/>
					<rect x="232.46" y="79.759" fill="#231815" width="2.209" height="2.209"/>
					<rect x="226.937" y="79.759" fill="#231815" width="2.209" height="2.209"/>
					<rect x="221.413" y="79.759" fill="#231815" width="2.209" height="2.209"/>
					<rect x="215.89" y="79.759" fill="#231815" width="2.21" height="2.209"/>
					<rect x="254.552" y="85.282" fill="#231815" width="1.934" height="2.209"/>
					<rect x="249.029" y="85.282" fill="#231815" width="2.209" height="2.209"/>
					<rect x="243.506" y="85.282" fill="#231815" width="2.209" height="2.209"/>
					<rect x="237.982" y="85.282" fill="#231815" width="2.21" height="2.209"/>
					<rect x="232.46" y="85.282" fill="#231815" width="2.209" height="2.209"/>
					<rect x="226.937" y="85.282" fill="#231815" width="2.209" height="2.209"/>
					<rect x="221.413" y="85.282" fill="#231815" width="2.209" height="2.209"/>
					<rect x="215.89" y="85.282" fill="#231815" width="2.21" height="2.209"/>
					<rect x="254.552" y="90.806" fill="#231815" width="1.934" height="2.209"/>
					<rect x="249.029" y="90.806" fill="#231815" width="2.209" height="2.209"/>
					<rect x="243.506" y="90.806" fill="#231815" width="2.209" height="2.209"/>
					<rect x="237.982" y="90.806" fill="#231815" width="2.21" height="2.209"/>
					<rect x="232.46" y="90.806" fill="#231815" width="2.209" height="2.209"/>
					<rect x="226.937" y="90.806" fill="#231815" width="2.209" height="2.209"/>
					<rect x="221.413" y="90.806" fill="#231815" width="2.209" height="2.209"/>
					<rect x="215.89" y="90.806" fill="#231815" width="2.21" height="2.209"/>
					<rect x="254.552" y="96.329" fill="#231815" width="1.934" height="2.209"/>
					<rect x="260.075" y="35.574" fill="#231815" width="1.934" height="2.209"/>
					<rect x="260.075" y="41.097" fill="#231815" width="1.934" height="2.209"/>
					<rect x="260.075" y="46.621" fill="#231815" width="1.934" height="2.209"/>
					<rect x="260.075" y="52.144" fill="#231815" width="1.934" height="2.209"/>
					<rect x="260.075" y="57.667" fill="#231815" width="1.934" height="2.209"/>
					<rect x="260.075" y="63.19" fill="#231815" width="1.934" height="2.209"/>
					<rect x="260.075" y="68.713" fill="#231815" width="1.934" height="2.209"/>
					<rect x="260.075" y="74.236" fill="#231815" width="1.934" height="2.209"/>
					<rect x="260.075" y="79.759" fill="#231815" width="1.934" height="2.209"/>
					<rect x="260.075" y="85.282" fill="#231815" width="1.934" height="2.209"/>
					<rect x="260.075" y="90.806" fill="#231815" width="1.934" height="2.209"/>
					<rect x="260.075" y="96.329" fill="#231815" width="1.934" height="2.209"/>
					<rect x="265.599" y="41.097" fill="#231815" width="1.933" height="2.209"/>
					<rect x="265.599" y="46.621" fill="#231815" width="1.933" height="2.209"/>
					<rect x="265.599" y="52.144" fill="#231815" width="1.933" height="2.209"/>
					<rect x="265.599" y="57.667" fill="#231815" width="1.933" height="2.209"/>
					<rect x="265.599" y="63.19" fill="#231815" width="1.933" height="2.209"/>
					<rect x="265.599" y="68.713" fill="#231815" width="1.933" height="2.209"/>
					<rect x="265.599" y="74.236" fill="#231815" width="1.933" height="2.209"/>
					<rect x="265.599" y="79.759" fill="#231815" width="1.933" height="2.209"/>
					<rect x="265.599" y="85.282" fill="#231815" width="1.933" height="2.209"/>
					<rect x="265.599" y="90.806" fill="#231815" width="1.933" height="2.209"/>
					<rect x="271.122" y="46.621" fill="#231815" width="1.933" height="2.209"/>
					<rect x="271.122" y="52.144" fill="#231815" width="1.933" height="2.209"/>
					<rect x="271.122" y="57.667" fill="#231815" width="1.933" height="2.209"/>
					<rect x="271.122" y="63.19" fill="#231815" width="1.933" height="2.209"/>
					<rect x="271.122" y="68.713" fill="#231815" width="1.933" height="2.209"/>
					<rect x="271.122" y="74.236" fill="#231815" width="1.933" height="2.209"/>
					<rect x="271.122" y="79.759" fill="#231815" width="1.933" height="2.209"/>
					<rect x="271.122" y="85.282" fill="#231815" width="1.933" height="2.209"/>
					<rect x="276.645" y="63.19" fill="#231815" width="1.933" height="2.209"/>
					<rect x="276.645" y="68.713" fill="#231815" width="1.933" height="2.209"/>
					<rect x="249.029" y="96.329" fill="#231815" width="2.209" height="2.209"/>
					<rect x="243.506" y="96.329" fill="#231815" width="2.209" height="2.209"/>
					<rect x="237.982" y="96.329" fill="#231815" width="2.21" height="2.209"/>
					<rect x="232.46" y="96.329" fill="#231815" width="2.209" height="2.209"/>
					<rect x="226.937" y="96.329" fill="#231815" width="2.209" height="2.209"/>
					<rect x="221.413" y="96.329" fill="#231815" width="2.209" height="2.209"/>
					<rect x="215.89" y="96.329" fill="#231815" width="2.21" height="2.209"/>
					<rect x="254.552" y="101.853" fill="#231815" width="1.934" height="2.209"/>
					<rect x="249.029" y="101.853" fill="#231815" width="2.209" height="2.209"/>
					<rect x="243.506" y="101.853" fill="#231815" width="2.209" height="2.209"/>
					<rect x="237.982" y="101.853" fill="#231815" width="2.21" height="2.209"/>
					<rect x="232.46" y="101.853" fill="#231815" width="2.209" height="2.209"/>
					<rect x="226.937" y="101.853" fill="#231815" width="2.209" height="2.209"/>
					<rect x="221.413" y="101.853" fill="#231815" width="2.209" height="2.209"/>
					<rect x="215.89" y="101.853" fill="#231815" width="2.21" height="2.209"/>
					<rect x="210.367" y="35.574" fill="#231815" width="2.209" height="2.209"/>
					<rect x="210.367" y="41.097" fill="#231815" width="2.209" height="2.209"/>
					<rect x="204.844" y="41.097" fill="#231815" width="2.209" height="2.209"/>
					<rect x="210.367" y="46.621" fill="#231815" width="2.209" height="2.209"/>
					<rect x="204.844" y="46.621" fill="#231815" width="2.209" height="2.209"/>
					<rect x="199.32" y="46.621" fill="#231815" width="2.21" height="2.209"/>
					<rect x="210.367" y="52.144" fill="#231815" width="2.209" height="2.209"/>
					<rect x="204.844" y="52.144" fill="#231815" width="2.209" height="2.209"/>
					<rect x="199.32" y="52.144" fill="#231815" width="2.21" height="2.209"/>
					<rect x="210.367" y="57.667" fill="#231815" width="2.209" height="2.209"/>
					<rect x="204.844" y="57.667" fill="#231815" width="2.209" height="2.209"/>
					<rect x="199.32" y="57.667" fill="#231815" width="2.21" height="2.209"/>
					<rect x="210.367" y="63.19" fill="#231815" width="2.209" height="2.209"/>
					<rect x="204.844" y="63.19" fill="#231815" width="2.209" height="2.209"/>
					<rect x="199.32" y="63.19" fill="#231815" width="2.21" height="2.209"/>
					<rect x="193.798" y="63.19" fill="#231815" width="2.209" height="2.209"/>
					<rect x="210.367" y="68.713" fill="#231815" width="2.209" height="2.209"/>
					<rect x="204.844" y="68.713" fill="#231815" width="2.209" height="2.209"/>
					<rect x="199.32" y="68.713" fill="#231815" width="2.21" height="2.209"/>
					<rect x="193.798" y="68.713" fill="#231815" width="2.209" height="2.209"/>
					<rect x="210.367" y="74.236" fill="#231815" width="2.209" height="2.209"/>
					<rect x="204.844" y="74.236" fill="#231815" width="2.209" height="2.209"/>
					<rect x="199.32" y="74.236" fill="#231815" width="2.21" height="2.209"/>
					<rect x="210.367" y="79.759" fill="#231815" width="2.209" height="2.209"/>
					<rect x="204.844" y="79.759" fill="#231815" width="2.209" height="2.209"/>
					<rect x="199.32" y="79.759" fill="#231815" width="2.21" height="2.209"/>
					<rect x="210.367" y="85.282" fill="#231815" width="2.209" height="2.209"/>
					<rect x="204.844" y="85.282" fill="#231815" width="2.209" height="2.209"/>
					<rect x="199.32" y="85.282" fill="#231815" width="2.21" height="2.209"/>
					<rect x="210.367" y="90.806" fill="#231815" width="2.209" height="2.209"/>
					<rect x="204.844" y="90.806" fill="#231815" width="2.209" height="2.209"/>
					<rect x="210.367" y="96.329" fill="#231815" width="2.209" height="2.209"/>
				</g>
			</g>
		</g>
		<g name="c1">
			<path fill="#144959" d="M185.311,16.907c0,7.804-5.051,14.131-11.281,14.131h-49.111c-6.23,0-11.282-6.327-11.282-14.131l0,0
				c0-7.804,5.052-14.131,11.282-14.131h49.111C180.26,2.775,185.311,9.103,185.311,16.907L185.311,16.907z"/>
			<path fill="#C9CACA" d="M185.309,14.462c0-6.572-5.051-11.901-11.281-11.901h-49.109c-6.23,0-11.282,5.329-11.282,11.901
				c0,0.475,0,2.327,0,2.801c0,6.573,5.052,11.901,11.282,11.901h49.109c6.23,0,11.281-5.328,11.281-11.901
				C185.309,16.789,185.309,14.937,185.309,14.462z"/>
			<path fill="#B5B5B6" d="M184.144,14.379c0-6.021-4.882-10.903-10.903-10.903h-47.461c-6.021,0-10.903,4.882-10.903,10.903
				c0,0.435,0,2.131,0,2.565c0,6.021,4.882,10.903,10.903,10.903h47.461c6.021,0,10.903-4.882,10.903-10.903
				C184.144,16.51,184.144,14.813,184.144,14.379z"/>
			<path fill="#EFEFEF" d="M184.144,14.379c0,6.021-4.882,10.903-10.903,10.903h-47.461c-6.021,0-10.903-4.882-10.903-10.903l0,0
				c0-6.021,4.882-10.903,10.903-10.903h47.461C179.262,3.476,184.144,8.357,184.144,14.379L184.144,14.379z"/>
			<path fill="#F7F8F8" d="M176.275,8.345c0,1.122-0.908,2.031-2.03,2.031h-50.026c-1.122,0-2.031-0.909-2.031-2.031l0,0
				c0-1.122,0.909-2.031,2.031-2.031h50.026C175.367,6.314,176.275,7.224,176.275,8.345L176.275,8.345z"/>
		</g>
		<g name="pin">
			<path fill="#9FA0A0" d="M124.113,168.139c-1.105,0-2-0.896-2-2v-39.821c0-1.104,0.895-2,2-2c1.104,0,2,0.896,2,2v39.821
				C126.113,167.243,125.217,168.139,124.113,168.139z"/>
			<path fill="#9FA0A0" d="M141.113,168.139c-1.105,0-2-0.896-2-2v-39.821c0-1.104,0.895-2,2-2c1.104,0,2,0.896,2,2v39.821
				C143.113,167.243,142.217,168.139,141.113,168.139z"/>
			<path fill="#9FA0A0" d="M158.113,168.139c-1.105,0-2-0.896-2-2v-39.821c0-1.104,0.895-2,2-2c1.104,0,2,0.896,2,2v39.821
				C160.113,167.243,159.217,168.139,158.113,168.139z"/>
			<path fill="#9FA0A0" d="M175.113,168.139c-1.105,0-2-0.896-2-2v-39.821c0-1.104,0.895-2,2-2c1.104,0,2,0.896,2,2v39.821
				C177.113,167.243,176.217,168.139,175.113,168.139z"/>
			<rect x="115.39" y="119.513" fill="#595757" width="68.03" height="13.609"/>
			<rect x="115.39" y="119.513" fill="#727171" width="2.404" height="13.609"/>
			<g>
				<rect x="130.093" y="119.513" fill="#3E3A39" width="2.404" height="13.609"/>
				<rect x="132.586" y="119.498" fill="#727171" width="2.404" height="13.61"/>
			</g>
			<g>
				<rect x="147.113" y="119.513" fill="#3E3A39" width="2.404" height="13.609"/>
				<rect x="149.605" y="119.498" fill="#727171" width="2.404" height="13.61"/>
			</g>
			<g>
				<rect x="164.133" y="119.513" fill="#3E3A39" width="2.404" height="13.609"/>
				<rect x="166.626" y="119.498" fill="#727171" width="2.404" height="13.61"/>
			</g>
			<g>
				<rect x="181.152" y="119.513" fill="#3E3A39" width="2.405" height="13.609"/>
			</g>
		</g>
		<g name="text">
			<g>
				<path fill="#FFFFFF" d="M129.629,45.181h-1.204v-4.858h-4.913v4.858h-1.219V34.933h1.219v4.214h4.913v-4.214h1.204V45.181z"/>
				<path fill="#FFFFFF" d="M141.486,43.305c-1.101,1.418-2.613,2.128-4.535,2.128c-1.624,0-2.954-0.513-3.99-1.54
					s-1.554-2.324-1.554-3.892c0-0.971,0.239-1.867,0.721-2.688c0.48-0.821,1.146-1.465,1.995-1.932c0.85-0.466,1.766-0.7,2.751-0.7
					c0.984,0,1.866,0.189,2.646,0.567s1.431,0.931,1.953,1.659l-0.924,0.714c-0.971-1.176-2.17-1.764-3.598-1.764
					c-1.167,0-2.172,0.411-3.018,1.232c-0.844,0.822-1.267,1.827-1.267,3.017s0.413,2.184,1.239,2.982
					c0.826,0.798,1.896,1.197,3.213,1.197s2.459-0.565,3.43-1.694L141.486,43.305z"/>
				<path fill="#FFFFFF" d="M146.429,41.499h-3.948v-1.036h3.948V41.499z"/>
				<path fill="#FFFFFF" d="M151.847,37.187c-0.373-0.504-0.69-0.842-0.952-1.015c-0.262-0.172-0.566-0.259-0.916-0.259
					c-0.351,0-0.645,0.112-0.883,0.336s-0.357,0.511-0.357,0.861s0.112,0.656,0.336,0.917c0.225,0.262,0.74,0.688,1.547,1.281
					c0.809,0.593,1.398,1.15,1.771,1.673c0.373,0.523,0.561,1.073,0.561,1.652c0,0.756-0.292,1.412-0.875,1.967
					c-0.584,0.555-1.263,0.833-2.037,0.833c-1.363,0-2.432-0.761-3.206-2.282l1.022-0.588c0.605,1.129,1.287,1.694,2.043,1.694
					c0.486,0,0.9-0.154,1.246-0.462s0.519-0.667,0.519-1.078c0-0.41-0.146-0.8-0.435-1.169c-0.289-0.369-0.789-0.821-1.498-1.358
					c-0.709-0.537-1.197-0.945-1.463-1.225c-0.266-0.28-0.459-0.579-0.58-0.896c-0.122-0.317-0.183-0.634-0.183-0.952
					c0-0.681,0.235-1.258,0.707-1.729s1.08-0.707,1.827-0.707c0.578,0,1.082,0.147,1.512,0.441s0.85,0.73,1.26,1.309L151.847,37.187
					z"/>
				<path fill="#FFFFFF" d="M161.674,45.181h-1.512l-3.611-4.676h-0.42v4.676h-1.205V34.933h2.101c1.12,0,1.89,0.049,2.31,0.147
					s0.785,0.264,1.093,0.497s0.55,0.534,0.728,0.903s0.266,0.777,0.266,1.225c0,0.849-0.289,1.528-0.867,2.037
					c-0.579,0.509-1.414,0.763-2.506,0.763L161.674,45.181z M156.131,39.329h1.638c0.821,0.009,1.428-0.114,1.819-0.371
					c0.393-0.257,0.588-0.667,0.588-1.232c0-0.564-0.191-0.975-0.573-1.232c-0.383-0.257-0.979-0.385-1.792-0.385h-1.68V39.329z"/>
				<path fill="#FFFFFF" d="M166.07,34.681c1.102,0,1.975,0.464,2.618,1.393s0.966,2.259,0.966,3.99c0,1.731-0.326,3.059-0.98,3.983
					c-0.652,0.924-1.527,1.386-2.625,1.386c-1.096,0-1.945-0.455-2.547-1.365c-0.603-0.91-0.903-2.249-0.903-4.018
					c0-1.769,0.301-3.105,0.903-4.011C164.104,35.134,164.96,34.681,166.07,34.681z M166.099,44.327c0.765,0,1.36-0.371,1.784-1.113
					c0.426-0.742,0.638-1.794,0.638-3.157s-0.22-2.408-0.658-3.136s-1.028-1.092-1.771-1.092s-1.318,0.364-1.729,1.092
					s-0.616,1.783-0.616,3.164C163.746,42.913,164.531,44.327,166.099,44.327z"/>
				<path fill="#FFFFFF" d="M177.48,42.843h-1.219v2.338h-1.189v-2.338h-4.914l5.754-8.162h0.35v7h1.219V42.843z M175.072,41.681
					v-3.78l-2.674,3.78H175.072z"/>
			</g>
			<g>
				<path fill="#FFFFFF" d="M149.474,81c-7.995,0-14.5-6.505-14.5-14.5s6.505-14.5,14.5-14.5s14.5,6.505,14.5,14.5
					S157.469,81,149.474,81z M149.474,53c-7.444,0-13.5,6.056-13.5,13.5s6.056,13.5,13.5,13.5s13.5-6.056,13.5-13.5
					S156.918,53,149.474,53z"/>
				<rect x="156.9" y="55.038" fill="#FFFFFF" width="1" height="23"/>
				<rect x="140.975" y="55.038" fill="#FFFFFF" width="1" height="23"/>
				<polygon fill="#FFFFFF" points="156.988,78.321 149.438,67.33 141.887,78.321 141.062,77.754 149.139,66 149.664,66 
					149.886,66.216 157.812,77.754 				"/>
				<g>
					<path fill="#FFFFFF" d="M143.843,64.711v-6.384h2.831c0.568,0,1.002,0.057,1.297,0.172c0.297,0.115,0.533,0.317,0.711,0.607
						c0.177,0.291,0.266,0.611,0.266,0.962c0,0.453-0.146,0.835-0.44,1.146c-0.293,0.311-0.746,0.508-1.358,0.592
						c0.223,0.107,0.393,0.213,0.51,0.318c0.246,0.227,0.48,0.51,0.701,0.849l1.109,1.738h-1.062l-0.844-1.328
						c-0.248-0.383-0.451-0.677-0.61-0.88s-0.303-0.345-0.429-0.427c-0.127-0.081-0.255-0.138-0.386-0.17
						c-0.096-0.02-0.253-0.03-0.47-0.03h-0.98v2.835H143.843z M144.688,61.145h1.816c0.386,0,0.688-0.04,0.906-0.12
						c0.217-0.08,0.383-0.208,0.496-0.383s0.17-0.366,0.17-0.573c0-0.302-0.109-0.55-0.329-0.745
						c-0.22-0.194-0.565-0.292-1.038-0.292h-2.021V61.145z"/>
					<path fill="#FFFFFF" d="M154.826,62.473l0.845,0.213c-0.177,0.694-0.496,1.223-0.956,1.587s-1.023,0.546-1.688,0.546
						c-0.688,0-1.248-0.14-1.679-0.42c-0.431-0.28-0.759-0.686-0.984-1.217c-0.226-0.531-0.337-1.102-0.337-1.711
						c0-0.665,0.127-1.245,0.381-1.74s0.615-0.871,1.084-1.128s0.984-0.385,1.549-0.385c0.639,0,1.176,0.163,1.611,0.488
						s0.738,0.782,0.91,1.372l-0.832,0.196c-0.148-0.465-0.363-0.803-0.645-1.015c-0.282-0.212-0.637-0.318-1.062-0.318
						c-0.491,0-0.901,0.118-1.23,0.353c-0.33,0.235-0.562,0.551-0.695,0.947c-0.133,0.396-0.199,0.805-0.199,1.226
						c0,0.543,0.078,1.017,0.236,1.422c0.158,0.405,0.404,0.708,0.738,0.908s0.695,0.3,1.084,0.3c0.474,0,0.875-0.136,1.203-0.409
						S154.71,63.01,154.826,62.473z"/>
				</g>
			</g>
			<g>
				<g>
					<path fill="#FFFFFF" d="M120.072,109.895l6.75,2.87v0.207l-6.75,2.826v-0.828l5.066-2.105l-5.066-2.143V109.895z"/>
					<path fill="#FFFFFF" d="M125.661,104.044c0.378,0.258,0.666,0.596,0.864,1.014c0.197,0.416,0.297,0.867,0.297,1.354
						c0,0.756-0.249,1.388-0.747,1.895c-0.498,0.508-1.106,0.761-1.827,0.761c-0.72,0-1.336-0.255-1.85-0.765
						c-0.513-0.51-0.77-1.17-0.77-1.98c0-0.48,0.105-0.922,0.315-1.327s0.504-0.722,0.882-0.95l0.369,0.586
						c-0.57,0.438-0.855,1.011-0.855,1.719c0,0.558,0.179,1.025,0.535,1.404c0.357,0.377,0.801,0.566,1.328,0.566
						c0.528,0,0.98-0.186,1.359-0.559c0.378-0.371,0.566-0.842,0.566-1.412c0-0.684-0.287-1.26-0.863-1.729L125.661,104.044z"/>
					<path fill="#FFFFFF" d="M125.661,97.997c0.378,0.258,0.666,0.596,0.864,1.012c0.197,0.418,0.297,0.869,0.297,1.355
						c0,0.756-0.249,1.387-0.747,1.894s-1.106,0.761-1.827,0.761c-0.72,0-1.336-0.255-1.85-0.766c-0.513-0.51-0.77-1.17-0.77-1.979
						c0-0.479,0.105-0.923,0.315-1.327c0.21-0.405,0.504-0.722,0.882-0.949l0.369,0.584c-0.57,0.438-0.855,1.012-0.855,1.72
						c0,0.558,0.179,1.026,0.535,1.403c0.357,0.379,0.801,0.567,1.328,0.567c0.528,0,0.98-0.187,1.359-0.558
						c0.378-0.372,0.566-0.844,0.566-1.413c0-0.685-0.287-1.261-0.863-1.728L125.661,97.997z"/>
					<path fill="#FFFFFF" d="M137.828,112.253v1.439h5.832v0.783h-5.832v1.449h-0.756v-3.672H137.828z"/>
					<path fill="#FFFFFF" d="M138.827,109.255l0.63,0.387c-0.054,0.103-0.081,0.201-0.081,0.298c0,0.187,0.092,0.354,0.274,0.504
						c0.184,0.149,0.424,0.263,0.721,0.337c0.297,0.076,0.832,0.113,1.605,0.113h1.684v0.756h-4.904v-0.756h0.53
						c-0.222-0.15-0.387-0.302-0.495-0.455c-0.107-0.152-0.162-0.326-0.162-0.521S138.695,109.501,138.827,109.255z"/>
					<path fill="#FFFFFF" d="M136.91,108.112c0-0.162,0.056-0.298,0.166-0.409c0.111-0.11,0.246-0.167,0.406-0.167
						c0.158,0,0.293,0.057,0.404,0.167c0.111,0.111,0.166,0.246,0.166,0.405c0,0.158-0.057,0.294-0.17,0.404
						c-0.115,0.111-0.248,0.167-0.4,0.167c-0.154,0-0.287-0.056-0.401-0.167C136.967,108.402,136.91,108.269,136.91,108.112z
						 M143.66,107.735v0.746h-4.904v-0.746H143.66z"/>
					<path fill="#FFFFFF" d="M142.508,101.462c0.648,0,1.129,0.055,1.44,0.166s0.576,0.279,0.792,0.504s0.379,0.495,0.49,0.811
						c0.111,0.314,0.166,0.661,0.166,1.039c0,1.277-0.539,2.13-1.619,2.556v-0.792c0.624-0.348,0.936-0.927,0.936-1.736
						c0-0.373-0.072-0.705-0.216-1c-0.144-0.293-0.336-0.5-0.575-0.621c-0.24-0.119-0.609-0.18-1.107-0.18h-0.045
						c0.264,0.234,0.465,0.517,0.603,0.846c0.138,0.33,0.207,0.673,0.207,1.026c0,0.708-0.243,1.301-0.729,1.778
						c-0.485,0.477-1.059,0.712-1.719,0.706c-0.689,0.006-1.279-0.243-1.768-0.747c-0.49-0.504-0.734-1.103-0.734-1.795
						c0-0.693,0.282-1.298,0.846-1.814h-0.719v-0.746H142.508z M141.131,102.181c-0.516,0-0.941,0.174-1.277,0.518
						c-0.336,0.346-0.504,0.768-0.504,1.266c0,0.527,0.182,0.971,0.544,1.327c0.363,0.356,0.784,0.535,1.265,0.535
						s0.887-0.171,1.22-0.513s0.499-0.78,0.499-1.314c0-0.533-0.163-0.971-0.49-1.309
						C142.06,102.351,141.641,102.181,141.131,102.181z"/>
					<path fill="#FFFFFF" d="M154.838,111.442v3.061h1.889v-3.033h0.757v3.033h2.411v-3.033h0.766v3.807h-6.588v-3.834H154.838z"/>
					<path fill="#FFFFFF" d="M159.661,105.538c0.378,0.258,0.666,0.596,0.864,1.014c0.197,0.416,0.297,0.867,0.297,1.354
						c0,0.756-0.249,1.388-0.747,1.895c-0.498,0.508-1.106,0.761-1.827,0.761c-0.72,0-1.336-0.255-1.85-0.765
						c-0.513-0.51-0.77-1.17-0.77-1.98c0-0.48,0.105-0.922,0.315-1.327s0.504-0.722,0.882-0.95l0.369,0.586
						c-0.57,0.438-0.855,1.011-0.855,1.719c0,0.558,0.179,1.025,0.535,1.404c0.357,0.377,0.801,0.566,1.328,0.566
						c0.528,0,0.98-0.186,1.359-0.559c0.378-0.371,0.566-0.842,0.566-1.412c0-0.684-0.287-1.26-0.863-1.729L159.661,105.538z"/>
					<path fill="#FFFFFF" d="M160.66,99.985v0.748h-2.34c-0.456,0-0.777,0.013-0.963,0.039c-0.186,0.027-0.361,0.09-0.527,0.186
						c-0.164,0.096-0.291,0.227-0.377,0.391c-0.088,0.166-0.131,0.363-0.131,0.595s0.054,0.451,0.162,0.661
						c0.107,0.211,0.258,0.391,0.449,0.54c0.193,0.15,0.396,0.254,0.613,0.311c0.215,0.058,0.647,0.085,1.295,0.085h1.818v0.748
						h-6.75v-0.748h2.583c-0.576-0.485-0.864-1.062-0.864-1.728c0-0.354,0.092-0.675,0.275-0.963
						c0.183-0.288,0.435-0.504,0.756-0.647c0.32-0.145,0.814-0.217,1.48-0.217H160.66z"/>
					<path fill="#FFFFFF" d="M155.629,96.241c0-0.707,0.256-1.309,0.766-1.804s1.121-0.743,1.836-0.743
						c0.714,0,1.324,0.245,1.831,0.734c0.507,0.488,0.761,1.094,0.761,1.812c0,0.721-0.254,1.326-0.761,1.818
						s-1.117,0.738-1.831,0.738c-0.715,0-1.326-0.248-1.836-0.742C155.885,97.561,155.629,96.956,155.629,96.241z M160.111,96.241
						c0-0.498-0.182-0.922-0.545-1.273c-0.363-0.351-0.801-0.525-1.313-0.525s-0.957,0.178-1.332,0.535s-0.562,0.779-0.562,1.27
						c0,0.488,0.188,0.91,0.562,1.264s0.82,0.531,1.337,0.531c0.516,0,0.953-0.172,1.313-0.514S160.111,96.758,160.111,96.241z"/>
					<path fill="#FFFFFF" d="M174.438,108.518c1.068,0.018,1.9,0.328,2.494,0.931c0.594,0.604,0.891,1.396,0.891,2.381
						c0,1.129-0.347,2.028-1.039,2.7c-0.693,0.673-1.505,1.009-2.436,1.009c-0.93,0-1.734-0.336-2.416-1.009
						c-0.681-0.672-1.021-1.539-1.021-2.601c0-0.576,0.106-1.111,0.319-1.607c0.214-0.494,0.538-0.979,0.977-1.453l0.567,0.594
						c-0.354,0.367-0.626,0.763-0.814,1.188c-0.189,0.427-0.283,0.864-0.283,1.313c0,0.451,0.119,0.897,0.359,1.342
						c0.24,0.443,0.564,0.791,0.973,1.044c0.408,0.252,0.849,0.378,1.322,0.378c0.738,0,1.382-0.277,1.931-0.832
						c0.549-0.556,0.823-1.25,0.823-2.084c0-0.618-0.17-1.152-0.508-1.602c-0.34-0.451-0.803-0.727-1.391-0.828v2.052h-0.748
						V108.518z"/>
					<path fill="#FFFFFF" d="M177.66,103.01v0.737h-2.34c-0.54,0-0.908,0.026-1.103,0.077s-0.36,0.126-0.495,0.226
						c-0.135,0.098-0.235,0.225-0.301,0.377c-0.066,0.153-0.1,0.34-0.1,0.559s0.054,0.434,0.162,0.643
						c0.107,0.211,0.258,0.391,0.449,0.541c0.193,0.15,0.396,0.254,0.613,0.311c0.215,0.057,0.647,0.085,1.295,0.085h1.818v0.747
						h-4.904v-0.747h0.737c-0.576-0.485-0.864-1.062-0.864-1.728c0-0.354,0.092-0.676,0.275-0.963
						c0.183-0.289,0.435-0.504,0.756-0.648c0.32-0.145,0.814-0.216,1.48-0.216H177.66z"/>
					<path fill="#FFFFFF" d="M177.66,96.7v0.729h-0.72c0.588,0.534,0.882,1.151,0.882,1.85c0,0.699-0.255,1.294-0.766,1.786
						c-0.51,0.492-1.121,0.738-1.836,0.738c-0.713,0-1.324-0.249-1.831-0.747s-0.761-1.105-0.761-1.822s0.291-1.318,0.873-1.805
						h-2.592V96.7H177.66z M177.129,99.221c0-0.474-0.177-0.897-0.531-1.269c-0.354-0.373-0.802-0.559-1.345-0.559
						s-0.996,0.173-1.359,0.518c-0.362,0.346-0.544,0.78-0.544,1.305c0,0.525,0.188,0.963,0.562,1.314s0.815,0.526,1.322,0.526
						c0.508,0,0.949-0.18,1.328-0.54C176.94,100.157,177.129,99.725,177.129,99.221z"/>
				</g>
			</g>
		</g>
	</g>
	<g name="select" opacity="0">
		<path name="selectPath" fill="#FFFFFF" d="M295.947,0H3C1.343,0,0,1.343,0,3v129c0,1.657,1.343,3,3,3h119.113v31.139
			c0,1.104,0.895,2,2,2c1.104,0,2-0.896,2-2V135h13v31.139c0,1.104,0.895,2,2,2c1.104,0,2-0.896,2-2V135h13v31.139
			c0,1.104,0.895,2,2,2c1.104,0,2-0.896,2-2V135h13v31.139c0,1.104,0.895,2,2,2c1.104,0,2-0.896,2-2V135h118.834
			c1.657,0,3-1.343,3-3V3C298.947,1.343,297.604,0,295.947,0z M290.726,131.301c-0.675,0-1.31-0.159-1.885-0.427
			c-1.276-0.906-2.115-2.389-2.115-4.073s0.839-3.167,2.115-4.073c0.575-0.268,1.21-0.427,1.885-0.427c2.481,0,4.5,2.019,4.5,4.5
			S293.207,131.301,290.726,131.301z M6.725,131.301c-0.675,0-1.309-0.159-1.884-0.427c-1.276-0.906-2.116-2.389-2.116-4.073
			s0.839-3.167,2.116-4.073c0.575-0.268,1.209-0.427,1.884-0.427c2.482,0,4.5,2.019,4.5,4.5S9.207,131.301,6.725,131.301z
			 M6.725,3.051c2.482,0,4.5,2.019,4.5,4.5s-2.018,4.5-4.5,4.5c-0.675,0-1.309-0.16-1.884-0.427
			c-1.276-0.906-2.116-2.388-2.116-4.073s0.839-3.167,2.116-4.073C5.416,3.21,6.05,3.051,6.725,3.051z M290.726,12.051
			c-0.675,0-1.31-0.16-1.885-0.427c-1.276-0.906-2.115-2.389-2.115-4.073s0.839-3.167,2.115-4.073
			c0.575-0.268,1.21-0.427,1.885-0.427c2.481,0,4.5,2.019,4.5,4.5S293.207,12.051,290.726,12.051z M12.725,7.551
			c0,1.978-1.158,3.671-2.824,4.482c1.404-0.998,2.324-2.633,2.324-4.482s-0.92-3.485-2.324-4.482
			C11.567,3.879,12.725,5.573,12.725,7.551z M9.901,131.283c1.404-0.997,2.324-2.634,2.324-4.482s-0.92-3.485-2.324-4.482
			c1.666,0.812,2.824,2.505,2.824,4.482S11.567,130.472,9.901,131.283z M293.901,131.283c1.403-0.997,2.324-2.634,2.324-4.482
			s-0.921-3.485-2.324-4.482c1.666,0.812,2.824,2.505,2.824,4.482S295.567,130.472,293.901,131.283z M293.901,12.033
			c1.403-0.998,2.324-2.633,2.324-4.482s-0.921-3.485-2.324-4.482c1.666,0.812,2.824,2.505,2.824,4.482
			S295.567,11.222,293.901,12.033z"/>
	</g>
	<g name="pinGroup" opacity="0">
		<rect name="vcc" x="120.113" y="160.139" fill="#E60012" width="8" height="8"/>
		<rect name="trig" x="136.735" y="160.139" fill="#E60012" width="8" height="8"/>
		<rect name="echo" x="154.113" y="160.139" fill="#E60012" width="7.999" height="8"/>
		<rect name="gnd" x="171.113" y="160.139" fill="#E60012" width="7.999" height="8"/>
	</g>
</g>
</svg>
