<?xml version="1.0" encoding="utf-8"?>
<!-- Generator: Adobe Illustrator 16.0.0, SVG Export Plug-In . SVG Version: 6.00 Build 0)  -->
<!DOCTYPE svg PUBLIC "-//W3C//DTD SVG 1.1//EN" "http://www.w3.org/Graphics/SVG/1.1/DTD/svg11.dtd">
<svg version="1.1" name="layer" xmlns="http://www.w3.org/2000/svg" xmlns:xlink="http://www.w3.org/1999/xlink" x="0px" y="0px"
	 width="133.824px" height="196.341px" viewBox="0 0 133.824 196.341" enable-background="new 0 0 133.824 196.341"
	 xml:space="preserve">
<g name="button">
	<g name="selected" opacity="0">
		<path name="selectPath" stroke="#33bbff" stroke-width="5" d="M130.824,0H3C1.343,0,0,1.343,0,3v162.29c0,1.657,1.343,3,3,3h44.953v26.051
			c0,1.104,0.895,2,2,2c1.104,0,2-0.896,2-2V168.29h13v26.051c0,1.104,0.895,2,2,2c1.104,0,2-0.896,2-2V168.29h13v26.051
			c0,1.104,0.895,2,2,2c1.104,0,2-0.896,2-2V168.29h44.871c1.657,0,3-1.343,3-3V3C133.824,1.343,132.482,0,130.824,0z
			 M13.412,163.181c-4.699,0-8.508-3.809-8.508-8.508c0-4.698,3.809-8.507,8.508-8.507s8.508,3.809,8.508,8.507
			C21.92,159.372,18.112,163.181,13.412,163.181z M13.412,22.124c-4.699,0-8.508-3.809-8.508-8.508c0-4.698,3.809-8.507,8.508-8.507
			s8.508,3.809,8.508,8.507C21.92,18.315,18.112,22.124,13.412,22.124z M120.412,163.181c-4.699,0-8.508-3.809-8.508-8.508
			c0-4.698,3.809-8.507,8.508-8.507c4.697,0,8.508,3.809,8.508,8.507C128.92,159.372,125.11,163.181,120.412,163.181z
			 M120.412,22.124c-4.699,0-8.508-3.809-8.508-8.508c0-4.698,3.809-8.507,8.508-8.507c4.697,0,8.508,3.809,8.508,8.507
			C128.92,18.315,125.11,22.124,120.412,22.124z"/>
	</g>
	<g name="body">
		<g>
			<path fill="#3E3A39" d="M130.824,0H3C1.343,0,0,1.343,0,3v162.29c0,1.657,1.343,3,3,3h127.824c1.657,0,3-1.343,3-3V3
				C133.824,1.343,132.482,0,130.824,0z M13.412,163.181c-4.699,0-8.508-3.809-8.508-8.508c0-4.698,3.809-8.507,8.508-8.507
				s8.508,3.809,8.508,8.507C21.92,159.372,18.112,163.181,13.412,163.181z M13.412,22.124c-4.699,0-8.508-3.809-8.508-8.508
				c0-4.698,3.809-8.507,8.508-8.507s8.508,3.809,8.508,8.507C21.92,18.315,18.112,22.124,13.412,22.124z M120.412,163.181
				c-4.699,0-8.508-3.809-8.508-8.508c0-4.698,3.809-8.507,8.508-8.507c4.697,0,8.508,3.809,8.508,8.507
				C128.92,159.372,125.11,163.181,120.412,163.181z M120.412,22.124c-4.699,0-8.508-3.809-8.508-8.508
				c0-4.698,3.809-8.507,8.508-8.507c4.697,0,8.508,3.809,8.508,8.507C128.92,18.315,125.11,22.124,120.412,22.124z"/>
		</g>
		<circle fill="#595757" cx="49.009" cy="99.137" r="4.724"/>
		<circle fill="#595757" cx="84.787" cy="99.137" r="4.724"/>
		<circle fill="#595757" cx="49.009" cy="15.804" r="4.724"/>
		<circle fill="#595757" cx="84.787" cy="15.804" r="4.724"/>
		<g>
			<circle fill="#595757" cx="44.365" cy="116.48" r="2.894"/>
			<circle fill="#595757" cx="89.365" cy="116.48" r="2.894"/>
			<path opacity="0.5" fill="#231815" enable-background="new    " d="M89.198,118.116h-2.235c-0.004-0.01-0.01-0.028-0.01-0.028
				s-0.56-0.027-1.295-0.259c-0.997-0.328-2.293-4.897-6.195-4.897c-3.901,0-4.597,1.514-7.544,1.514c-0.183,0-0.474,0-0.833,0
				c-0.864,0-2.152,0-3.492,0c-1.231,0-2.496,0-3.506,0c-0.806,0-1.451,0-1.773,0c-0.011,0-0.021-0.001-0.031-0.001
				c-0.315-0.001-0.603-0.021-0.871-0.053c-0.015-0.002-0.03-0.003-0.045-0.004c-0.275-0.036-0.531-0.086-0.773-0.146v0.004
				c-1.705-0.411-2.81-1.312-5.824-1.312c-0.001,0-0.002,0-0.004,0c-0.003,0-0.006,0-0.01,0c-0.22,0-0.427,0.018-0.625,0.047
				c-3.407,0.463-4.618,4.541-5.569,4.837c-0.723,0.232-1.296,0.258-1.296,0.258s-0.092,0-0.201,0.042h-2.438
				c-0.754,0-1.364,0.611-1.364,1.364s0.61,1.364,1.364,1.364h2.629c0.003,0.009,0.011,0.028,0.011,0.028s0.56,0.026,1.296,0.258
				c0.903,0.282,2.045,3.967,5.075,4.735v0.013c0.132,0.031,0.274,0.057,0.417,0.081c0.006,0.001,0.012,0.002,0.019,0.003
				c0.22,0.037,0.447,0.064,0.684,0.064c0.954,0,1.705-0.096,2.361-0.232v-0.004c1.417-0.292,2.308-0.8,3.477-1.079v0.006
				c0.507-0.123,1.052-0.204,1.706-0.204c0.324,0,0.976,0,1.788,0c1.012,0,2.275,0,3.506,0c1.342,0,2.633,0,3.492,0
				c0.354,0,0.64,0,0.819,0c2.947,0,3.643,1.513,7.544,1.513c3.902,0,5.199-4.57,6.209-4.884c0.722-0.232,1.295-0.258,1.295-0.258
				s0.062,0.008,0.137-0.042h2.108c0.754,0,1.364-0.611,1.364-1.364S89.952,118.116,89.198,118.116z"/>
			<path fill="#8C8C8C" d="M89.198,117.844H44.626c-0.754,0-1.364-0.611-1.364-1.364s0.61-1.364,1.364-1.364h44.572
				c0.754,0,1.364,0.611,1.364,1.364S89.952,117.844,89.198,117.844z"/>
			<path fill="#D9B477" d="M71.906,121.515c2.947,0,3.643,1.513,7.544,1.513c3.902,0,5.199-4.57,6.209-4.884
				c0.722-0.232,1.295-0.258,1.295-0.258s0.341,0.068,0.382-0.765c0.042-0.832-0.382-2.033-0.382-2.033s-0.56-0.027-1.295-0.259
				c-0.997-0.328-2.293-4.897-6.195-4.897c-3.901,0-4.597,1.514-7.544,1.514c-1.351,0-8.255,0-9.604,0
				c-2.947,0-3.645-1.514-7.545-1.514c-3.901,0-5.199,4.57-6.208,4.884c-0.723,0.232-1.296,0.258-1.296,0.258
				s-0.573-0.013-0.573,0.682c0,0.696,0.573,2.116,0.573,2.116s0.56,0.026,1.296,0.258c1.009,0.314,2.307,4.884,6.208,4.884
				c3.9,0,4.598-1.5,7.53-1.5C63.651,121.515,70.569,121.515,71.906,121.515z"/>
			<path fill="#FF0000" d="M71.086,121.515v-10.07c-0.859,0-2.155,0-3.492,0v10.07C68.931,121.515,70.227,121.515,71.086,121.515z"
				/>
			<path d="M62.3,121.515c0.327,0,0.97,0,1.788,0v-10.07c-0.818,0-1.461,0-1.788,0c-0.668,0-1.214-0.082-1.706-0.205v10.479
				C61.101,121.596,61.646,121.515,62.3,121.515z"/>
			<path fill="#8B4513" d="M54.756,123.028c0.954,0,1.705-0.096,2.361-0.232v-12.633c-0.656-0.136-1.407-0.232-2.361-0.232
				c-0.41,0-0.778,0.053-1.119,0.149v12.798C53.978,122.96,54.361,123.028,54.756,123.028z"/>
			<path fill="#AD9F4E" d="M79.463,109.932c-0.3,0-0.56,0.027-0.818,0.04v13.002c0.273,0.015,0.519,0.042,0.818,0.042
				c0.179,0,0.341-0.013,0.506-0.042v-13.002C79.804,109.958,79.642,109.932,79.463,109.932z"/>
			<rect x="78.645" y="116.262" opacity="0.4" enable-background="new    " width="1.324" height="6.316"/>
			<rect x="78.645" y="110.137" opacity="0.5" fill="#FFFF33" enable-background="new    " width="1.324" height="3.246"/>
		</g>
		<path opacity="0.5" fill="#231815" d="M102.414,20.878H87.408v-3.596c0-0.985-1.176-1.783-2.623-1.783
			c-1.449,0-2.621,0.798-2.621,1.783v3.596H51.631v-3.596c0-0.985-1.176-1.783-2.623-1.783c-1.449,0-2.621,0.798-2.621,1.783v3.596
			H31.379c-1.656,0-3,1.344-3,3v71.035c0,1.656,1.344,3,3,3h15.008v0.596c0,0.985,1.172,1.783,2.621,1.783
			c1.447,0,2.623-0.798,2.623-1.783v-0.596h30.533v0.596c0,0.985,1.172,1.783,2.621,1.783c1.447,0,2.623-0.798,2.623-1.783v-0.596
			h15.006c1.656,0,3-1.344,3-3V23.878C105.414,22.222,104.071,20.878,102.414,20.878z"/>
		<g>
			<path fill="#8C8C8C" d="M49.008,101.292c-1.449,0-2.621-0.798-2.621-1.783V15.282c0-0.985,1.172-1.783,2.621-1.783
				c1.447,0,2.623,0.798,2.623,1.783v84.228C51.631,100.494,50.455,101.292,49.008,101.292z"/>
			<path fill="#8C8C8C" d="M84.785,101.292c-1.449,0-2.621-0.798-2.621-1.783V15.282c0-0.985,1.172-1.783,2.621-1.783
				c1.447,0,2.623,0.798,2.623,1.783v84.228C87.408,100.494,86.233,101.292,84.785,101.292z"/>
		</g>
		<path fill="#231815" d="M105.414,92.913c0,1.656-1.344,3-3,3H31.379c-1.656,0-3-1.344-3-3V21.878c0-1.656,1.344-3,3-3h71.035
			c1.656,0,3,1.344,3,3V92.913z"/>
		<path fill="#C9CACA" d="M99.897,87.396c0,1.657-1.342,3-3,3h-60c-1.656,0-3-1.343-3-3v-60c0-1.657,1.344-3,3-3h60
			c1.658,0,3,1.343,3,3V87.396z"/>
		<g>
			<circle fill="#231815" cx="41.472" cy="32.479" r="4.854"/>
			<circle fill="#231815" cx="92.323" cy="32.479" r="4.854"/>
			<circle fill="#231815" cx="41.472" cy="82.312" r="4.854"/>
			<circle fill="#231815" cx="92.323" cy="82.312" r="4.854"/>
		</g>
		<g name="pin_2_">
			<path fill="#9FA0A0" d="M49.953,196.341c-1.105,0-2-0.896-2-2V154.52c0-1.104,0.895-2,2-2c1.104,0,2,0.896,2,2v39.821
				C51.953,195.446,51.057,196.341,49.953,196.341z"/>
			<path fill="#9FA0A0" d="M66.953,196.341c-1.105,0-2-0.896-2-2V154.52c0-1.104,0.895-2,2-2c1.104,0,2,0.896,2,2v39.821
				C68.953,195.446,68.057,196.341,66.953,196.341z"/>
			<path fill="#9FA0A0" d="M83.953,196.341c-1.105,0-2-0.896-2-2V154.52c0-1.104,0.895-2,2-2c1.104,0,2,0.896,2,2v39.821
				C85.953,195.446,85.057,196.341,83.953,196.341z"/>
			<rect x="41.426" y="147.715" fill="#595757" width="50.834" height="13.61"/>
			<g>
				<rect x="55.953" y="147.715" fill="#231815" width="2.404" height="13.61"/>
				<rect x="58.446" y="147.701" fill="#727171" width="2.404" height="13.61"/>
			</g>
			<g>
				<rect x="72.973" y="147.715" fill="#231815" width="2.404" height="13.61"/>
				<rect x="75.467" y="147.701" fill="#727171" width="2.404" height="13.61"/>
			</g>
			<g>
				<rect x="89.992" y="147.715" fill="#231815" width="2.406" height="13.61"/>
			</g>
			<rect x="41.426" y="147.701" fill="#727171" width="2.404" height="13.61"/>
		</g>
		<g>
			<path fill="#FFFFFF" d="M45.994,139.761l1.251-0.109c0.06,0.501,0.197,0.913,0.413,1.234c0.217,0.321,0.553,0.581,1.009,0.779
				s0.969,0.297,1.538,0.297c0.506,0,0.952-0.075,1.34-0.226s0.676-0.356,0.865-0.619c0.188-0.262,0.283-0.548,0.283-0.858
				c0-0.314-0.091-0.589-0.273-0.824s-0.483-0.432-0.902-0.591c-0.269-0.105-0.863-0.268-1.784-0.489s-1.565-0.43-1.935-0.625
				c-0.479-0.25-0.835-0.562-1.07-0.933c-0.234-0.372-0.352-0.787-0.352-1.248c0-0.506,0.144-0.979,0.431-1.418
				s0.706-0.773,1.258-1.001s1.164-0.342,1.839-0.342c0.743,0,1.398,0.12,1.965,0.359c0.568,0.239,1.004,0.591,1.31,1.056
				s0.47,0.991,0.492,1.579l-1.271,0.096c-0.068-0.633-0.3-1.112-0.694-1.436c-0.394-0.324-0.976-0.485-1.746-0.485
				c-0.802,0-1.387,0.147-1.754,0.441c-0.366,0.294-0.55,0.648-0.55,1.063c0,0.36,0.13,0.656,0.39,0.889
				c0.255,0.232,0.922,0.471,2,0.714c1.077,0.244,1.816,0.457,2.218,0.639c0.583,0.269,1.014,0.609,1.292,1.022
				s0.417,0.888,0.417,1.425c0,0.533-0.152,1.036-0.458,1.507s-0.744,0.838-1.316,1.101c-0.571,0.262-1.215,0.393-1.931,0.393
				c-0.907,0-1.667-0.132-2.28-0.396c-0.612-0.264-1.094-0.662-1.441-1.193C46.196,141.031,46.013,140.431,45.994,139.761z"/>
			<path fill="#FFFFFF" d="M65.648,142.98l-3.883-10.021H63.2l2.604,7.28c0.21,0.583,0.385,1.13,0.526,1.641
				c0.155-0.547,0.335-1.094,0.54-1.641l2.707-7.28h1.354l-3.924,10.021H65.648z"/>
			<path fill="#FFFFFF" d="M83.811,139.05v-1.176l4.245-0.007v3.719c-0.651,0.52-1.324,0.91-2.017,1.172s-1.403,0.393-2.133,0.393
				c-0.984,0-1.879-0.211-2.684-0.632c-0.804-0.421-1.411-1.031-1.821-1.829s-0.615-1.688-0.615-2.673
				c0-0.975,0.204-1.886,0.612-2.731c0.407-0.845,0.994-1.473,1.76-1.883s1.647-0.615,2.646-0.615c0.725,0,1.38,0.117,1.966,0.352
				c0.585,0.235,1.044,0.562,1.377,0.981s0.586,0.966,0.759,1.641l-1.196,0.328c-0.15-0.51-0.337-0.912-0.561-1.203
				s-0.542-0.525-0.957-0.701s-0.875-0.263-1.381-0.263c-0.606,0-1.13,0.092-1.572,0.277s-0.799,0.427-1.07,0.728
				c-0.271,0.301-0.481,0.631-0.632,0.991c-0.255,0.62-0.383,1.292-0.383,2.017c0,0.893,0.153,1.641,0.462,2.242
				c0.307,0.602,0.755,1.048,1.343,1.34s1.212,0.438,1.873,0.438c0.574,0,1.135-0.11,1.682-0.332s0.962-0.457,1.244-0.708v-1.866
				H83.811z"/>
		</g>
	</g>
	<g name="select" opacity="0">
		<path name="selectPath" fill="#E60012" d="M130.824,0H3C1.343,0,0,1.343,0,3v162.29c0,1.657,1.343,3,3,3h44.953v26.051
			c0,1.104,0.895,2,2,2c1.104,0,2-0.896,2-2V168.29h13v26.051c0,1.104,0.895,2,2,2c1.104,0,2-0.896,2-2V168.29h13v26.051
			c0,1.104,0.895,2,2,2c1.104,0,2-0.896,2-2V168.29h44.871c1.657,0,3-1.343,3-3V3C133.824,1.343,132.482,0,130.824,0z
			 M13.412,163.181c-4.699,0-8.508-3.809-8.508-8.508c0-4.698,3.809-8.507,8.508-8.507s8.508,3.809,8.508,8.507
			C21.92,159.372,18.112,163.181,13.412,163.181z M13.412,22.124c-4.699,0-8.508-3.809-8.508-8.508c0-4.698,3.809-8.507,8.508-8.507
			s8.508,3.809,8.508,8.507C21.92,18.315,18.112,22.124,13.412,22.124z M120.412,163.181c-4.699,0-8.508-3.809-8.508-8.508
			c0-4.698,3.809-8.507,8.508-8.507c4.697,0,8.508,3.809,8.508,8.507C128.92,159.372,125.11,163.181,120.412,163.181z
			 M120.412,22.124c-4.699,0-8.508-3.809-8.508-8.508c0-4.698,3.809-8.507,8.508-8.507c4.697,0,8.508,3.809,8.508,8.507
			C128.92,18.315,125.11,22.124,120.412,22.124z"/>
	</g>
	<g name="btnDown">
		<circle fill="#B5B5B6" cx="66.912" cy="57.396" r="21.657"/>
		<circle fill="#9FA0A0" cx="66.809" cy="57.557" r="19.703"/>
		<circle fill="#595757" cx="66.882" cy="57.396" r="18.073"/>
		<path fill="#231815" d="M84.522,53.463c2.171,9.742-3.966,19.4-13.707,21.572c-9.742,2.172-19.4-3.965-21.572-13.706
			c-1.347-6.04,4.735-15.945,14.478-18.117C73.461,41.039,82.856,45.998,84.522,53.463z"/>
		<path fill="#3E3A39" d="M84.522,53.463c1.832,7.759-4.56,18.033-14.301,20.205c-9.743,2.172-18.623-2.641-20.979-12.339
			c-1.9-7.826,3.796-17.643,13.537-19.814C72.521,39.342,82.222,43.727,84.522,53.463z"/>
	</g>
	<g name="btnUp">
		<ellipse fill="#B5B5B6" cx="68.043" cy="59.609" rx="22.788" ry="23.871"/>
		<circle fill="#595757" cx="66.912" cy="57.396" r="21.657"/>
		<path fill="#231815" d="M88.05,52.683c2.603,11.674-4.752,23.248-16.425,25.851c-11.675,2.603-23.248-4.751-25.852-16.425
			C44.16,54.871,51.448,43,63.122,40.398C74.796,37.795,86.055,43.737,88.05,52.683z"/>
		<path fill="#3E3A39" d="M88.05,52.683c2.196,9.298-5.464,21.61-17.137,24.213c-11.675,2.603-22.317-3.165-25.14-14.787
			c-2.277-9.377,4.549-21.142,16.223-23.744C73.67,35.761,85.294,41.016,88.05,52.683z"/>
	</g>
	<g name="pinGroup" opacity="0">
		<rect name="signal" x="45.479" y="188.341" fill="#E60012" width="8" height="8"/>
		<rect name="vcc" x="62.858" y="188.341" fill="#E60012" width="7.999" height="8"/>
		<rect name="gnd" x="79.858" y="188.341" fill="#E60012" width="7.999" height="8"/>
	</g>
</g>
</svg>
