<?xml version="1.0" encoding="utf-8"?>
<!-- Generator: Adobe Illustrator 16.0.0, SVG Export Plug-In . SVG Version: 6.00 Build 0)  -->
<!DOCTYPE svg PUBLIC "-//W3C//DTD SVG 1.1//EN" "http://www.w3.org/Graphics/SVG/1.1/DTD/svg11.dtd">
<svg version="1.1" name="layer" xmlns="http://www.w3.org/2000/svg" xmlns:xlink="http://www.w3.org/1999/xlink" x="0px" y="0px"
	 width="595.279px" height="841.89px" viewBox="0 0 595.279 841.89" enable-background="new 0 0 595.279 841.89"
	 xml:space="preserve">
<g name="buzzer">
	<g name="selected" opacity="0">
		<path name="selectPath" fill="none" stroke="#33BBFF" stroke-width="5" d="M76.134,38.067C76.134,17.043,59.091,0,38.067,0
			C17.044,0,0,17.043,0,38.067C0,52.168,7.674,64.47,19.067,71.048v18.583c0,1.104,0.896,2,2,2c1.103,0,2-0.899,2-2V73.06
			c4.604,1.976,9.673,3.074,15,3.074c5.327,0,10.397-1.098,15-3.074v16.572c0,1.104,0.896,2,2,2c1.104,0,2-0.899,2-2V71.048
			C68.46,64.47,76.134,52.168,76.134,38.067z"/>
	</g>
	<g name="body">
		<g name="p">
			<path fill="#9FA0A0" d="M21.067,91.632c-1.104,0-2-0.896-2-2v-39.82c0-1.104,0.896-2,2-2c1.105,0,2,0.896,2,2v39.82
				C23.067,90.733,22.17,91.632,21.067,91.632z"/>
			<path fill="#9FA0A0" d="M55.067,91.632c-1.104,0-2-0.896-2-2v-39.82c0-1.104,0.896-2,2-2c1.105,0,2,0.896,2,2v39.82
				C57.067,90.733,56.172,91.632,55.067,91.632z"/>
		</g>
		<circle fill="#3E3A39" cx="38.067" cy="38.067" r="38.067"/>
		<circle fill="#231815" cx="38.068" cy="38.066" r="31.149"/>
		<circle fill="#727171" cx="38.067" cy="38.067" r="4.697"/>
	</g>
	<g name="select" opacity="0">
		<path name="selectPath" fill="#727171" d="M76.134,38.067C76.134,17.043,59.091,0,38.067,0C17.044,0,0,17.043,0,38.067
			C0,52.168,7.674,64.47,19.067,71.048v18.583c0,1.104,0.896,2,2,2c1.103,0,2-0.899,2-2V73.06c4.604,1.976,9.673,3.074,15,3.074
			c5.327,0,10.397-1.098,15-3.074v16.572c0,1.104,0.896,2,2,2c1.104,0,2-0.899,2-2V71.048C68.46,64.47,76.134,52.168,76.134,38.067z
			"/>
	</g>
	<g name="pinGroup" opacity="0">
		<rect name="pin2" x="16.877" y="83.631" fill="#E60012" width="8" height="8"/>
		<rect name="pin1" x="51.257" y="83.631" fill="#E60012" width="8" height="8"/>
	</g>
</g>
</svg>
