<?xml version="1.0" encoding="utf-8"?>
<!-- Generator: Adobe Illustrator 16.0.0, SVG Export Plug-In . SVG Version: 6.00 Build 0)  -->
<!DOCTYPE svg PUBLIC "-//W3C//DTD SVG 1.1//EN" "http://www.w3.org/Graphics/SVG/1.1/DTD/svg11.dtd">
<svg version="1.1" name="layer" xmlns="http://www.w3.org/2000/svg" xmlns:xlink="http://www.w3.org/1999/xlink" x="0px" y="0px"
	 width="595.28px" height="841.89px" viewBox="0 0 595.28 841.89" enable-background="new 0 0 595.28 841.89" xml:space="preserve">
<g name="power" transform="translate(0,50)">
	<g name="body">
		<path fill="#333333" d="M36.571-22.836H14.608c-7.985,0-14.46,6.474-14.46,14.46c0,7.985,6.476,14.458,14.46,14.458h21.963
			V-22.836z"/>
		<path opacity="0.3" enable-background="new    " d="M32.412-8.375c0,5.63-0.797,10.726-3.344,14.458h7.503v-28.918h-7.503
			C31.615-19.104,32.412-14.006,32.412-8.375z"/>
		<path fill="#333333" d="M38.36,11.43h17.753c0.989,0,1.789-0.801,1.789-1.789l-0.006-4.149h6.807L64.7,9.641
			c0,0.987,0.801,1.789,1.788,1.789h21.902v-39.612H66.488c-0.987,0-1.788,0.8-1.788,1.788v0.707c0,0.422,0,3.445,0,3.445h-6.797
			c0,0,0-3.027,0-3.445v-0.707c0-0.988-0.801-1.788-1.79-1.788H38.36c-0.987,0-1.789,0.8-1.789,1.788V9.64
			C36.571,10.629,37.373,11.43,38.36,11.43z"/>
		<ellipse opacity="0.2" enable-background="new    " cx="47.726" cy="-8.375" rx="3.614" ry="15.47"/>
		<ellipse opacity="0.2" enable-background="new    " cx="47.726" cy="-8.375" rx="3.614" ry="12.408"/>
		<ellipse opacity="0.2" enable-background="new    " cx="74.237" cy="-8.375" rx="3.615" ry="15.47"/>
		<ellipse opacity="0.2" enable-background="new    " cx="74.237" cy="-8.375" rx="3.615" ry="12.408"/>
		<path opacity="0.3" enable-background="new    " d="M57.908-21.299c0,1.546,1.754,2.691,3.409,2.691
			c1.654,0,3.406-1.17,3.406-2.691v-0.934l-6.815-0.01V-21.299z"/>
		<path opacity="0.3" enable-background="new    " d="M64.699,4.548c0-1.932-1.752-2.691-3.407-2.691
			c-1.654,0-3.405,0.939-3.405,2.691l-0.008,0.943h6.814L64.699,4.548z"/>
		<path fill="#262626" d="M79.18,11.43h5.421v-39.612H79.18C82.358-23.07,82.358,6.32,79.18,11.43z"/>
		<path fill="#333333" d="M193.007,30.904v1.938c0,0.225,0.182,0.408,0.407,0.408h36.345c0.902,0,1.633-0.73,1.633-1.633v-79.982
			c0-0.904-0.73-1.634-1.634-1.634h-36.349c-0.224,0-0.404,0.18-0.404,0.405v1.943c0,0.225-0.182,0.405-0.405,0.405h-4.085
			c-0.225,0-0.405-0.181-0.405-0.405v-1.943c0-0.225-0.181-0.405-0.404-0.405h-5.718c-0.224,0-0.404,0.18-0.404,0.405v1.943
			c0,0.225-0.182,0.405-0.405,0.405h-4.086c-0.225,0-0.404-0.181-0.404-0.405v-1.943c0-0.225-0.182-0.405-0.405-0.405h-5.718
			c-0.223,0-0.405,0.18-0.405,0.405v1.943c0,0.225-0.181,0.405-0.403,0.405h-4.086c-0.224,0-0.404-0.181-0.404-0.405v-1.943
			c0-0.225-0.181-0.405-0.405-0.405h-5.718c-0.223,0-0.405,0.18-0.405,0.405v1.943c0,0.225-0.181,0.405-0.403,0.405h-4.086
			c-0.224,0-0.404-0.181-0.404-0.405v-1.943c0-0.225-0.183-0.405-0.405-0.405h-5.718c-0.224,0-0.405,0.18-0.405,0.405v1.943
			c0,0.225-0.181,0.405-0.405,0.405h-4.086c-0.223,0-0.403-0.181-0.403-0.405v-1.943c0-0.225-0.182-0.405-0.405-0.405h-5.718
			c-0.224,0-0.405,0.18-0.405,0.405v1.943c0,0.225-0.181,0.405-0.404,0.405h-4.086c-0.223,0-0.405-0.181-0.405-0.405v-1.943
			c0-0.225-0.181-0.405-0.404-0.405h-27.411c-1.487,0-2.896,0.678-3.826,1.841l-5.22,6.539c-0.928,1.164-2.337,1.841-3.826,1.841
			h-2.541c-1.803,0-3.265,1.462-3.265,3.265v55.5c0,1.805,1.462,3.265,3.265,3.265h2.433c1.552,0,3.01,0.735,3.934,1.979
			l5.225,7.041c0.923,1.244,2.382,1.977,3.934,1.977h27.28c0.227,0,0.408-0.182,0.408-0.407v-1.938c0-0.225,0.182-0.408,0.408-0.408
			h4.08c0.226,0,0.408,0.184,0.408,0.408v1.938c0,0.226,0.183,0.407,0.407,0.407h5.713c0.225,0,0.407-0.182,0.407-0.407v-1.938
			c0-0.225,0.184-0.408,0.408-0.408h4.079c0.225,0,0.408,0.184,0.408,0.408v1.938c0,0.226,0.183,0.407,0.408,0.407h5.712
			c0.225,0,0.407-0.182,0.407-0.407v-1.938c0-0.225,0.183-0.408,0.408-0.408h4.079c0.226,0,0.408,0.184,0.408,0.408v1.938
			c0,0.226,0.182,0.407,0.408,0.407h5.711c0.225,0,0.408-0.182,0.408-0.407v-1.938c0-0.225,0.183-0.408,0.407-0.408h4.079
			c0.226,0,0.408,0.184,0.408,0.408v1.938c0,0.226,0.184,0.407,0.408,0.407h5.712c0.225,0,0.408-0.182,0.408-0.407v-1.938
			c0-0.225,0.183-0.408,0.408-0.408h4.079c0.226,0,0.408,0.184,0.408,0.408v1.938c0,0.226,0.184,0.407,0.408,0.407h5.712
			c0.226,0,0.408-0.182,0.408-0.407v-1.938c0-0.225,0.182-0.408,0.408-0.408h4.08C192.823,30.494,193.007,30.676,193.007,30.904z"/>
		<rect x="137.913" y="-33.25" fill="#1E1E1E" width="76.721" height="49.748"/>
		<path fill="#595757" d="M199.39-13.875c-2.735,0.001-5.001,1.984-5.452,4.588h-9.333v-0.021c-3.762,0-5.654-2.181-7.843-4.704
			c-1.352-1.559-2.75-3.171-4.696-4.405c-0.015-0.008-0.028-0.016-0.043-0.024c-0.791-0.452-2.429-0.524-5.796-0.524
			c-0.279,0-0.574,0-0.878,0v-2.676h-7.568v7.584h7.568v-2.778c2.503-0.007,5.067,0.006,5.61,0.24
			c1.664,1.066,2.948,2.546,4.192,3.979c1.018,1.173,2.05,2.362,3.287,3.329h-25.227v-2.478c0,0-7.289,3.333-7.402,3.417
			c-0.113,0.085,7.402,3.533,7.402,3.533v-2.339h33.921c-1.576,1.173-2.92,2.65-4.109,3.963c-1.57,1.731-3.054,3.37-4.248,3.37
			h-5.069c-0.444-1.537-1.846-2.666-3.525-2.666c-2.038,0-3.688,1.652-3.688,3.688c0,0.002,0,0.002,0,0.004
			c0,2.037,1.652,3.686,3.688,3.686c1.649,0,3.026-1.088,3.498-2.58h5.096c2.139,0,3.85-1.886,5.827-4.07
			c2.152-2.377,4.594-5.07,7.792-5.371c0.026-0.003,0.047-0.018,0.072-0.022h1.514c0.541,2.493,2.758,4.362,5.413,4.36
			c3.06,0,5.54-2.482,5.538-5.542c0,0,0-0.002,0-0.003C204.93-11.397,202.45-13.877,199.39-13.875z"/>
		<path fill="#BFBFBF" d="M273.479,16.111v-48.972c0-0.9-0.731-1.632-1.633-1.632h-40.454v52.234h40.455
			C272.748,17.742,273.479,17.01,273.479,16.111z"/>
		<g>
			<path fill="#BFBFBF" d="M231.393-8.375h15.347c0.546,0,0.987,0.441,0.987,0.988v2.306c0,0.547,0.442,0.989,0.989,0.989h6.376
				c0.547,0,0.989-0.442,0.989-0.989v-2.306c0-0.547,0.441-0.988,0.988-0.988h16.41"/>
			<path fill="#A5A5A5" d="M255.092-3.092h-6.376c-1.097,0-1.989-0.893-1.989-1.989v-2.306l-15.334,0.012v-2h15.347
				c1.096,0,1.987,0.892,1.987,1.988v2.306l6.365-0.011l-0.011-2.295c0-1.096,0.892-1.988,1.988-1.988h16.41v2h-16.41l0.012,2.294
				C257.081-3.985,256.188-3.092,255.092-3.092z"/>
		</g>
		<path opacity="0.2" fill="#FFFFFF" enable-background="new    " d="M231.393-23.112v-11.381h40.455c0.9,0,1.633,0.731,1.633,1.632
			v9.75L231.393-23.112L231.393-23.112z"/>
		<path opacity="0.2" fill="#FFFFFF" enable-background="new    " d="M231.393,17.742V6.359h42.088v9.75
			c0,0.9-0.731,1.633-1.633,1.633H231.393z"/>
		<path fill="#A5A5A5" d="M271.848,17.841h-40.555v-52.434h40.554c0.956,0,1.733,0.777,1.733,1.732v48.972
			C273.58,17.065,272.803,17.841,271.848,17.841z M231.492,17.641h40.355c0.845,0,1.531-0.687,1.531-1.53v-48.972
			c0-0.845-0.688-1.532-1.532-1.532h-40.354V17.641z"/>
		<path fill="#FFE91D" fill-opacity="0" d="M16.161-9.767c0.227,0.094,0.411-0.03,0.411-0.275v-2c0-0.246,0.141-0.304,0.314-0.131
			l7.422,7.424c0.174,0.174,0.134,0.234-0.089,0.134l-5.354-2.362c-0.224-0.099-0.407,0.022-0.407,0.266v2
			c0,0.244-0.142,0.303-0.313,0.131l-7.09-7.092c-0.173-0.172-0.129-0.237,0.098-0.145L16.161-9.767z"/>
		<g>
			<circle fill="#939393" cx="12.056" cy="-8.375" r="1.859"/>
			<circle fill="#939393" cx="17.601" cy="-8.375" r="1.859"/>
			<circle fill="#939393" cx="23.146" cy="-8.375" r="1.86"/>
		</g>
		<polygon fill="#F8B62D" points="119.605,-26.062 106.849,-8.589 113.183,-6.508 108.402,8.042 122.337,-9.812 115.054,-12.205 		
			"/>
	</g>
	<g name="select" opacity="0">
		<path name="selectPath" fill="#E60012" d="M271.694-34.438h-40.457v-13.773c0-0.904-0.73-1.634-1.634-1.634h-36.347
			c-0.225,0-0.405,0.18-0.405,0.405v1.943c0,0.225-0.181,0.405-0.405,0.405h-4.085c-0.224,0-0.404-0.181-0.404-0.405v-1.943
			c0-0.225-0.182-0.405-0.404-0.405h-5.718c-0.225,0-0.405,0.18-0.405,0.405v1.943c0,0.225-0.181,0.405-0.405,0.405h-4.086
			c-0.224,0-0.404-0.181-0.404-0.405v-1.943c0-0.225-0.182-0.405-0.404-0.405h-5.719c-0.223,0-0.404,0.18-0.404,0.405v1.943
			c0,0.225-0.182,0.405-0.404,0.405h-4.086c-0.223,0-0.404-0.181-0.404-0.405v-1.943c0-0.225-0.181-0.405-0.404-0.405h-5.719
			c-0.223,0-0.404,0.18-0.404,0.405v1.943c0,0.225-0.182,0.405-0.404,0.405h-4.086c-0.223,0-0.404-0.181-0.404-0.405v-1.943
			c0-0.225-0.182-0.405-0.405-0.405h-5.718c-0.223,0-0.404,0.18-0.404,0.405v1.943c0,0.225-0.182,0.405-0.405,0.405h-4.086
			c-0.224,0-0.404-0.181-0.404-0.405v-1.943c0-0.225-0.181-0.405-0.405-0.405h-5.718c-0.223,0-0.405,0.18-0.405,0.405v1.943
			c0,0.225-0.181,0.405-0.403,0.405h-4.086c-0.224,0-0.405-0.181-0.405-0.405v-1.943c0-0.225-0.181-0.405-0.405-0.405h-27.411
			c-1.486,0-2.896,0.678-3.826,1.841l-5.22,6.539c-0.928,1.164-2.337,1.841-3.826,1.841h-2.541c-1.803,0-3.265,1.462-3.265,3.265
			v8.333h-5.321H66.338c-0.988,0-1.788,0.8-1.788,1.788v0.707c0,0.422,0,3.445,0,3.445h-6.797c0,0,0-3.027,0-3.445v-0.707
			c0-0.988-0.802-1.788-1.79-1.788H38.21c-0.987,0-1.789,0.8-1.789,1.788v3.558h-7.502H14.46C6.475-22.681,0-16.207,0-8.221
			C0-0.237,6.476,6.238,14.46,6.238h14.459h7.502v3.558c0.001,0.989,0.803,1.79,1.79,1.79h17.753c0.988,0,1.789-0.801,1.789-1.789
			l-0.006-4.15h6.797h0.009l-0.003,4.15c0,0.986,0.8,1.789,1.788,1.789h12.691h5.321v7.554c0,1.806,1.462,3.265,3.265,3.265h2.434
			c1.551,0,3.009,0.735,3.933,1.979l5.226,7.041c0.923,1.245,2.382,1.978,3.933,1.978h27.281c0.226,0,0.407-0.183,0.407-0.408
			v-1.938c0-0.226,0.183-0.407,0.408-0.407h4.08c0.227,0,0.408,0.182,0.408,0.407v1.938c0,0.226,0.183,0.406,0.408,0.406h5.712
			c0.225,0,0.408-0.182,0.408-0.406v-1.938c0-0.226,0.183-0.407,0.407-0.407h4.079c0.226,0,0.408,0.182,0.408,0.407v1.938
			c0,0.226,0.184,0.406,0.408,0.406h5.712c0.225,0,0.408-0.182,0.408-0.406v-1.938c0-0.226,0.182-0.407,0.408-0.407h4.079
			c0.225,0,0.407,0.182,0.407,0.407v1.938c0,0.226,0.183,0.406,0.408,0.406h5.711c0.226,0,0.408-0.182,0.408-0.406v-1.938
			c0-0.226,0.183-0.407,0.408-0.407h4.079c0.225,0,0.407,0.182,0.407,0.407v1.938c0,0.226,0.184,0.406,0.408,0.406h5.712
			c0.226,0,0.408-0.182,0.408-0.406v-1.938c0-0.226,0.184-0.407,0.408-0.407h4.08c0.225,0,0.408,0.182,0.408,0.407v1.938
			c0,0.226,0.183,0.406,0.407,0.406h5.712c0.226,0,0.408-0.182,0.408-0.406v-1.938c0-0.226,0.183-0.407,0.408-0.407h4.08
			c0.243,0,0.425,0.182,0.425,0.409v1.938c0,0.224,0.183,0.408,0.408,0.408h36.343c0.902,0,1.634-0.731,1.634-1.633V17.996h40.457
			c0.954,0,1.731-0.776,1.731-1.731v-48.971C273.428-33.662,272.649-34.438,271.694-34.438z"/>
	</g>
</g>
</svg>
