<?xml version="1.0" encoding="utf-8"?>
<!-- Generator: Adobe Illustrator 16.0.0, SVG Export Plug-In . SVG Version: 6.00 Build 0)  -->
<!DOCTYPE svg PUBLIC "-//W3C//DTD SVG 1.1//EN" "http://www.w3.org/Graphics/SVG/1.1/DTD/svg11.dtd">
<svg version="1.1" name="layer" xmlns="http://www.w3.org/2000/svg" xmlns:xlink="http://www.w3.org/1999/xlink" x="0px" y="0px"
	 width="135.043px" height="226.541px" viewBox="0 0 135.043 226.541" enable-background="new 0 0 135.043 226.541"
	 xml:space="preserve">
<g name="rgbled">
	<g name="selected" opacity="0">
		<path name="selectPath" stroke="#33bbff" stroke-width="5" d="M134.991,65.679v-1.26v-2.154c0-6.369-5.957-11.554-13.283-11.554h-13.656v-8.682
			C108.051,19.681,89.87,1.5,67.522,1.5c-22.348,0-40.528,18.181-40.528,40.529v8.682H13.285C5.96,50.711,0,55.896,0,62.266v2.154
			V180.69v4.307c0,0.336,0.025,0.668,0.053,0.891v1.262c0,6.369,5.959,11.555,13.284,11.555h26.795v25.836c0,1.104,0.895,2,2,2
			c1.104,0,2-0.896,2-2v-25.836h13v25.836c0,1.104,0.895,2,2,2c1.104,0,2-0.896,2-2v-25.836h13v25.836c0,1.104,0.896,2,2,2
			s2-0.896,2-2v-25.836h13v25.836c0,1.104,0.896,2,2,2s2-0.896,2-2v-25.836h26.627c7.326,0,13.287-5.186,13.287-11.555V66.573
			C135.043,66.236,135.019,65.903,134.991,65.679z M29.678,154.356c-1.351,4.402-5.454,7.617-10.294,7.617
			c-4.774,0-8.827-3.127-10.234-7.437c1.354-4.496,5.48-7.638,10.287-7.638C24.138,146.899,28.262,149.972,29.678,154.356z
			 M126.239,154.356c-1.351,4.402-5.453,7.617-10.294,7.617c-4.772,0-8.827-3.127-10.233-7.438
			c1.353-4.496,5.479-7.637,10.285-7.637C120.698,146.899,124.823,149.972,126.239,154.356z"/>
	</g>
	<g name="body">
		<g name="rgbled_x5F_board">
			<path fill="#C9CACA" d="M134.991,65.679v-1.26c0-6.37-5.957-11.554-13.283-11.554H13.285C5.96,52.866,0,58.049,0,64.419v120.578
				c0,0.336,0.025,0.668,0.053,0.891v1.262c0,6.369,5.959,11.555,13.284,11.555h108.421c7.326,0,13.287-5.186,13.287-11.555V66.573
				C135.043,66.236,135.019,65.903,134.991,65.679z M126.513,155.358c-0.954,5.093-5.367,8.769-10.569,8.769
				c-5.052,0-9.443-3.545-10.517-8.458c0.954-5.094,5.366-8.77,10.567-8.77C121.049,146.899,125.44,150.446,126.513,155.358z
				 M29.952,155.358c-0.954,5.093-5.367,8.769-10.568,8.769c-5.053,0-9.444-3.545-10.517-8.458c0.955-5.094,5.367-8.77,10.569-8.77
				C24.488,146.899,28.879,150.446,29.952,155.358z"/>
			<g>
				<path fill="#F4F4F4" d="M121.708,51.789H13.285c-6.743,0-12.208,4.689-12.208,10.477V180.69c0,5.787,5.465,10.477,12.208,10.477
					h108.422c6.742,0,12.207-4.689,12.207-10.477V62.266C133.915,56.478,128.45,51.789,121.708,51.789z M19.384,163.051
					c-6.541,0-11.844-5.3-11.844-11.844c0-6.541,5.303-11.845,11.844-11.845c6.54,0,11.844,5.304,11.844,11.845
					C31.228,157.75,25.923,163.051,19.384,163.051z M115.944,163.051c-6.541,0-11.844-5.3-11.844-11.844
					c0-6.541,5.304-11.845,11.844-11.845s11.844,5.304,11.844,11.845C127.788,157.75,122.484,163.051,115.944,163.051z"/>
				<path fill="#CDCECD" d="M121.708,192.244H13.285C5.96,192.244,0,187.06,0,180.69V62.266c0-6.369,5.96-11.554,13.285-11.554
					h108.422c7.324,0,13.283,5.185,13.283,11.554V180.69C134.991,187.06,129.032,192.244,121.708,192.244z M13.285,52.866
					c-6.138,0-11.132,4.216-11.132,9.4V180.69c0,5.182,4.994,9.399,11.132,9.399h108.422c6.138,0,11.131-4.218,11.131-9.399V62.266
					c0-5.184-4.993-9.4-11.131-9.4H13.285L13.285,52.866z M115.944,164.127c-7.125,0-12.921-5.795-12.921-12.92
					s5.796-12.921,12.921-12.921s12.92,5.796,12.92,12.921C128.866,158.332,123.07,164.127,115.944,164.127z M115.944,140.438
					c-5.938,0-10.768,4.83-10.768,10.769c0,5.935,4.83,10.767,10.768,10.767s10.768-4.834,10.768-10.767
					C126.711,145.269,121.881,140.438,115.944,140.438z M19.384,164.127c-7.125,0-12.921-5.795-12.921-12.92
					s5.796-12.921,12.921-12.921s12.92,5.796,12.92,12.921S26.509,164.127,19.384,164.127z M19.384,140.438
					c-5.937,0-10.768,4.83-10.768,10.769c0,5.935,4.831,10.767,10.768,10.767s10.767-4.834,10.767-10.767
					C30.151,145.269,25.32,140.438,19.384,140.438z"/>
			</g>
		</g>
		<g name="pin_1_">
			<path fill="#9FA0A0" d="M42.132,226.541c-1.105,0-2-0.896-2-2V176.72c0-1.104,0.895-2,2-2c1.104,0,2,0.896,2,2v47.821
				C44.132,225.646,43.235,226.541,42.132,226.541z"/>
			<path fill="#9FA0A0" d="M59.132,226.541c-1.105,0-2-0.896-2-2V176.72c0-1.104,0.895-2,2-2c1.104,0,2,0.896,2,2v47.821
				C61.132,225.646,60.235,226.541,59.132,226.541z"/>
			<path fill="#9FA0A0" d="M76.131,226.541c-1.104,0-2-0.896-2-2V176.72c0-1.104,0.896-2,2-2s2,0.896,2,2v47.821
				C78.131,225.646,77.235,226.541,76.131,226.541z"/>
			<path fill="#9FA0A0" d="M93.131,226.541c-1.104,0-2-0.896-2-2V176.72c0-1.104,0.896-2,2-2s2,0.896,2,2v47.821
				C95.131,225.646,94.235,226.541,93.131,226.541z"/>
			<rect x="33.408" y="169.915" fill="#595757" width="68.03" height="13.609"/>
			<rect x="33.408" y="169.915" fill="#727171" width="2.404" height="13.609"/>
			<g>
				<rect x="48.111" y="169.915" fill="#3E3A39" width="2.404" height="13.609"/>
				<rect x="50.604" y="169.899" fill="#727171" width="2.404" height="13.61"/>
			</g>
			<g>
				<rect x="65.132" y="169.915" fill="#3E3A39" width="2.404" height="13.609"/>
				<rect x="67.624" y="169.899" fill="#727171" width="2.404" height="13.61"/>
			</g>
			<g>
				<rect x="82.151" y="169.915" fill="#3E3A39" width="2.404" height="13.609"/>
				<rect x="84.645" y="169.899" fill="#727171" width="2.404" height="13.61"/>
			</g>
			<g>
				<rect x="99.17" y="169.915" fill="#3E3A39" width="2.406" height="13.609"/>
			</g>
		</g>
		<g name="rgbled_x5F_text">
			<path fill="#231815" d="M45.76,155.601l-2.776,7.614h-1.093l-2.776-7.614h1.145l2.174,6.489h0.02l2.154-6.489H45.76z"/>
			<path fill="#231815" d="M62.429,163.215h-1.262c-0.064-0.2-0.11-0.496-0.137-0.89c-0.03-0.4-0.044-0.739-0.044-1.02
				c0-0.509-0.117-0.863-0.35-1.061c-0.233-0.197-0.569-0.298-1.007-0.298h-2.492v3.268h-1.028v-7.614h3.521
				c0.805,0,1.424,0.174,1.854,0.52c0.432,0.349,0.647,0.857,0.647,1.527c0,0.418-0.079,0.772-0.239,1.062
				c-0.158,0.289-0.432,0.542-0.822,0.762c0.341,0.127,0.572,0.299,0.696,0.514c0.124,0.216,0.195,0.522,0.218,0.918l0.062,1.377
				c0.007,0.221,0.034,0.381,0.081,0.481c0.045,0.106,0.146,0.198,0.302,0.285V163.215z M57.138,159.065h2.386
				c0.544,0,0.939-0.104,1.183-0.325c0.244-0.222,0.364-0.546,0.364-0.987c0-0.85-0.454-1.271-1.367-1.271h-2.565L57.138,159.065
				L57.138,159.065z"/>
			<path fill="#231815" d="M77.482,159.112c0.501,0.188,0.856,0.437,1.063,0.734c0.211,0.303,0.313,0.674,0.313,1.119
				c0,0.652-0.235,1.189-0.7,1.612c-0.466,0.422-1.095,0.637-1.887,0.637h-3.277v-7.614h3.352c0.665,0,1.188,0.18,1.574,0.543
				c0.386,0.357,0.578,0.821,0.578,1.375C78.499,158.263,78.159,158.791,77.482,159.112z M74.026,158.823h1.854
				c0.559,0,0.965-0.098,1.215-0.295c0.251-0.196,0.376-0.5,0.376-0.903c0-0.399-0.128-0.692-0.388-0.871
				c-0.258-0.185-0.654-0.272-1.19-0.272h-1.866V158.823z M74.026,162.335h2.194c0.517,0,0.913-0.124,1.192-0.368
				c0.278-0.243,0.418-0.583,0.418-1.022c0-0.854-0.595-1.281-1.781-1.281h-2.023V162.335z"/>
			<path fill="#231815" d="M95.93,163.215h-0.668l-0.245-0.985c-0.274,0.371-0.636,0.666-1.086,0.871
				c-0.449,0.211-0.923,0.313-1.42,0.313c-0.498,0-0.915-0.06-1.251-0.181c-0.336-0.118-0.633-0.283-0.891-0.494
				c-0.261-0.217-0.488-0.465-0.695-0.754c-0.204-0.293-0.357-0.592-0.461-0.908c-0.103-0.312-0.168-0.605-0.194-0.868
				c-0.031-0.267-0.044-0.555-0.044-0.868c0-1.087,0.326-2.015,0.975-2.787c0.652-0.771,1.528-1.156,2.631-1.156
				c0.791,0,1.498,0.222,2.121,0.666c0.621,0.441,0.988,1.057,1.102,1.851h-0.996c-0.133-0.536-0.398-0.94-0.794-1.202
				c-0.397-0.268-0.892-0.4-1.485-0.4c-0.727,0-1.326,0.281-1.792,0.836c-0.467,0.56-0.7,1.326-0.7,2.309
				c0,0.979,0.215,1.734,0.644,2.271c0.427,0.537,1.059,0.809,1.892,0.809c0.706,0,1.282-0.211,1.729-0.635
				c0.445-0.416,0.668-1.045,0.668-1.881h-2.373v-0.877h3.339v4.071H95.93z"/>
		</g>
	</g>
	<g name="color">
		<g name="bg">
			<g name="bg1">
				<g>
					<path name="bg1-path" fill="#C9CACA" d="M114.329,97.833c0-17.545-20.957-31.769-46.807-31.769
						c-25.852,0-46.807,14.223-46.807,31.769v7.731c0,17.546,20.955,31.773,46.807,31.773c25.85,0,46.807-14.227,46.807-31.773
						V97.833z"/>
					<path name="bg1-path1_1_" fill="#B5B5B6" d="M67.522,66.065c25.85,0,46.807,14.223,46.807,31.769v7.731
						c0,17.547-20.957,31.773-46.807,31.773c-25.852,0-46.807-14.226-46.807-31.773v-7.731
						C20.716,80.288,41.671,66.065,67.522,66.065 M67.522,64.065c-12.899,0-25.052,3.427-34.221,9.65
						c-9.406,6.384-14.586,14.95-14.586,24.119v7.731c0,9.17,5.18,17.737,14.586,24.122c9.168,6.225,21.321,9.651,34.221,9.651
						c12.898,0,25.051-3.428,34.221-9.651c9.405-6.385,14.586-14.951,14.586-24.122v-7.731c0-9.169-5.181-17.734-14.586-24.119
						C92.575,67.492,80.42,64.065,67.522,64.065L67.522,64.065z"/>
				</g>
				<path name="bg2-path" fill="#DCDDDD" d="M114.329,98.45c0,17.548-20.957,31.768-46.807,31.768
					c-25.852,0-46.807-14.22-46.807-31.768c0-17.547,20.955-31.769,46.807-31.769C93.372,66.681,114.329,80.903,114.329,98.45z"/>
				<path name="bg3-path3" fill="#9FA0A0" d="M106.625,97.831c0,14.66-17.508,26.544-39.104,26.544
					c-21.596,0-39.103-11.884-39.103-26.544c0-14.657,17.507-26.539,39.103-26.539C89.118,71.292,106.625,83.174,106.625,97.831z"/>
			</g>
			<g name="bg3" opacity="0.7">
				<polygon name="bg3-path2" fill="#727171" points="52.847,77.08 79.047,77.08 63.198,94.097 52.01,94.097 52.01,106.051 
					48.074,106.051 48.074,80.425 				"/>
				<polygon name="bg3-path1" fill="#727171" points="82.09,75.965 86.834,75.965 86.834,106.051 83.209,106.051 83.209,94.097 
					68.734,94.097 83.812,77.992 				"/>
			</g>
			<g name="bg2" opacity="0.5">
				<g name="group" opacity="0.5">
					<path name="bg2-path2_2_" fill="#FFFFFF" d="M107.051,80.488V42.029c0-21.831-17.698-39.529-39.528-39.529
						c-21.831,0-39.528,17.698-39.528,39.529v38.458c-4.586,4.912-7.278,10.717-7.278,16.962c0,17.548,20.955,31.768,46.807,31.768
						c25.85,0,46.807-14.22,46.807-31.768C114.329,91.206,111.636,85.4,107.051,80.488z"/>
				</g>
				<path fill="#9FA0A0" d="M108.551,79.506V41.029C108.551,18.406,90.146,0,67.522,0S26.494,18.406,26.494,41.029v37.874
					c-4.762,5.279-7.278,11.342-7.278,17.546c0,18.344,21.67,33.268,48.307,33.268c26.636,0,48.306-14.924,48.306-33.268
					C115.829,90.247,113.549,84.923,108.551,79.506z M67.522,127.718c-25.534,0-46.307-14.027-46.307-31.268
					c0-5.868,2.47-11.616,7.144-16.621l0.135-0.144V41.029C28.494,19.508,46.002,2,67.522,2c21.52,0,39.027,17.508,39.027,39.029
					v39.25l0.135,0.144c4.673,5.006,7.143,10.16,7.143,16.027C113.829,113.691,93.056,127.718,67.522,127.718z"/>
			</g>
		</g>
		<g name="rgbledColor" opacity="0">
			<g name="color2" opacity="0.5">
				<path name="rgbledColor2" fill="#231815" d="M107.051,80.488V42.029c0-21.831-17.698-39.529-39.528-39.529
					c-21.831,0-39.528,17.698-39.528,39.529v38.458c-4.586,4.912-7.278,10.717-7.278,16.962v10.413
					c1.73,16.476,22.091,29.476,46.807,29.476c25.042,0,45.551-13.343,46.807-30.134V97.45
					C114.329,91.206,111.636,85.4,107.051,80.488z"/>
			</g>
			<g name="color1" opacity="0.9">
				<path name="rgbledColor1" fill="#231815" d="M104.15,81.489V43.274c0-20.228-16.397-36.627-36.628-36.627
					c-20.228,0-36.628,16.4-36.628,36.627v38.213c-4.248,4.551-6.743,9.932-6.743,15.717c0,16.26,19.419,29.438,43.371,29.438
					c23.954,0,43.37-13.178,43.37-29.438C110.893,91.419,108.398,86.039,104.15,81.489z"/>
			</g>
		</g>
		<g name="ref" opacity="0.6">
			<path name="ref-path3" fill="#FFFFFF" d="M88.531,26.251l7.899-0.716c-3.953-6.554-10.208-11.658-17.944-13.944l0.806,5.969
				C83.264,19.418,86.465,22.507,88.531,26.251z"/>
			<path name="ref-path2" fill="#FFFFFF" d="M31.863,125.646c3.52,2.875,7.781,5.297,12.52,7.147v-7.226
				c-4.766-1.821-8.985-4.246-12.52-7.114V125.646z"/>
			<path name="ref-path1" fill="#FFFFFF" d="M87.758,117.944c-1.379,0.662-2.872,1.244-4.368,1.787
				c-0.323,0.104-0.636,0.215-0.97,0.307c-3.055,0.979-6.297,1.736-9.735,2.152c-0.401,0.051-0.815,0.105-1.22,0.105
				c-1.735,0.156-3.491,0.321-5.266,0.321c-0.804,0-1.663-0.087-2.562-0.128c-6.501-0.312-12.637-1.708-17.882-4.008V67.825V41.636
				c0-7.974,4.604-14.802,11.252-18.165l-0.12-0.292l-6.769-8.197C41.06,20.42,34.992,30.29,34.992,41.627v69.721
				c-0.274-0.262-1.679-1.668-2.606-2.873l-1.207,2.692c7.598,8.037,20.197,14.4,35.025,14.4c9.113,0,17.562-2.032,24.464-5.442
				l-2.85-2.217C87.758,117.944,87.758,117.944,87.758,117.944z"/>
		</g>
	</g>
	<g name="select" opacity="0">
		<path name="selectPath" fill="#FFFFFF" d="M134.991,65.679v-1.26v-2.154c0-6.369-5.957-11.554-13.283-11.554h-13.656v-8.682
			C108.051,19.681,89.87,1.5,67.522,1.5c-22.348,0-40.528,18.181-40.528,40.529v8.682H13.285C5.96,50.711,0,55.896,0,62.266v2.154
			V180.69v4.307c0,0.336,0.025,0.668,0.053,0.891v1.262c0,6.369,5.959,11.555,13.284,11.555h26.795v25.836c0,1.104,0.895,2,2,2
			c1.104,0,2-0.896,2-2v-25.836h13v25.836c0,1.104,0.895,2,2,2c1.104,0,2-0.896,2-2v-25.836h13v25.836c0,1.104,0.896,2,2,2
			s2-0.896,2-2v-25.836h13v25.836c0,1.104,0.896,2,2,2s2-0.896,2-2v-25.836h26.627c7.326,0,13.287-5.186,13.287-11.555V66.573
			C135.043,66.236,135.019,65.903,134.991,65.679z M29.678,154.356c-1.351,4.402-5.454,7.617-10.294,7.617
			c-4.774,0-8.827-3.127-10.234-7.437c1.354-4.496,5.48-7.638,10.287-7.638C24.138,146.899,28.262,149.972,29.678,154.356z
			 M126.239,154.356c-1.351,4.402-5.453,7.617-10.294,7.617c-4.772,0-8.827-3.127-10.233-7.438
			c1.353-4.496,5.479-7.637,10.285-7.637C120.698,146.899,124.823,149.972,126.239,154.356z"/>
	</g>
	<g name="pinGroup" opacity="0">
		<rect name="vcc" x="38.125" y="218.54" fill="#E60012" width="8" height="8"/>
		<rect name="r" x="54.746" y="218.54" fill="#E60012" width="8" height="8"/>
		<rect name="b" x="72.125" y="218.54" fill="#E60012" width="7.998" height="8"/>
		<rect name="g" x="89.125" y="218.54" fill="#E60012" width="7.998" height="8"/>
	</g>
</g>
</svg>
