<?xml version="1.0" encoding="utf-8"?>
<!-- Generator: Adobe Illustrator 16.0.0, SVG Export Plug-In . SVG Version: 6.00 Build 0)  -->
<!DOCTYPE svg PUBLIC "-//W3C//DTD SVG 1.1//EN" "http://www.w3.org/Graphics/SVG/1.1/DTD/svg11.dtd">
<svg version="1.1" name="layer" xmlns="http://www.w3.org/2000/svg" xmlns:xlink="http://www.w3.org/1999/xlink" x="0px" y="0px"
	 width="81.172px" height="262.59px" viewBox="0 0 81.172 262.59" enable-background="new 0 0 81.172 262.59" xml:space="preserve">
<g name="servo">
	<g name="selected" opacity="0">
		<path name="selectPath" stroke="#33bbff" stroke-width="5" d="M70.301,25.492H44.459c-0.382,0-0.692,0.311-0.692,0.692v0.447
			c0,0.994,0.531,1.886,1.348,2.455c2.185,1.516,3.662,3.976,3.835,6.792c0.302,4.912-3.88,9.436-8.805,9.507
			c-0.042,0-0.087,0.002-0.135,0.002c-4.943,0-8.95-4.007-8.95-8.952c0-3.054,1.532-5.744,3.869-7.358
			c0.815-0.562,1.336-1.455,1.336-2.44v-0.45c0-0.38-0.312-0.692-0.692-0.692H9.738c-1.52,0-2.753,1.233-2.753,2.753v20.645v128.88
			v20.646c0,1.52,1.233,2.754,2.753,2.754h22.769v4.877c0,4.918-0.995,7.588-2.146,10.68c-0.962,2.585-2.015,5.431-2.531,9.736
			h-7.002c-0.778,0-1.407,0.523-1.407,1.168v20.734v12.496c0,0.646,0.629,1.168,1.407,1.168h40.811c0.776,0,1.407-0.521,1.407-1.168
			v-12.496v-20.734c0-0.645-0.631-1.168-1.407-1.168h-9.43c-0.498-4.712-1.543-8.34-2.498-11.643
			c-1.136-3.918-2.204-7.619-2.204-12.635v-1.016h22.796c1.521,0,2.753-1.234,2.753-2.754V28.244
			C73.053,26.726,71.822,25.492,70.301,25.492z M32.507,185.546v9.519c-0.808-1.249-1.322-2.704-1.419-4.28
			C30.973,188.905,31.518,187.084,32.507,185.546z M48.976,190.229c0,1.808-0.546,3.481-1.469,4.887v-9.793
			C48.433,186.732,48.976,188.417,48.976,190.229z M37.507,206.048v19.283v1.133h-4.636c0.043-0.305,0.088-0.604,0.136-0.893
			c0,0,0,0-0.001,0c0.491-2.927,1.274-5.037,2.042-7.1C36.257,215.224,37.507,211.864,37.507,206.048z M47.177,226.464h-4.67v-0.973
			V202.19c0,5.723,1.217,9.941,2.4,14.023c0.807,2.787,1.629,5.637,2.128,9.121c-0.001,0-0.001,0-0.001,0
			C47.086,225.702,47.133,226.081,47.177,226.464z"/>
	</g>
	<g name="body">
		<g name="servoLine">
			<rect x="37.507" y="141.381" fill="#9B1B1B" width="5" height="90.833"/>
			<path fill="#D37637" d="M32.507,141.381h5v64.667c0,5.816-1.25,9.176-2.459,12.424c-1.248,3.354-2.541,6.824-2.541,13.742h-5
				c0-7.818,1.518-11.896,2.854-15.486c1.15-3.092,2.146-5.762,2.146-10.68V141.381z"/>
			<path fill="#66382D" d="M42.507,141.381h5v60.806c0,5.016,1.068,8.717,2.204,12.635c1.312,4.533,2.796,9.67,2.796,17.396h-5
				c0-7.018-1.321-11.586-2.6-16.004c-1.184-4.082-2.4-8.301-2.4-14.023V141.381z"/>
			<rect x="37.507" y="141.381" fill="#FF0000" width="5" height="90.833"/>
			<path fill="#FF9700" d="M32.507,141.381h5v64.667c0,5.816-1.25,9.176-2.459,12.424c-1.248,3.354-2.541,6.824-2.541,13.742h-5
				c0-7.818,1.518-11.896,2.854-15.486c1.15-3.092,2.146-5.762,2.146-10.68V141.381z"/>
			<path d="M42.507,141.381h5v60.806c0,5.016,1.068,8.717,2.204,12.635c1.312,4.533,2.796,9.67,2.796,17.396h-5
				c0-7.018-1.321-11.586-2.6-16.004c-1.184-4.082-2.4-8.301-2.4-14.023V141.381z"/>
		</g>
		<g name="servoBody">
			<path fill="none" stroke="#3B8ED7" stroke-width="3" stroke-linecap="round" stroke-linejoin="round" d="M70.301,25.492H44.459
				c-0.382,0-0.692,0.311-0.692,0.692v0.447c0,0.994,0.531,1.886,1.348,2.455c2.185,1.516,3.662,3.976,3.835,6.792
				c0.302,4.912-3.88,9.436-8.805,9.507c-0.042,0-0.087,0.002-0.135,0.002c-4.943,0-8.95-4.007-8.95-8.952
				c0-3.054,1.532-5.744,3.869-7.358c0.815-0.562,1.336-1.455,1.336-2.44v-0.45c0-0.38-0.312-0.692-0.692-0.692H9.738
				c-1.52,0-2.753,1.233-2.753,2.753v170.171c0,1.52,1.233,2.754,2.753,2.754h25.84c0.38,0,0.692-0.311,0.692-0.691v-0.445
				c0-0.996-0.531-1.887-1.349-2.453c-2.185-1.52-3.661-3.977-3.834-6.797c-0.302-4.908,3.88-9.434,8.803-9.504
				c0.044,0,0.089-0.002,0.134-0.002c4.944,0,8.951,4.008,8.951,8.951c0,3.055-1.53,5.746-3.869,7.359
				c-0.812,0.561-1.333,1.453-1.333,2.439v0.449c0,0.383,0.31,0.693,0.693,0.693h25.836c1.521,0,2.753-1.234,2.753-2.754V28.244
				C73.053,26.726,71.822,25.492,70.301,25.492L70.301,25.492z"/>
			<path fill="#2786CC" d="M46.53,199.106c2.825-2.072,4.502-5.365,4.502-8.873c0-6.076-4.941-11.018-11.016-11.018l-0.163,0.002
				c-2.9,0.039-5.761,1.35-7.835,3.592c-2.084,2.244-3.175,5.197-2.995,8.104c0.201,3.283,1.831,6.25,4.484,8.193H9.738
				c-0.377,0-0.688-0.311-0.688-0.689V28.244c0-0.377,0.311-0.688,0.688-0.688H33.51c-2.83,2.074-4.504,5.368-4.504,8.875
				c0,2.943,1.146,5.707,3.225,7.79c2.084,2.082,4.847,3.228,7.79,3.228l0.163-0.001c2.904-0.042,5.762-1.35,7.837-3.593
				c2.081-2.247,3.173-5.196,2.995-8.106c-0.201-3.28-1.834-6.249-4.484-8.192h23.771c0.379,0,0.688,0.311,0.688,0.688v170.173
				c0,0.379-0.31,0.689-0.688,0.689H46.53L46.53,199.106z"/>
			<path fill="#1A5C89" d="M68.925,197.04h-15.85v-19.27H26.94v19.27H11.114V30.998c0-0.76,0.617-1.377,1.377-1.377H26.94v19.271
				l26.136-0.001v-19.27h14.473c0.761,0,1.377,0.617,1.377,1.377V197.04z M70.301,25.492H44.459c-0.382,0-0.692,0.311-0.692,0.692
				v0.447c0,0.994,0.531,1.886,1.348,2.455c2.185,1.516,3.662,3.976,3.835,6.792c0.302,4.912-3.88,9.436-8.805,9.507
				c-0.042,0-0.087,0.002-0.135,0.002c-4.943,0-8.95-4.007-8.95-8.952c0-3.054,1.532-5.744,3.869-7.358
				c0.815-0.562,1.336-1.455,1.336-2.44v-0.45c0-0.38-0.312-0.692-0.692-0.692H9.738c-1.52,0-2.753,1.233-2.753,2.753v170.171
				c0,1.52,1.233,2.754,2.753,2.754h25.84c0.38,0,0.692-0.311,0.692-0.691v-0.445c0-0.996-0.531-1.887-1.349-2.453
				c-2.185-1.52-3.661-3.977-3.834-6.797c-0.302-4.908,3.88-9.434,8.803-9.504c0.044,0,0.089-0.002,0.134-0.002
				c4.944,0,8.951,4.008,8.951,8.951c0,3.055-1.53,5.746-3.869,7.359c-0.812,0.561-1.333,1.453-1.333,2.439v0.449
				c0,0.383,0.31,0.693,0.693,0.693h25.836c1.521,0,2.753-1.234,2.753-2.754V28.244C73.053,26.726,71.822,25.492,70.301,25.492
				L70.301,25.492z"/>
			<circle opacity="0.1" fill="#F4F5F6" enable-background="new    " cx="18.9" cy="39.557" r="4.774"/>
			<circle opacity="0.1" fill="#F4F5F6" enable-background="new    " cx="60.88" cy="39.557" r="4.774"/>
			<circle opacity="0.1" fill="#F4F5F6" enable-background="new    " cx="18.9" cy="186.837" r="4.775"/>
			<circle opacity="0.1" fill="#F4F5F6" enable-background="new    " cx="60.88" cy="186.837" r="4.775"/>
			<path fill="#71B8FF" d="M63.208,120.446c0-0.206-0.012-0.408-0.017-0.615l1.317-0.166c-0.015-0.508-0.045-1.012-0.088-1.514
				h-1.328c-0.038-0.409-0.089-0.819-0.15-1.225l1.286-0.328c-0.082-0.503-0.177-1.001-0.287-1.488l-1.316,0.166
				c-0.086-0.401-0.196-0.799-0.307-1.193l1.234-0.488c-0.143-0.487-0.295-0.967-0.465-1.443l-1.286,0.332
				c-0.14-0.389-0.292-0.77-0.457-1.146l1.166-0.639c-0.2-0.464-0.421-0.92-0.649-1.369l-1.234,0.487
				c-0.188-0.366-0.384-0.724-0.593-1.077l1.074-0.782c-0.26-0.434-0.526-0.863-0.812-1.28l-1.167,0.641
				c-0.234-0.338-0.476-0.668-0.723-0.994l0.968-0.907c-0.316-0.399-0.632-0.788-0.968-1.172l-1.071,0.781
				c-0.272-0.308-0.553-0.607-0.841-0.899l0.847-1.023c-0.356-0.359-0.729-0.701-1.107-1.036l-0.968,0.911
				c-0.31-0.269-0.625-0.532-0.947-0.784l0.714-1.12c-0.401-0.311-0.807-0.609-1.224-0.894l-0.847,1.021
				c-0.342-0.229-0.688-0.447-1.04-0.66l0.562-1.2c-0.434-0.259-0.878-0.498-1.328-0.729l-0.712,1.12
				c-0.366-0.185-0.736-0.364-1.114-0.528l0.412-1.267c-0.462-0.2-0.934-0.384-1.406-0.558l-0.565,1.205
				c-0.383-0.139-0.775-0.263-1.174-0.379l0.249-1.304c-0.482-0.141-0.973-0.263-1.464-0.374l-0.413,1.268
				c-0.398-0.084-0.802-0.163-1.21-0.231l0.085-1.326c-0.494-0.081-1-0.142-1.502-0.189l-0.252,1.306
				c-0.407-0.034-0.815-0.062-1.229-0.076l-0.087-1.325c-0.252-0.003-0.5-0.017-0.758-0.017c-0.254,0-0.507,0.014-0.758,0.021
				l-0.083,1.324c-0.414,0.015-0.823,0.04-1.23,0.076l-0.246-1.305c-0.507,0.045-1.008,0.107-1.504,0.187l0.084,1.327
				c-0.407,0.066-0.81,0.144-1.21,0.229l-0.408-1.262c-0.495,0.11-0.984,0.238-1.469,0.374l0.251,1.303
				c-0.395,0.115-0.785,0.242-1.175,0.379l-0.565-1.204c-0.477,0.172-0.943,0.359-1.404,0.559l0.41,1.265
				c-0.377,0.165-0.747,0.341-1.114,0.528l-0.714-1.12c-0.449,0.231-0.893,0.475-1.326,0.729l0.564,1.2
				c-0.355,0.21-0.705,0.43-1.044,0.658l-0.844-1.021c-0.422,0.285-0.826,0.587-1.226,0.893l0.713,1.122
				c-0.323,0.253-0.64,0.515-0.948,0.782l-0.966-0.908c-0.376,0.333-0.752,0.674-1.109,1.034l0.849,1.023
				c-0.29,0.294-0.569,0.596-0.841,0.898l-1.068-0.777c-0.335,0.378-0.658,0.768-0.966,1.168l0.967,0.908
				c-0.253,0.323-0.494,0.655-0.727,0.994l-1.166-0.643c-0.284,0.418-0.552,0.845-0.812,1.281l1.075,0.781
				c-0.204,0.354-0.404,0.713-0.595,1.078l-1.233-0.488c-0.229,0.449-0.444,0.904-0.65,1.369l1.162,0.641
				c-0.158,0.377-0.314,0.758-0.456,1.145l-1.283-0.33c-0.169,0.475-0.324,0.955-0.464,1.443l1.234,0.487
				c-0.113,0.394-0.212,0.792-0.307,1.193l-1.319-0.167c-0.11,0.488-0.206,0.988-0.287,1.488l1.286,0.33
				c-0.062,0.404-0.11,0.812-0.151,1.225h-1.324c-0.047,0.498-0.077,1.003-0.091,1.512l1.319,0.168
				c-0.006,0.204-0.017,0.408-0.017,0.614c0,0.205,0.011,0.409,0.017,0.615l-1.319,0.165c0.018,0.506,0.045,1.012,0.091,1.514h1.324
				c0.041,0.411,0.089,0.819,0.151,1.225l-1.282,0.329c0.079,0.502,0.177,0.996,0.286,1.487l1.318-0.166
				c0.091,0.402,0.195,0.799,0.307,1.193l-1.233,0.486c0.14,0.488,0.295,0.969,0.464,1.445l1.283-0.33
				c0.143,0.387,0.295,0.768,0.456,1.146l-1.161,0.638c0.202,0.467,0.419,0.92,0.649,1.37l1.233-0.489
				c0.188,0.365,0.387,0.725,0.595,1.079l-1.075,0.782c0.258,0.432,0.529,0.862,0.812,1.279l1.166-0.641
				c0.233,0.338,0.476,0.668,0.728,0.993l-0.968,0.907c0.311,0.4,0.632,0.789,0.966,1.168l1.071-0.777
				c0.272,0.307,0.553,0.604,0.841,0.896l-0.849,1.026c0.357,0.359,0.73,0.7,1.109,1.033l0.967-0.908
				c0.311,0.269,0.625,0.533,0.948,0.783l-0.713,1.121c0.399,0.311,0.804,0.607,1.225,0.893l0.845-1.025
				c0.338,0.229,0.688,0.449,1.042,0.659l-0.564,1.2c0.432,0.258,0.876,0.496,1.326,0.729l0.713-1.121
				c0.369,0.186,0.738,0.361,1.115,0.527l-0.41,1.266c0.463,0.201,0.93,0.387,1.404,0.56l0.565-1.204
				c0.386,0.137,0.778,0.262,1.177,0.379l-0.253,1.3c0.485,0.145,0.974,0.265,1.469,0.376l0.408-1.262
				c0.399,0.086,0.803,0.164,1.21,0.229l-0.083,1.327c0.493,0.08,0.997,0.142,1.503,0.188l0.249-1.307
				c0.407,0.035,0.816,0.062,1.23,0.076l0.082,1.326c0.252,0.004,0.504,0.02,0.758,0.02c0.256,0,0.506-0.016,0.757-0.02l0.084-1.326
				c0.416-0.016,0.825-0.039,1.232-0.076l0.252,1.307c0.5-0.046,1.003-0.111,1.502-0.188l-0.085-1.327
				c0.406-0.065,0.812-0.144,1.208-0.229l0.413,1.262c0.492-0.111,0.984-0.236,1.465-0.376l-0.248-1.3
				c0.396-0.115,0.786-0.244,1.173-0.379l0.566,1.204c0.474-0.173,0.946-0.358,1.407-0.56l-0.412-1.266
				c0.374-0.166,0.747-0.342,1.114-0.528l0.712,1.12c0.45-0.23,0.893-0.475,1.328-0.728l-0.562-1.2
				c0.353-0.213,0.699-0.43,1.041-0.66l0.847,1.023c0.417-0.285,0.824-0.587,1.225-0.894l-0.717-1.12
				c0.32-0.254,0.641-0.515,0.947-0.785l0.968,0.91c0.379-0.336,0.752-0.674,1.107-1.033l-0.848-1.025
				c0.291-0.293,0.568-0.592,0.842-0.896l1.069,0.777c0.337-0.375,0.657-0.768,0.968-1.167l-0.968-0.909
				c0.252-0.324,0.49-0.654,0.724-0.993l1.167,0.642c0.285-0.417,0.549-0.846,0.812-1.281l-1.072-0.782
				c0.204-0.354,0.404-0.714,0.597-1.079l1.232,0.49c0.229-0.449,0.444-0.904,0.647-1.37l-1.161-0.642
				c0.16-0.375,0.315-0.757,0.457-1.144l1.282,0.329c0.169-0.475,0.323-0.953,0.469-1.443l-1.233-0.487
				c0.111-0.395,0.213-0.792,0.306-1.194l1.316,0.167c0.111-0.491,0.206-0.986,0.287-1.487l-1.285-0.33
				c0.062-0.405,0.11-0.812,0.152-1.225h1.326c0.045-0.499,0.074-1.005,0.087-1.516l-1.317-0.164
				C63.197,120.853,63.208,120.651,63.208,120.446z"/>
			<path fill="#1A5C89" d="M73.053,48.891H6.985v128.88h66.068V48.891z M68.232,168.517c-2.419,0-4.382,1.959-4.382,4.379
				c0,0.258,0.03,0.506,0.076,0.75h-47.93c0.043-0.244,0.079-0.49,0.079-0.75c0-2.42-1.963-4.379-4.384-4.379
				c-0.197,0-0.383,0.031-0.575,0.057V57.911c0.192,0.025,0.378,0.058,0.575,0.058c2.419,0,4.384-1.963,4.384-4.383
				c0-0.194-0.033-0.377-0.056-0.566H63.96c-0.026,0.189-0.056,0.373-0.056,0.566c0,2.419,1.962,4.383,4.383,4.383
				c0.22,0,0.432-0.033,0.644-0.067v110.685C68.698,168.548,68.469,168.517,68.232,168.517z"/>
			<path fill="#2589CC" d="M40.312,53.586h-0.585c-15.995,0-28.962,12.967-28.962,28.963v0.584c0,10.923,6.053,20.41,14.981,25.341
				c2.854,1.577,4.612,4.591,4.612,7.85v5.534c0,5.286,4.281,9.566,9.565,9.566h0.194c5.284,0,9.567-4.28,9.567-9.566v-5.534
				c0-3.259,1.755-6.273,4.612-7.85c8.926-4.929,14.981-14.42,14.981-25.341v-0.584C69.274,66.554,56.307,53.586,40.312,53.586z"/>
			<path fill="none" stroke="#1A5C89" stroke-width="3" stroke-miterlimit="10" d="M40.312,53.586h-0.585
				c-15.995,0-28.962,12.967-28.962,28.963v0.584c0,10.923,6.053,20.41,14.981,25.341c2.854,1.577,4.612,4.591,4.612,7.85v5.534
				c0,5.286,4.281,9.566,9.565,9.566h0.194c5.284,0,9.567-4.28,9.567-9.566v-5.534c0-3.259,1.755-6.273,4.612-7.85
				c8.926-4.929,14.981-14.42,14.981-25.341v-0.584C69.274,66.554,56.307,53.586,40.312,53.586z"/>
			<circle opacity="0.8" fill="#113F59" enable-background="new    " cx="39.996" cy="121.642" r="1.957"/>
			<path fill="#71B8FF" d="M64.929,82.594c0-0.221-0.013-0.44-0.02-0.661l1.414-0.179c-0.018-0.544-0.045-1.087-0.096-1.625h-1.423
				c-0.04-0.44-0.095-0.88-0.159-1.314l1.379-0.355c-0.084-0.542-0.193-1.07-0.312-1.599l-1.411,0.179
				c-0.1-0.431-0.21-0.859-0.328-1.282l1.326-0.526c-0.15-0.525-0.315-1.042-0.496-1.55l-1.38,0.356
				c-0.149-0.419-0.315-0.829-0.488-1.234l1.248-0.686c-0.216-0.497-0.45-0.988-0.698-1.47l-1.326,0.527
				c-0.202-0.393-0.414-0.779-0.638-1.16l1.157-0.839c-0.279-0.468-0.567-0.927-0.872-1.375l-1.251,0.689
				c-0.252-0.364-0.511-0.72-0.778-1.068l1.04-0.976c-0.334-0.43-0.68-0.846-1.038-1.255l-1.152,0.838
				c-0.295-0.33-0.598-0.652-0.903-0.965l0.91-1.101c-0.381-0.384-0.783-0.75-1.19-1.111l-1.04,0.978
				c-0.331-0.292-0.67-0.572-1.017-0.842l0.764-1.206c-0.43-0.333-0.864-0.657-1.312-0.963l-0.905,1.099
				c-0.37-0.246-0.739-0.482-1.118-0.708l0.604-1.291c-0.465-0.274-0.944-0.537-1.425-0.783l-0.763,1.204
				c-0.396-0.201-0.794-0.387-1.197-0.565l0.437-1.359c-0.493-0.213-1-0.416-1.511-0.602l-0.608,1.291
				c-0.414-0.144-0.831-0.283-1.259-0.407l0.267-1.4c-0.519-0.15-1.046-0.285-1.577-0.404l-0.441,1.36
				c-0.429-0.093-0.863-0.179-1.298-0.249l0.088-1.426c-0.532-0.084-1.07-0.146-1.616-0.201l-0.268,1.404
				c-0.437-0.036-0.878-0.066-1.321-0.081l-0.089-1.421c-0.267-0.009-0.542-0.021-0.813-0.021c-0.273,0-0.544,0.012-0.813,0.021
				l-0.089,1.421c-0.441,0.017-0.885,0.042-1.322,0.081l-0.264-1.404c-0.545,0.051-1.083,0.117-1.615,0.199l0.087,1.426
				c-0.435,0.07-0.87,0.154-1.3,0.249l-0.438-1.354c-0.533,0.118-1.061,0.255-1.578,0.405l0.269,1.399
				c-0.425,0.127-0.844,0.262-1.258,0.408l-0.609-1.291c-0.51,0.185-1.012,0.384-1.513,0.601l0.442,1.359
				c-0.406,0.177-0.803,0.369-1.197,0.565l-0.764-1.204c-0.486,0.248-0.96,0.508-1.426,0.784l0.603,1.291
				c-0.376,0.227-0.753,0.462-1.118,0.708l-0.908-1.099c-0.45,0.307-0.885,0.629-1.314,0.962l0.764,1.206
				c-0.347,0.272-0.687,0.553-1.015,0.842l-1.043-0.977c-0.405,0.359-0.806,0.724-1.188,1.111l0.913,1.101
				c-0.314,0.315-0.611,0.636-0.904,0.965l-1.153-0.836c-0.363,0.407-0.707,0.826-1.038,1.252l1.039,0.976
				c-0.268,0.352-0.529,0.708-0.78,1.068l-1.253-0.689c-0.304,0.447-0.593,0.907-0.869,1.374l1.156,0.839
				c-0.222,0.378-0.432,0.768-0.639,1.16l-1.325-0.527c-0.247,0.485-0.48,0.972-0.698,1.47l1.249,0.686
				c-0.172,0.405-0.337,0.815-0.49,1.233l-1.379-0.356c-0.184,0.507-0.347,1.025-0.499,1.55l1.33,0.527
				c-0.125,0.422-0.23,0.848-0.328,1.282l-1.417-0.18c-0.119,0.527-0.223,1.061-0.309,1.599l1.379,0.356
				c-0.067,0.432-0.12,0.871-0.165,1.313H13.81c-0.05,0.538-0.082,1.08-0.098,1.626l1.417,0.178
				c-0.005,0.221-0.018,0.44-0.018,0.661c0,0.222,0.011,0.439,0.018,0.66l-1.417,0.18c0.021,0.545,0.048,1.087,0.098,1.626h1.421
				c0.044,0.439,0.097,0.88,0.164,1.315l-1.379,0.355c0.084,0.537,0.191,1.069,0.309,1.597l1.416-0.179
				c0.098,0.429,0.205,0.858,0.328,1.281l-1.33,0.526c0.151,0.523,0.317,1.04,0.499,1.549l1.379-0.354
				c0.153,0.416,0.317,0.827,0.49,1.232l-1.248,0.686c0.217,0.498,0.451,0.989,0.698,1.47l1.326-0.528
				c0.204,0.393,0.415,0.778,0.638,1.16l-1.156,0.839c0.276,0.468,0.565,0.928,0.87,1.375l1.253-0.689
				c0.253,0.363,0.511,0.716,0.78,1.065l-1.039,0.976c0.33,0.43,0.676,0.848,1.038,1.254l1.149-0.835
				c0.293,0.326,0.594,0.651,0.904,0.964l-0.913,1.103c0.381,0.381,0.782,0.75,1.188,1.11l1.043-0.977
				c0.33,0.291,0.668,0.569,1.017,0.842l-0.764,1.207c0.43,0.332,0.863,0.654,1.315,0.961l0.907-1.101
				c0.364,0.249,0.74,0.484,1.117,0.71l-0.603,1.291c0.465,0.274,0.941,0.536,1.423,0.783l0.767-1.205
				c0.394,0.198,0.792,0.387,1.196,0.565l-0.443,1.356c0.5,0.215,1.002,0.417,1.514,0.602l0.607-1.293
				c0.416,0.147,0.833,0.283,1.26,0.406l-0.269,1.404c0.52,0.146,1.046,0.284,1.578,0.404l0.439-1.355
				c0.428,0.093,0.862,0.176,1.299,0.249l-0.086,1.425c0.532,0.084,1.069,0.148,1.614,0.199l0.268-1.404
				c0.436,0.039,0.88,0.067,1.319,0.084l0.089,1.42c0.271,0.01,0.543,0.023,0.813,0.023c0.272,0,0.545-0.014,0.813-0.023l0.091-1.42
				c0.443-0.018,0.882-0.043,1.319-0.084l0.269,1.404c0.541-0.049,1.077-0.116,1.613-0.199l-0.089-1.426
				c0.436-0.074,0.87-0.154,1.299-0.25l0.438,1.355c0.535-0.118,1.059-0.258,1.578-0.404l-0.267-1.402
				c0.428-0.125,0.844-0.259,1.26-0.408l0.609,1.294c0.51-0.185,1.011-0.385,1.51-0.603l-0.438-1.358
				c0.405-0.177,0.803-0.368,1.194-0.564l0.765,1.206c0.485-0.25,0.959-0.508,1.429-0.785l-0.605-1.291
				c0.376-0.225,0.751-0.463,1.118-0.709l0.904,1.099c0.448-0.306,0.886-0.628,1.313-0.959l-0.767-1.207
				c0.348-0.272,0.687-0.552,1.019-0.842l1.041,0.978c0.406-0.361,0.807-0.727,1.191-1.112l-0.911-1.103
				c0.31-0.312,0.606-0.636,0.9-0.963l1.153,0.837c0.362-0.406,0.706-0.826,1.04-1.254l-1.042-0.976
				c0.266-0.349,0.531-0.705,0.778-1.065l1.251,0.689c0.306-0.448,0.593-0.907,0.872-1.375l-1.157-0.84
				c0.221-0.378,0.434-0.766,0.637-1.159l1.328,0.528c0.249-0.483,0.484-0.972,0.697-1.471l-1.246-0.686
				c0.175-0.406,0.339-0.815,0.489-1.232l1.38,0.355c0.184-0.51,0.346-1.027,0.497-1.55l-1.326-0.525
				c0.118-0.423,0.229-0.85,0.324-1.282l1.413,0.179c0.12-0.528,0.22-1.062,0.312-1.598l-1.381-0.354
				c0.072-0.434,0.122-0.874,0.163-1.313h1.423c0.048-0.538,0.082-1.079,0.096-1.626l-1.406-0.182
				C64.918,83.032,64.929,82.816,64.929,82.594z"/>
		</g>
		<g name="pinMode">
			<path fill-opacity="0.3" d="M42.507,225.491c-0.417,0.115-1.398,0.291-2.5,0.279c-1.367-0.016-2.176-0.309-2.5-0.439v2.09
				c0.002,0.049,0.006,0.102,0.006,0.146l4.887,0.547c0.012-0.297,0.061-0.641,0.107-0.994V225.491z"/>
			<path fill-opacity="0.3" d="M47.035,225.335c0.125,0.879,0.229,1.803,0.308,2.771l4.854-0.729c0,0,0.035-0.152,0.062-0.408
				c-0.061-0.605-0.127-1.189-0.201-1.76c-0.354,0.146-1.15,0.309-2.224,0.4C48.488,225.728,47.447,225.438,47.035,225.335z"/>
			<path fill-opacity="0.3" d="M27.76,227.067c0.021,0.104,0.033,0.219,0.081,0.309l4.891,0.229
				c0.074-0.723,0.169-1.395,0.275-2.033c-0.43,0.186-1.407,0.182-2.562,0.162c-1.282-0.018-2.138-0.273-2.462-0.4
				C27.899,225.884,27.822,226.458,27.76,227.067z"/>
			<path fill="#404040" d="M20.829,262.03h40.811c0.776,0,1.407-0.521,1.407-1.168v-33.23c0-0.645-0.631-1.168-1.407-1.168H20.829
				c-0.778,0-1.407,0.523-1.407,1.168v33.23C19.422,261.509,20.051,262.03,20.829,262.03z"/>
			<path fill="#404040" d="M20.829,262.03h40.811c0.776,0,1.407-0.521,1.407-1.168v-12.496H19.422v12.496
				C19.422,261.509,20.051,262.03,20.829,262.03z"/>
			
				<line fill="none" stroke="#333333" stroke-linecap="round" stroke-miterlimit="10" x1="59.393" y1="237.284" x2="23.073" y2="237.284"/>
			<rect x="35.38" y="244.247" fill="#FF0000" width="11.449" height="1.977"/>
			<rect x="21.38" y="244.247" fill="#FF9700" width="11.449" height="1.977"/>
			<rect x="49.381" y="244.247" fill="#707070" width="11.448" height="1.977"/>
			<rect x="23.818" y="250.806" width="6.587" height="6.592"/>
			<polygon fill="#2A2A29" points="21.38,248.378 23.808,250.806 30.401,250.806 32.83,248.378 			"/>
			<polygon fill="#474747" points="32.83,248.378 30.401,250.813 30.401,257.403 32.83,259.823 			"/>
			<polygon fill="#595959" points="32.83,259.823 30.395,257.403 23.808,257.403 21.38,259.823 			"/>
			<polygon fill="#373737" points="21.376,259.823 23.808,257.397 23.808,250.806 21.376,248.378 			"/>
			<rect x="37.818" y="250.806" width="6.586" height="6.592"/>
			<polygon fill="#2A2A29" points="35.38,248.378 37.808,250.806 44.4,250.806 46.83,248.378 			"/>
			<polygon fill="#474747" points="46.83,248.378 44.4,250.813 44.4,257.403 46.83,259.823 			"/>
			<polygon fill="#595959" points="46.83,259.823 44.394,257.403 37.808,257.403 35.38,259.823 			"/>
			<polygon fill="#373737" points="35.376,259.823 37.808,257.397 37.808,250.806 35.376,248.378 			"/>
			<rect x="51.818" y="250.806" width="6.586" height="6.592"/>
			<polygon fill="#2A2A29" points="49.379,248.378 51.807,250.806 58.4,250.806 60.83,248.378 			"/>
			<polygon fill="#474747" points="60.83,248.378 58.4,250.813 58.4,257.403 60.83,259.823 			"/>
			<polygon fill="#595959" points="60.83,259.823 58.394,257.403 51.807,257.403 49.379,259.823 			"/>
			<polygon fill="#373737" points="49.375,259.823 51.807,257.397 51.807,250.806 49.375,248.378 			"/>
		</g>
	</g>
	<g name="servoBorn">
		<g>
			<path fill="#EFEFEF" d="M49.416,155.745l3.175-57.475c0.255-3.149,2.884-5.577,6.041-5.577h10.193
				c5.527,0,10.35-4.261,10.517-9.787c0.17-5.718-4.412-10.408-10.095-10.408H58.95c-3.172,0-5.804-2.446-6.041-5.607
				c-1.645-21.934-3.49-57.456-3.49-57.456s-0.144-8.734-9.396-8.734c-9.252,0-9.396,8.741-9.396,8.741S28.781,44.96,27.136,66.89
				c-0.237,3.162-2.867,5.607-6.04,5.607h-9.874c-5.527,0-10.351,4.261-10.517,9.786c-0.171,5.719,4.413,10.41,10.093,10.41h10.614
				c3.159,0,5.789,2.426,6.038,5.577l3.174,57.485c0,0,0.205,8.732,9.396,8.732C49.211,164.487,49.416,155.745,49.416,155.745z
				 M37.871,8.354c0-1.188,0.965-2.151,2.151-2.151c1.188,0,2.15,0.965,2.15,2.151s-0.963,2.151-2.15,2.151
				C38.835,10.507,37.871,9.543,37.871,8.354z M37.871,17.091c0-1.189,0.965-2.151,2.151-2.151c1.188,0,2.15,0.966,2.15,2.151
				c0,1.188-0.963,2.15-2.15,2.15C38.835,19.243,37.871,18.281,37.871,17.091z M37.871,25.827c0-1.188,0.965-2.15,2.151-2.15
				c1.188,0,2.15,0.964,2.15,2.15s-0.963,2.151-2.15,2.151C38.835,27.979,37.871,27.018,37.871,25.827z M37.871,34.565
				c0-1.188,0.965-2.15,2.151-2.15c1.188,0,2.15,0.963,2.15,2.15c0,1.188-0.963,2.15-2.15,2.15
				C38.835,36.717,37.871,35.755,37.871,34.565z M37.871,43.301c0-1.187,0.965-2.15,2.151-2.15c1.188,0,2.15,0.964,2.15,2.15
				c0,1.189-0.963,2.151-2.15,2.151C38.835,45.454,37.871,44.491,37.871,43.301z M37.871,52.04c0-1.188,0.965-2.15,2.151-2.15
				c1.188,0,2.15,0.963,2.15,2.15c0,1.188-0.963,2.151-2.15,2.151C38.835,54.191,37.871,53.226,37.871,52.04z M37.871,60.777
				c0-1.188,0.965-2.151,2.151-2.151c1.188,0,2.15,0.964,2.15,2.151c0,1.189-0.963,2.151-2.15,2.151
				C38.835,62.927,37.871,61.965,37.871,60.777z M72.589,82.594c0,1.188-0.966,2.151-2.151,2.151s-2.149-0.963-2.149-2.151
				c0-1.188,0.965-2.15,2.149-2.15C71.624,80.443,72.589,81.407,72.589,82.594z M20.166,82.594c0,1.188-0.963,2.151-2.149,2.151
				c-1.189,0-2.151-0.965-2.151-2.151c0-1.188,0.963-2.15,2.151-2.15C19.204,80.443,20.166,81.407,20.166,82.594z M7.125,82.618
				c0-1.188,0.965-2.15,2.151-2.15c1.186,0,2.15,0.964,2.15,2.15s-0.965,2.151-2.15,2.151C8.09,84.771,7.125,83.807,7.125,82.618z
				 M59.546,82.618c0-1.188,0.964-2.15,2.152-2.15s2.15,0.964,2.15,2.15s-0.963,2.151-2.15,2.151
				C60.511,84.771,59.546,83.807,59.546,82.618z M37.871,104.462c0-1.188,0.965-2.152,2.151-2.152c1.188,0,2.15,0.964,2.15,2.152
				c0,1.186-0.963,2.15-2.15,2.15C38.835,106.61,37.871,105.649,37.871,104.462z M37.871,113.198c0-1.189,0.965-2.15,2.151-2.15
				c1.188,0,2.15,0.963,2.15,2.15s-0.963,2.15-2.15,2.15C38.835,115.35,37.871,114.386,37.871,113.198z M37.871,121.935
				c0-1.188,0.965-2.151,2.151-2.151c1.188,0,2.15,0.964,2.15,2.151c0,1.186-0.963,2.15-2.15,2.15
				C38.835,124.087,37.871,123.124,37.871,121.935z M37.871,130.671c0-1.189,0.965-2.15,2.151-2.15c1.188,0,2.15,0.965,2.15,2.15
				c0,1.188-0.963,2.15-2.15,2.15C38.835,132.823,37.871,131.86,37.871,130.671z M37.871,139.407c0-1.188,0.965-2.15,2.151-2.15
				c1.188,0,2.15,0.965,2.15,2.15c0,1.187-0.963,2.15-2.15,2.15C38.835,141.56,37.871,140.599,37.871,139.407z M37.871,148.146
				c0-1.188,0.965-2.149,2.151-2.149c1.188,0,2.15,0.964,2.15,2.149c0,1.189-0.963,2.153-2.15,2.153
				C38.835,150.299,37.871,149.335,37.871,148.146z M37.871,156.882c0-1.188,0.965-2.148,2.151-2.148c1.188,0,2.15,0.963,2.15,2.148
				c0,1.189-0.963,2.152-2.15,2.152C38.835,159.034,37.871,158.071,37.871,156.882z"/>
			<path fill="#B2B2B2" d="M40.022,165.188c-9.762,0-10.094-9.322-10.098-9.42l-3.172-57.461c-0.217-2.747-2.563-4.914-5.338-4.914
				H10.799c-2.946,0-5.697-1.165-7.749-3.278c-2.051-2.113-3.134-4.904-3.045-7.854c0.174-5.772,5.205-10.466,11.218-10.466h9.874
				c2.787,0,5.132-2.178,5.34-4.96c1.625-21.669,3.47-57.075,3.488-57.43c0-0.07,0.27-9.406,10.098-9.406
				c9.826,0,10.095,9.329,10.095,9.423c0.02,0.331,1.865,35.741,3.491,57.413c0.206,2.781,2.554,4.96,5.339,4.96h10.297
				c2.947,0,5.698,1.166,7.751,3.278c2.051,2.113,3.132,4.902,3.042,7.853c-0.172,5.771-5.203,10.467-11.217,10.467H58.628
				c-2.773,0-5.118,2.165-5.34,4.932l-3.173,57.458C50.117,155.858,49.783,165.188,40.022,165.188z M11.223,73.198
				c-5.261,0-9.666,4.086-9.815,9.106c-0.077,2.568,0.864,4.995,2.649,6.834c1.785,1.84,4.18,2.854,6.743,2.854h10.614
				c3.501,0,6.46,2.733,6.737,6.221l3.174,57.501c0.01,0.35,0.318,8.07,8.695,8.07s8.686-7.729,8.694-8.057l3.175-57.497
				c0.282-3.505,3.241-6.239,6.741-6.239h10.191c5.262,0,9.667-4.086,9.815-9.109c0.077-2.567-0.862-4.995-2.649-6.833
				c-1.784-1.839-4.178-2.853-6.746-2.853H58.947c-3.517,0-6.478-2.748-6.739-6.257c-1.626-21.689-3.474-57.115-3.493-57.471
				c-0.007-0.354-0.259-8.069-8.694-8.069c-8.465,0-8.688,7.723-8.693,8.053c-0.02,0.38-1.867,35.801-3.494,57.488
				c-0.263,3.507-3.223,6.255-6.738,6.255H11.223z M40.022,159.735c-1.574,0-2.853-1.281-2.853-2.854s1.28-2.85,2.853-2.85
				s2.852,1.277,2.852,2.85S41.594,159.735,40.022,159.735z M40.022,155.435c-0.8,0-1.45,0.648-1.45,1.447
				c0,0.801,0.65,1.451,1.45,1.451c0.799,0,1.449-0.65,1.449-1.451C41.471,156.083,40.822,155.435,40.022,155.435z M40.022,150.999
				c-1.574,0-2.853-1.281-2.853-2.854c0-1.571,1.28-2.85,2.853-2.85s2.852,1.278,2.852,2.85
				C42.874,149.718,41.594,150.999,40.022,150.999z M40.022,146.696c-0.8,0-1.45,0.65-1.45,1.449c0,0.801,0.65,1.449,1.45,1.449
				c0.799,0,1.449-0.648,1.449-1.449C41.471,147.347,40.822,146.696,40.022,146.696z M40.022,142.261
				c-1.574,0-2.853-1.28-2.853-2.853c0-1.571,1.28-2.852,2.853-2.852s2.852,1.28,2.852,2.852
				C42.874,140.98,41.594,142.261,40.022,142.261z M40.022,137.959c-0.8,0-1.45,0.65-1.45,1.449c0,0.8,0.65,1.45,1.45,1.45
				c0.799,0,1.449-0.65,1.449-1.45C41.471,138.609,40.822,137.959,40.022,137.959z M40.022,133.524
				c-1.574,0-2.853-1.279-2.853-2.852c0-1.574,1.28-2.853,2.853-2.853s2.852,1.28,2.852,2.853S41.594,133.524,40.022,133.524z
				 M40.022,129.22c-0.8,0-1.45,0.651-1.45,1.45s0.65,1.448,1.45,1.448c0.799,0,1.449-0.649,1.449-1.448
				C41.471,129.872,40.822,129.22,40.022,129.22z M40.022,124.788c-1.574,0-2.853-1.28-2.853-2.853c0-1.571,1.28-2.852,2.853-2.852
				s2.852,1.28,2.852,2.852C42.874,123.508,41.594,124.788,40.022,124.788z M40.022,120.486c-0.8,0-1.45,0.65-1.45,1.449
				c0,0.8,0.65,1.45,1.45,1.45c0.799,0,1.449-0.65,1.449-1.45C41.471,121.137,40.822,120.486,40.022,120.486z M40.022,116.051
				c-1.574,0-2.853-1.278-2.853-2.851c0-1.574,1.28-2.853,2.853-2.853s2.852,1.28,2.852,2.853S41.594,116.051,40.022,116.051z
				 M40.022,111.749c-0.8,0-1.45,0.65-1.45,1.449s0.65,1.449,1.45,1.449c0.799,0,1.449-0.65,1.449-1.449
				S40.822,111.749,40.022,111.749z M40.022,107.312c-1.574,0-2.853-1.279-2.853-2.852s1.28-2.852,2.853-2.852
				s2.852,1.28,2.852,2.852S41.594,107.312,40.022,107.312z M40.022,103.01c-0.8,0-1.45,0.651-1.45,1.45s0.65,1.449,1.45,1.449
				c0.799,0,1.449-0.65,1.449-1.449S40.822,103.01,40.022,103.01z M61.699,85.472c-1.574,0-2.854-1.281-2.854-2.853
				s1.281-2.852,2.854-2.852s2.852,1.28,2.852,2.852S63.271,85.472,61.699,85.472z M61.699,81.169c-0.8,0-1.451,0.651-1.451,1.45
				c0,0.8,0.651,1.45,1.451,1.45c0.797,0,1.449-0.65,1.449-1.45C63.148,81.82,62.499,81.169,61.699,81.169z M9.277,85.472
				c-1.574,0-2.853-1.281-2.853-2.853s1.28-2.852,2.853-2.852c1.571,0,2.853,1.28,2.853,2.852S10.849,85.472,9.277,85.472z
				 M9.277,81.169c-0.8,0-1.45,0.651-1.45,1.45c0,0.8,0.65,1.45,1.45,1.45c0.799,0,1.449-0.65,1.449-1.45
				C10.726,81.82,10.077,81.169,9.277,81.169z M70.438,85.448c-1.573,0-2.851-1.281-2.851-2.853c0-1.571,1.278-2.852,2.851-2.852
				s2.853,1.28,2.853,2.852C73.291,84.166,72.01,85.448,70.438,85.448z M70.438,81.145c-0.8,0-1.449,0.65-1.449,1.449
				c0,0.8,0.649,1.45,1.449,1.45s1.45-0.65,1.45-1.45C71.888,81.795,71.238,81.145,70.438,81.145z M18.017,85.448
				c-1.574,0-2.853-1.281-2.853-2.853c0-1.571,1.28-2.852,2.853-2.852c1.572,0,2.85,1.28,2.85,2.852
				C20.867,84.166,19.588,85.448,18.017,85.448z M18.017,81.145c-0.8,0-1.45,0.65-1.45,1.449c0,0.8,0.65,1.45,1.45,1.45
				c0.799,0,1.448-0.65,1.448-1.45C19.464,81.795,18.815,81.145,18.017,81.145z M40.022,63.628c-1.574,0-2.853-1.281-2.853-2.852
				c0-1.572,1.28-2.852,2.853-2.852s2.852,1.28,2.852,2.852C42.874,62.347,41.594,63.628,40.022,63.628z M40.022,59.327
				c-0.8,0-1.45,0.65-1.45,1.45c0,0.799,0.65,1.45,1.45,1.45c0.799,0,1.449-0.65,1.449-1.45
				C41.471,59.977,40.822,59.327,40.022,59.327z M40.022,54.892c-1.574,0-2.853-1.28-2.853-2.853c0-1.571,1.28-2.852,2.853-2.852
				s2.852,1.28,2.852,2.852C42.874,53.612,41.594,54.892,40.022,54.892z M40.022,50.59c-0.8,0-1.45,0.65-1.45,1.449
				c0,0.8,0.65,1.45,1.45,1.45c0.799,0,1.449-0.65,1.449-1.45C41.471,51.239,40.822,50.59,40.022,50.59z M40.022,46.155
				c-1.574,0-2.853-1.28-2.853-2.852c0-1.571,1.28-2.852,2.853-2.852s2.852,1.28,2.852,2.852
				C42.874,44.873,41.594,46.155,40.022,46.155z M40.022,41.853c-0.8,0-1.45,0.65-1.45,1.45c0,0.8,0.65,1.45,1.45,1.45
				c0.799,0,1.449-0.65,1.449-1.45C41.471,42.503,40.822,41.853,40.022,41.853z M40.022,37.418c-1.574,0-2.853-1.279-2.853-2.851
				c0-1.573,1.28-2.852,2.853-2.852s2.852,1.28,2.852,2.852C42.874,36.139,41.594,37.418,40.022,37.418z M40.022,33.116
				c-0.8,0-1.45,0.65-1.45,1.449c0,0.8,0.65,1.449,1.45,1.449c0.799,0,1.449-0.649,1.449-1.449
				C41.471,33.767,40.822,33.116,40.022,33.116z M40.022,28.681c-1.574,0-2.853-1.28-2.853-2.852c0-1.572,1.28-2.852,2.853-2.852
				s2.852,1.279,2.852,2.852C42.874,27.4,41.594,28.681,40.022,28.681z M40.022,24.379c-0.8,0-1.45,0.65-1.45,1.45
				c0,0.799,0.65,1.45,1.45,1.45c0.799,0,1.449-0.651,1.449-1.45C41.471,25.029,40.822,24.379,40.022,24.379z M40.022,19.944
				c-1.574,0-2.853-1.279-2.853-2.851c0-1.573,1.28-2.853,2.853-2.853s2.852,1.281,2.852,2.853S41.594,19.944,40.022,19.944z
				 M40.022,15.641c-0.8,0-1.45,0.651-1.45,1.45c0,0.799,0.65,1.449,1.45,1.449c0.799,0,1.449-0.649,1.449-1.449
				C41.471,16.292,40.822,15.641,40.022,15.641z M40.022,11.208c-1.574,0-2.853-1.28-2.853-2.853c0-1.572,1.28-2.852,2.853-2.852
				s2.852,1.28,2.852,2.852C42.874,9.928,41.594,11.208,40.022,11.208z M40.022,6.904c-0.8,0-1.45,0.651-1.45,1.45
				c0,0.799,0.65,1.45,1.45,1.45c0.799,0,1.449-0.651,1.449-1.45C41.471,7.555,40.822,6.904,40.022,6.904z"/>
		</g>
		<path fill="#D1D1D1" d="M40.022,96.629c-7.739,0-14.035-6.296-14.035-14.035c0-7.738,6.296-14.034,14.035-14.034
			c7.738,0,14.033,6.296,14.033,14.034C54.055,90.331,47.76,96.629,40.022,96.629z M40.022,69.963
			c-6.965,0-12.633,5.668-12.633,12.632c0,6.965,5.668,12.633,12.633,12.633s12.631-5.668,12.631-12.633
			C52.653,75.631,46.987,69.963,40.022,69.963z"/>
		<circle fill="#D8D8D8" cx="40.022" cy="82.619" r="7.034"/>
		<path fill="#636363" d="M43.645,83.295h-7.247c-0.387,0-0.701-0.313-0.701-0.701c0-0.387,0.314-0.701,0.701-0.701h7.247
			c0.386,0,0.701,0.314,0.701,0.701C44.346,82.983,44.033,83.295,43.645,83.295z"/>
		<path fill="#636363" d="M40.022,86.918c-0.388,0-0.701-0.313-0.701-0.701v-7.247c0-0.387,0.313-0.701,0.701-0.701
			c0.387,0,0.7,0.314,0.7,0.701v7.247C40.722,86.606,40.41,86.918,40.022,86.918z"/>
	</g>
	<g name="select" opacity="0">
		<path name="selectPath" fill="#373737" d="M70.301,25.492H44.459c-0.382,0-0.692,0.311-0.692,0.692v0.447
			c0,0.994,0.531,1.886,1.348,2.455c2.185,1.516,3.662,3.976,3.835,6.792c0.302,4.912-3.88,9.436-8.805,9.507
			c-0.042,0-0.087,0.002-0.135,0.002c-4.943,0-8.95-4.007-8.95-8.952c0-3.054,1.532-5.744,3.869-7.358
			c0.815-0.562,1.336-1.455,1.336-2.44v-0.45c0-0.38-0.312-0.692-0.692-0.692H9.738c-1.52,0-2.753,1.233-2.753,2.753v20.645v128.88
			v20.646c0,1.52,1.233,2.754,2.753,2.754h22.769v4.877c0,4.918-0.995,7.588-2.146,10.68c-0.962,2.585-2.015,5.431-2.531,9.736
			h-7.002c-0.778,0-1.407,0.523-1.407,1.168v20.734v12.496c0,0.646,0.629,1.168,1.407,1.168h40.811c0.776,0,1.407-0.521,1.407-1.168
			v-12.496v-20.734c0-0.645-0.631-1.168-1.407-1.168h-9.43c-0.498-4.712-1.543-8.34-2.498-11.643
			c-1.136-3.918-2.204-7.619-2.204-12.635v-1.016h22.796c1.521,0,2.753-1.234,2.753-2.754V28.244
			C73.053,26.726,71.822,25.492,70.301,25.492z M32.507,185.546v9.519c-0.808-1.249-1.322-2.704-1.419-4.28
			C30.973,188.905,31.518,187.084,32.507,185.546z M48.976,190.229c0,1.808-0.546,3.481-1.469,4.887v-9.793
			C48.433,186.732,48.976,188.417,48.976,190.229z M37.507,206.048v19.283v1.133h-4.636c0.043-0.305,0.088-0.604,0.136-0.893
			c0,0,0,0-0.001,0c0.491-2.927,1.274-5.037,2.042-7.1C36.257,215.224,37.507,211.864,37.507,206.048z M47.177,226.464h-4.67v-0.973
			V202.19c0,5.723,1.217,9.941,2.4,14.023c0.807,2.787,1.629,5.637,2.128,9.121c-0.001,0-0.001,0-0.001,0
			C47.086,225.702,47.133,226.081,47.177,226.464z"/>
	</g>
	<g name="pinGroup" opacity="0">
		<rect name="signal" x="23.204" y="250.102" fill="#FF0000" width="8" height="8"/>
		<rect name="vcc" x="37.333" y="250.102" fill="#FF0000" width="8.001" height="8"/>
		<rect name="gnd" x="51.261" y="250.102" fill="#FF0000" width="8" height="8"/>
	</g>
</g>
</svg>
